<?xml version="1.0" encoding="utf-8"?>
<!-- Generator: Adobe Illustrator 16.0.0, SVG Export Plug-In . SVG Version: 6.00 Build 0)  -->
<svg version="1.2" baseProfile="tiny" id="Layer_1" xmlns="http://www.w3.org/2000/svg" xmlns:xlink="http://www.w3.org/1999/xlink"
	 x="0px" y="0px" width="990px" height="455px" viewBox="0 0 990 455" overflow="scroll" xml:space="preserve">
<g>
	<path fill="none" d="M476.477,240.894c31.458,0,60.278-23.211,60.278-63.453c0-30.187-22.218-60.867-61.517-60.867
		c-30.401,0-59.064,24.849-59.064,64.097C416.174,216.848,444.303,240.894,476.477,240.894z"/>
	<path fill="#E20877" d="M55.366,215.11c-2.234-1.734-4.838-3.228-7.638-4.452c-2.863-1.231-5.951-2.184-9.185-2.801
		c-3.22-0.614-6.608-0.909-10.021-0.792c-4.117,0.134-7.882,0.798-11.246,1.954c-3.32,1.116-6.24,2.703-8.536,4.626
		c-2.302,1.955-4.026,4.241-5.005,6.74c-1.007,2.54-1.246,5.298-0.566,8.176c0.648,2.904,2.133,5.638,4.306,8.098
		c2.163,2.475,4.975,4.657,8.224,6.484c3.282,1.8,7.012,3.208,10.982,4.105c3.979,0.906,8.183,1.275,12.424,1.078
		c3.55-0.172,6.836-0.749,9.749-1.679c2.935-0.935,5.507-2.187,7.68-3.72c2.173-1.503,3.909-3.276,5.153-5.226
		c1.266-1.953,2.025-4.054,2.256-6.3l46.824-2.042c0.679,1.234,1.464,2.457,2.311,3.658c0.856,1.16,1.786,2.321,2.782,3.451
		c1.03,1.146,2.108,2.244,3.27,3.303c1.149,1.052,2.384,2.052,3.668,3.057l-23.4,23.795c-1.245-0.421-2.494-0.752-3.801-1.042
		c-1.286-0.283-2.582-0.534-3.908-0.706c-1.327-0.169-2.669-0.29-4.027-0.33c-1.357-0.039-2.724-0.028-4.078,0.021
		c-4.146,0.253-7.948,1.086-11.289,2.426c-3.338,1.325-6.19,3.144-8.415,5.316c-2.246,2.182-3.857,4.732-4.703,7.545
		c-0.878,2.8-0.952,5.854-0.113,8.996c0.846,3.195,2.551,6.169,4.878,8.84c2.34,2.676,5.33,5.029,8.756,6.953
		c3.448,1.91,7.324,3.37,11.402,4.264c4.097,0.911,8.425,1.229,12.726,0.911c4.266-0.34,8.132-1.327,11.465-2.785
		c3.312-1.471,6.083-3.427,8.185-5.712c2.086-2.293,3.519-4.905,4.179-7.746c0.646-2.78,0.539-5.834-0.449-8.904
		c-0.327-0.998-0.736-1.995-1.225-2.955c-0.479-0.964-1.047-1.891-1.685-2.788c-0.629-0.911-1.348-1.778-2.107-2.624
		c-0.766-0.838-1.593-1.645-2.48-2.403l22.614-23.659c2.509,1.125,5.133,2.132,7.806,3.002c2.706,0.833,5.445,1.565,8.236,2.1
		c2.792,0.541,5.633,0.931,8.485,1.125c2.853,0.202,5.705,0.232,8.546,0.084c5.923-0.354,11.245-1.496,15.853-3.253
		c4.546-1.732,8.391-4.095,11.388-6.935c2.962-2.803,5.085-6.085,6.25-9.635c1.181-3.543,1.42-7.358,0.6-11.326l26.185-1.159
		c3.416,5.985,8.136,11.659,13.867,16.804c5.755,5.222,12.486,9.861,19.823,13.761c7.344,3.895,15.309,7.031,23.503,9.222
		c8.129,2.186,16.476,3.421,24.669,3.509l10.38,21.03c-4.856,1.047-9.042,2.819-12.501,5.225c-3.471,2.413-6.195,5.413-8.049,8.894
		c-1.867,3.521-2.871,7.472-2.819,11.787c0.018,4.324,1.065,8.983,3.292,13.786c1.054,2.305,2.362,4.54,3.827,6.717
		c1.493,2.185,3.167,4.263,5.033,6.24c1.842,2.022,3.858,3.906,6.013,5.704c2.162,1.809,4.459,3.47,6.872,5.014l-16.883,27.978
		c-1.235-0.408-2.521-0.767-3.826-1.023c-1.286-0.273-2.583-0.504-3.889-0.63c-1.286-0.147-2.623-0.229-3.921-0.219
		c-1.304-0.011-2.601,0.071-3.873,0.219c-3.917,0.468-7.355,1.626-10.244,3.281c-2.903,1.684-5.236,3.898-6.904,6.519
		c-1.671,2.623-2.667,5.666-2.871,8.915c-0.221,3.28,0.349,6.813,1.824,10.429c1.487,3.659,3.739,7.024,6.552,10.004
		c2.823,2.979,6.174,5.57,9.861,7.617c3.71,2.067,7.715,3.581,11.836,4.44c4.091,0.853,8.263,1.041,12.304,0.435
		c4.026-0.57,7.529-1.867,10.36-3.729c2.853-1.845,5.076-4.206,6.571-6.959c1.507-2.735,2.285-5.816,2.332-9.134
		c0.011-3.27-0.744-6.748-2.34-10.252c-0.538-1.155-1.141-2.296-1.817-3.383c-0.658-1.098-1.413-2.14-2.21-3.158
		c-0.803-0.999-1.649-1.973-2.575-2.913c-0.928-0.935-1.876-1.821-2.901-2.665l16.72-28.78c1.703,0.638,3.452,1.182,5.214,1.684
		c1.727,0.49,3.503,0.931,5.258,1.265c1.766,0.349,3.54,0.629,5.284,0.829c1.772,0.206,3.517,0.301,5.261,0.331l19.405,39.323
		c-2.512,1.105-4.652,2.62-6.331,4.461c-1.704,1.842-2.972,4.043-3.71,6.45c-0.777,2.44-1.046,5.121-0.777,7.938
		c0.291,2.857,1.148,5.822,2.595,8.893c1.745,3.626,4.178,7.026,7.125,9.987c2.965,2.991,6.386,5.574,10.095,7.62
		c3.699,2.032,7.656,3.53,11.661,4.37c3.983,0.835,8.002,1.013,11.767,0.378c3.783-0.618,6.992-1.978,9.542-3.871
		c2.536-1.874,4.47-4.284,5.676-7.082c1.155-2.748,1.657-5.883,1.388-9.22c-0.283-3.291-1.296-6.791-3.169-10.318
		c-1.501-2.953-3.514-5.688-5.807-8.155c-2.304-2.445-4.967-4.65-7.775-6.508c-2.802-1.884-5.854-3.416-8.964-4.575
		c-3.114-1.164-6.345-1.934-9.532-2.262l-19.695-38.987c1.489-0.399,2.911-0.878,4.259-1.409c1.358-0.566,2.635-1.185,3.837-1.872
		c1.189-0.656,2.318-1.396,3.372-2.204c1.018-0.798,1.995-1.662,2.878-2.569l39.321,21.115c-0.055,0.909-0.044,1.896,0.051,2.865
		c0.083,0.982,0.241,1.974,0.483,3.019c0.251,1.029,0.582,2.083,1.01,3.124c0.419,1.086,0.91,2.162,1.487,3.248
		c1.795,3.309,4.208,6.379,7.096,9.114c2.853,2.719,6.124,5.081,9.633,6.981c3.5,1.883,7.21,3.3,10.91,4.094
		c3.688,0.829,7.376,1.019,10.817,0.503c3.448-0.489,6.341-1.658,8.587-3.311c2.234-1.649,3.866-3.8,4.804-6.293
		c0.988-2.463,1.269-5.254,0.85-8.245c-0.421-2.984-1.537-6.142-3.419-9.353c-1.846-3.186-4.291-6.164-7.093-8.727
		c-2.802-2.566-5.98-4.803-9.331-6.592c-3.354-1.784-6.901-3.102-10.462-3.906c-3.519-0.796-7.086-1.068-10.429-0.65
		c-1.116,0.128-2.151,0.316-3.169,0.589c-0.989,0.279-1.907,0.57-2.794,0.987c-0.905,0.367-1.727,0.818-2.482,1.299
		c-0.748,0.505-1.446,1.063-2.097,1.671l-38.206-20.43c0.618-1.807,1.014-3.71,1.214-5.685c0.21-1.932,0.173-3.967-0.076-6.048
		c-0.241-2.067-0.719-4.19-1.451-6.355c-0.712-2.141-1.631-4.308-2.819-6.521c-2.45-4.544-5.753-8.785-9.611-12.611
		c-3.859-3.789-8.314-7.169-13.1-9.999c-4.796-2.843-9.99-5.161-15.277-6.794c-5.316-1.686-10.771-2.701-16.164-2.96l-10.589-20.862
		c7.421-1.108,13.819-3.259,19.052-6.271c5.204-2.939,9.238-6.697,12.046-11.015c2.773-4.315,4.317-9.134,4.539-14.36
		c0.208-5.116-0.839-10.658-3.304-16.313c-4.433-8.146-8.557-13.634-11.632-17.209c-2.296-2.435-4.796-4.775-7.492-6.999
		c-5.462-4.547-11.684-8.619-18.358-12.048c-6.657-3.429-13.805-6.241-21.087-8.276c-7.359-2.051-14.895-3.321-22.384-3.698
		l-8.518-16.86c4.379-0.539,8.15-1.658,11.268-3.239c3.053-1.566,5.484-3.583,7.083-5.934c1.631-2.354,2.479-5.007,2.5-7.909
		c0.011-2.883-0.796-5.975-2.522-9.185c-0.835-1.546-1.816-3.02-2.991-4.484c-1.126-1.438-2.431-2.843-3.852-4.17
		c-1.413-1.356-2.969-2.652-4.622-3.856c-1.668-1.23-3.423-2.383-5.294-3.469l13.768-14.391c0.934,0.307,1.883,0.588,2.824,0.827
		c0.974,0.251,1.905,0.46,2.864,0.629c0.951,0.178,1.922,0.336,2.874,0.438c0.942,0.092,1.879,0.168,2.845,0.178
		c2.853,0.042,5.295-0.325,7.366-0.994c2.018-0.648,3.624-1.64,4.731-2.863c1.116-1.188,1.734-2.633,1.811-4.229
		c0.061-1.623-0.417-3.39-1.504-5.256c-1.076-1.842-2.668-3.607-4.586-5.225c-1.934-1.622-4.244-3.099-6.723-4.327
		c-2.5-1.235-5.183-2.261-7.961-3.01c-2.792-0.736-5.655-1.173-8.408-1.256c-2.802-0.081-5.226,0.199-7.279,0.816
		c-2.064,0.602-3.729,1.526-4.917,2.675c-1.196,1.183-1.916,2.56-2.093,4.168c-0.138,1.598,0.262,3.366,1.254,5.256
		c0.352,0.627,0.719,1.254,1.181,1.853c0.469,0.597,0.949,1.179,1.526,1.773c0.545,0.588,1.137,1.16,1.785,1.705
		c0.64,0.562,1.326,1.098,2.049,1.628l-14.274,14.486c-1.337-0.479-2.674-0.928-4.052-1.357c-1.362-0.418-2.761-0.796-4.153-1.143
		c-1.376-0.333-2.798-0.613-4.212-0.868c-1.417-0.241-2.83-0.449-4.247-0.622l-11.574-22.813c2.104-0.347,3.878-0.913,5.385-1.695
		c1.483-0.773,2.653-1.713,3.448-2.831c0.797-1.116,1.225-2.372,1.254-3.729c0.04-1.363-0.326-2.842-1.107-4.38
		c-0.974-1.831-2.467-3.587-4.357-5.192c-1.842-1.607-4.105-3.061-6.577-4.317c-2.504-1.255-5.222-2.291-8.074-3.041
		c-2.834-0.74-5.768-1.225-8.642-1.307c-2.918-0.116-5.497,0.139-7.704,0.711c-2.212,0.575-4.03,1.464-5.379,2.591
		c-1.373,1.117-2.249,2.5-2.572,4.077c-0.323,1.566-0.076,3.301,0.829,5.185c0.74,1.565,1.868,3.081,3.32,4.516
		c1.487,1.438,3.261,2.774,5.255,3.969c1.977,1.22,4.19,2.296,6.542,3.153c2.343,0.867,4.818,1.566,7.295,1.995l11.359,22.96
		c-1.297,0.124-2.572,0.291-3.753,0.502c-1.192,0.229-2.369,0.478-3.466,0.784c-1.112,0.312-2.188,0.649-3.17,1.036
		c-1.002,0.414-1.943,0.842-2.842,1.317l-30.68-15.634c0.251-0.525,0.441-1.078,0.557-1.643c0.113-0.541,0.173-1.14,0.142-1.735
		c-0.019-0.582-0.08-1.18-0.229-1.817c-0.168-0.626-0.396-1.265-0.687-1.913c-0.89-1.944-2.367-3.821-4.267-5.524
		c-1.869-1.695-4.211-3.251-6.793-4.577c-2.582-1.306-5.432-2.403-8.442-3.169c-2.976-0.787-6.104-1.267-9.236-1.356
		c-3.112-0.073-5.934,0.218-8.319,0.846c-2.443,0.646-4.474,1.606-6.021,2.812c-1.566,1.241-2.622,2.714-3.082,4.388
		c-0.479,1.685-0.355,3.571,0.46,5.566c0.827,2.001,2.271,3.92,4.16,5.699c1.893,1.786,4.274,3.395,6.949,4.761
		c2.664,1.374,5.632,2.5,8.756,3.308c3.097,0.78,6.322,1.264,9.521,1.294c1.076,0.021,2.082-0.008,3.063-0.076
		c0.964-0.07,1.913-0.197,2.779-0.352c0.9-0.128,1.755-0.356,2.542-0.564c0.79-0.23,1.545-0.503,2.265-0.797l30.378,15.542
		c-0.857,1.075-1.54,2.254-2.009,3.479c-0.501,1.274-0.792,2.582-0.919,3.948c-0.113,1.389-0.041,2.821,0.261,4.307
		c0.295,1.517,0.807,3.063,1.526,4.638c1.534,3.323,3.907,6.543,6.97,9.512c3.042,2.965,6.759,5.715,10.887,8.098
		c4.14,2.383,8.714,4.388,13.493,5.914c4.775,1.546,9.761,2.603,14.713,3.031l8.38,16.98c-7.112,0.638-13.471,2.203-18.889,4.557
		c-5.48,2.371-10.022,5.556-13.47,9.372c-3.493,3.848-5.854,8.357-6.909,13.364c-1.086,5.056-0.85,10.629,0.96,16.513l-26.007,0.991
		c-2.384-3.805-5.615-7.337-9.438-10.479c-3.837-3.147-8.263-5.887-13.06-8.153c-4.821-2.265-10.047-4.052-15.481-5.214
		c-5.398-1.168-11.03-1.767-16.695-1.588c-2.664,0.052-5.255,0.291-7.746,0.68c-2.475,0.398-4.805,0.918-7.029,1.598
		c-2.226,0.686-4.297,1.482-6.23,2.449c-1.934,0.926-3.721,2.005-5.319,3.204l-34.517-18.44c0.389-0.669,0.688-1.403,0.914-2.112
		c0.229-0.756,0.372-1.495,0.449-2.271c0.082-0.78,0.07-1.535-0.045-2.357c-0.092-0.797-0.26-1.601-0.522-2.438
		c-0.795-2.464-2.274-4.808-4.346-6.935c-2.026-2.103-4.639-3.976-7.578-5.562c-2.954-1.546-6.259-2.821-9.78-3.66
		c-3.542-0.876-7.292-1.325-11.078-1.306c-3.8,0.042-7.26,0.576-10.342,1.516c-3.083,0.908-5.705,2.26-7.807,3.899
		c-2.067,1.643-3.629,3.657-4.484,5.853c-0.843,2.173-1.013,4.607-0.333,7.158c0.658,2.536,2.122,4.985,4.159,7.199
		c2.071,2.215,4.704,4.178,7.777,5.822c3.07,1.679,6.541,2.975,10.22,3.872c3.699,0.847,7.588,1.296,11.516,1.204
		c1.271-0.031,2.514-0.127,3.739-0.26c1.2-0.138,2.364-0.338,3.49-0.598c1.108-0.26,2.175-0.55,3.174-0.867
		c1.016-0.368,1.975-0.729,2.877-1.158l35.463,18.995c-0.592,0.996-1.117,2.018-1.537,3.093c-0.43,1.087-0.779,2.184-1.03,3.304
		c-0.24,1.129-0.409,2.289-0.469,3.466c-0.076,1.185-0.047,2.417,0.111,3.63l-46.467,1.817
		C59.515,218.791,57.621,216.824,55.366,215.11z"/>
	<path fill="#29306C" d="M760.647,116.56c31.366,0,35.889,16.382,51.688,16.382c7.071,0,12.468-6.291,12.468-12.624
		c0-3.758-2.519-8.376-5.785-11.659c-11.428-11.275-31.907-19.25-57.513-19.25c-53.578,0-88.374,39.742-88.374,90.854
		c0,52.832,36.439,88.298,88.8,88.298c23.491,0,44.718-8.277,55.331-18.897c2.635-2.503,5.879-7.3,5.879-12.034
		c0-7.671-4.847-12.092-12.521-12.092c-13.61,0-17.543,15.882-47.454,15.882c-33.787,0-59.114-26.123-59.114-61.156
		C704.052,138.263,730.869,116.56,760.647,116.56z"/>
	<path fill="#29306C" d="M401.125,1.918c-14.708,0-14.708,12.923-14.708,20.43V159.04c0,40.964,1.856,62.113,23.551,83.55
		c15.181,15.292,35.11,25.972,66.509,25.972c49.816,0,91.3-34.724,91.3-91.53c0-53.345-41.483-87.618-87.128-87.618
		c-44.547,0-62.782,27.16-64.875,31.799V22.348C415.774,15.259,415.774,1.918,401.125,1.918z M475.238,116.573
		c39.299,0,61.517,30.681,61.517,60.867c0,40.242-28.82,63.453-60.278,63.453c-32.173,0-60.303-24.046-60.303-60.224
		C416.174,141.422,444.837,116.573,475.238,116.573z"/>
	<path fill="#29306C" d="M618.024,89.403c-14.758,0-15.146,12.935-15.146,20.425v138.177c0,7.58,0.389,20.557,15.146,20.557
		c15.083,0,15.083-13.426,15.083-20.557V109.828C633.107,102.775,633.107,89.403,618.024,89.403z"/>
	<path fill="#E20877" d="M617.975,31.879c-9.818,0-17.778,7.965-17.778,17.796c0,9.833,7.96,17.808,17.778,17.808
		c9.847,0,17.804-7.975,17.804-17.808C635.778,39.844,627.821,31.879,617.975,31.879z"/>
	<path fill="#29306C" d="M894.104,136.875c0-14.785,14.123-22.006,30.574-22.006c27.657,0,32.572,17.752,45.066,17.752
		c8.876,0,13.163-5.6,13.163-11.849c0-18.098-34.229-30.909-58.229-30.909c-29.246,0-59.503,17.108-59.503,49.323
		c0,48.663,93.385,46.698,93.385,80.892c0,11.814-12.809,23.676-33.882,23.676c-31.552,0-42.065-21.377-54.883-21.377
		c-6.252,0-11.856,5.255-11.856,13.166c0,14.796,28.939,33.199,65.761,33.199c32.574,0,63.8-17.417,63.8-53.941
		C987.5,164.178,894.104,167.471,894.104,136.875z"/>
</g>
</svg>
