<?xml version="1.0" encoding="utf-8" ?>
<svg baseProfile="tiny" height="2000px" version="1.2" viewBox="0,0,1024,1536" width="1000px" xmlns="http://www.w3.org/2000/svg" xmlns:ev="http://www.w3.org/2001/xml-events" xmlns:xlink="http://www.w3.org/1999/xlink"><defs /><polyline fill="none" points="491.2,0.0 491.0,0.2 490.2,1.0 490.2,2.0 490.0,2.2 489.2,3.0 489.2,4.0 489.2,5.0 489.0,5.2 488.2,6.0 489.0,6.8 489.2,7.0 489.0,7.2 488.0,7.2 487.2,8.0 487.0,8.2 486.2,9.0 486.2,10.0 486.0,10.2 485.2,11.0 486.0,11.8 486.2,12.0 486.2,13.0 486.0,13.2 485.2,14.0 486.0,14.8 486.2,15.0 487.0,15.8 488.0,15.8 488.2,16.0 488.0,16.2 487.0,16.2 486.2,17.0 487.0,17.8 487.2,18.0 487.2,19.0 487.2,20.0 487.0,20.2 486.2,21.0 486.0,21.2 485.2,22.0 486.0,22.8 486.2,23.0 486.0,23.2 485.0,23.2 484.2,24.0 484.2,25.0 485.0,25.8 485.2,26.0 485.0,26.2 484.2,27.0 484.2,28.0 484.2,29.0 484.0,29.2 483.2,30.0 483.2,31.0 483.0,31.2 482.2,32.0 482.2,33.0 482.0,33.2 481.2,34.0 481.2,35.0 481.2,36.0 481.2,37.0 481.2,38.0 481.2,39.0 481.2,40.0 481.2,41.0 481.2,42.0 481.2,43.0 481.0,43.2 480.8,43.0 480.0,42.2 479.2,43.0 479.2,44.0 480.0,44.8 480.2,45.0 480.2,46.0 480.2,47.0 480.0,47.2 479.2,48.0 479.0,48.2 478.2,49.0 478.2,50.0 478.2,51.0 478.2,52.0 478.2,53.0 478.0,53.2 477.2,54.0 478.0,54.8 478.2,55.0 478.0,55.2 477.0,55.2 476.0,55.2 475.2,56.0 475.2,57.0 475.2,58.0 475.2,59.0 475.2,60.0 475.2,61.0 475.0,61.2 474.8,61.0 474.0,60.2 473.2,61.0 474.0,61.8 474.2,62.0 474.2,63.0 474.2,64.0 475.0,64.8 475.2,65.0 475.0,65.2 474.2,66.0 474.2,67.0 474.0,67.2 473.2,68.0 473.2,69.0 473.0,69.2 472.2,70.0 473.0,70.8 473.2,71.0 474.0,71.8 474.2,72.0 474.2,73.0 474.2,74.0 474.2,75.0 474.2,76.0 474.0,76.2 473.2,77.0 473.2,78.0 473.2,79.0 473.2,80.0 473.0,80.2 472.8,80.0 472.0,79.2 471.2,80.0 472.0,80.8 472.2,81.0 473.0,81.8 473.2,82.0 473.0,82.2 472.0,82.2 471.2,83.0 471.2,84.0 471.2,85.0 472.0,85.8 472.2,86.0 472.0,86.2 471.2,87.0 472.0,87.8 473.0,87.8 473.2,88.0 473.2,89.0 473.2,90.0 473.0,90.2 472.2,91.0 473.0,91.8 473.2,92.0 473.0,92.2 472.2,93.0 472.2,94.0 473.0,94.8 473.2,95.0 473.0,95.2 472.2,96.0 472.2,97.0 472.2,98.0 472.0,98.2 471.2,99.0 472.0,99.8 472.2,100.0 472.2,101.0 472.2,102.0 472.0,102.2 471.2,103.0 471.2,104.0 471.0,104.2 470.2,105.0 470.2,106.0 470.0,106.2 469.2,107.0 470.0,107.8 470.2,108.0 470.2,109.0 470.0,109.2 469.2,110.0 470.0,110.8 470.2,111.0 471.0,111.8 471.2,112.0 471.0,112.2 470.2,113.0 471.0,113.8 471.2,114.0 471.0,114.2 470.0,114.2 469.2,115.0 470.0,115.8 470.2,116.0 470.0,116.2 469.2,117.0 469.2,118.0 469.2,119.0 470.0,119.8 471.0,119.8 472.0,119.8 473.0,119.8 473.2,120.0 473.0,120.2 472.2,121.0 472.2,122.0 472.0,122.2 471.2,123.0 472.0,123.8 472.2,124.0 472.2,125.0 472.2,126.0 472.2,127.0 472.0,127.2 471.2,128.0 471.2,129.0 471.2,130.0 471.2,131.0 471.0,131.2 470.2,132.0 471.0,132.8 471.2,133.0 471.0,133.2 470.2,134.0 470.2,135.0 471.0,135.8 472.0,135.8 472.2,136.0 472.2,137.0 472.0,137.2 471.2,138.0 471.2,139.0 471.2,140.0 471.2,141.0 471.2,142.0 471.2,143.0 472.0,143.8 473.0,143.8 473.2,144.0 473.0,144.2 472.2,145.0 472.2,146.0 472.0,146.2 471.2,147.0 472.0,147.8 472.2,148.0 472.2,149.0 472.0,149.2 471.2,150.0 471.2,151.0 471.2,152.0 471.0,152.2 470.2,153.0 470.2,154.0 470.0,154.2 469.2,155.0 470.0,155.8 470.2,156.0 470.2,157.0 470.0,157.2 469.2,158.0 470.0,158.8 470.2,159.0 470.2,160.0 470.2,161.0 470.2,162.0 470.2,163.0 470.2,164.0 470.2,165.0 470.0,165.2 469.2,166.0 470.0,166.8 470.2,167.0 471.0,167.8 471.2,168.0 471.2,169.0 471.0,169.2 470.2,170.0 471.0,170.8 471.2,171.0 471.0,171.2 470.2,172.0 470.2,173.0 470.2,174.0 470.2,175.0 470.2,176.0 470.0,176.2 469.2,177.0 470.0,177.8 470.2,178.0 470.0,178.2 469.2,179.0 470.0,179.8 470.2,180.0 470.0,180.2 469.2,181.0 469.0,181.2 468.2,182.0 469.0,182.8 469.2,183.0 470.0,183.8 470.2,184.0 470.2,185.0 470.0,185.2 469.2,186.0 469.2,187.0 469.2,188.0 469.2,189.0 469.2,190.0 469.2,191.0 469.2,192.0 469.0,192.2 468.2,193.0 469.0,193.8 469.2,194.0 469.0,194.2 468.2,195.0 468.2,196.0 468.2,197.0 468.0,197.2 467.2,198.0 468.0,198.8 468.2,199.0 468.2,200.0 468.2,201.0 468.0,201.2 467.2,202.0 467.2,203.0 467.2,204.0 467.2,205.0 467.0,205.2 466.2,206.0 467.0,206.8 467.2,207.0 467.2,208.0 467.2,209.0 467.0,209.2 466.2,210.0 466.2,211.0 466.2,212.0 466.2,213.0 466.0,213.2 465.2,214.0 466.0,214.8 466.2,215.0 466.2,216.0 467.0,216.8 467.2,217.0 467.0,217.2 466.2,218.0 467.0,218.8 467.2,219.0 467.0,219.2 466.2,220.0 466.2,221.0 466.2,222.0 466.2,223.0 466.0,223.2 465.2,224.0 465.0,224.2 464.2,225.0 464.2,226.0 465.0,226.8 465.2,227.0 465.2,228.0 465.0,228.2 464.2,229.0 464.2,230.0 464.0,230.2 463.2,231.0 464.0,231.8 465.0,231.8 465.2,232.0 465.0,232.2 464.2,233.0 464.2,234.0 464.0,234.2 463.2,235.0 463.2,236.0 464.0,236.8 464.2,237.0 464.2,238.0 464.2,239.0 464.2,240.0 464.2,241.0 464.2,242.0 464.0,242.2 463.2,243.0 463.2,244.0 463.2,245.0 463.2,246.0 463.2,247.0 463.0,247.2 462.2,248.0 462.2,249.0 462.2,250.0 462.0,250.2 461.2,251.0 462.0,251.8 462.2,252.0 462.0,252.2 461.2,253.0 461.2,254.0 461.2,255.0 461.2,256.0 461.0,256.2 460.2,257.0 461.0,257.8 461.2,258.0 461.0,258.2 460.2,259.0 460.2,260.0 460.2,261.0 461.0,261.8 461.2,262.0 461.0,262.2 460.2,263.0 461.0,263.8 461.2,264.0 461.0,264.2 460.2,265.0 460.2,266.0 461.0,266.8 461.2,267.0 461.0,267.2 460.2,268.0 460.0,268.2 459.2,269.0 460.0,269.8 460.2,270.0 460.0,270.2 459.2,271.0 459.0,271.2 458.2,272.0 458.0,272.2 457.2,273.0 458.0,273.8 458.2,274.0 458.0,274.2 457.2,275.0 457.0,275.2 456.2,276.0 457.0,276.8 457.2,277.0 457.2,278.0 457.2,279.0 458.0,279.8 458.2,280.0 458.0,280.2 457.2,281.0 458.0,281.8 458.2,282.0 458.0,282.2 457.2,283.0 457.2,284.0 457.2,285.0 457.2,286.0 457.2,287.0 458.0,287.8 458.2,288.0 458.0,288.2 457.2,289.0 457.2,290.0 457.2,291.0 457.0,291.2 456.2,292.0 456.2,293.0 456.2,294.0 456.2,295.0 456.2,296.0 456.2,297.0 456.0,297.2 455.2,298.0 455.2,299.0 455.2,300.0 455.2,301.0 455.2,302.0 455.2,303.0 455.2,304.0 455.0,304.2 454.2,305.0 454.2,306.0 454.0,306.2 453.2,307.0 453.2,308.0 453.2,309.0 453.2,310.0 453.2,311.0 454.0,311.8 454.2,312.0 454.0,312.2 453.2,313.0 453.2,314.0 453.2,315.0 453.2,316.0 453.0,316.2 452.2,317.0 452.2,318.0 452.2,319.0 453.0,319.8 453.2,320.0 453.0,320.2 452.0,320.2 451.2,321.0 452.0,321.8 453.0,321.8 453.2,322.0 453.0,322.2 452.2,323.0 452.0,323.2 451.2,324.0 451.2,325.0 451.2,326.0 451.2,327.0 452.0,327.8 452.2,328.0 452.0,328.2 451.2,329.0 452.0,329.8 452.2,330.0 452.0,330.2 451.2,331.0 451.0,331.2 450.2,332.0 451.0,332.8 451.2,333.0 451.0,333.2 450.2,334.0 451.0,334.8 451.2,335.0 451.0,335.2 450.2,336.0 450.0,336.2 449.2,337.0 449.2,338.0 449.2,339.0 450.0,339.8 450.2,340.0 450.2,341.0 450.0,341.2 449.2,342.0 449.2,343.0 449.0,343.2 448.2,344.0 448.2,345.0 448.2,346.0 448.2,347.0 448.0,347.2 447.8,347.0 447.0,346.2 446.2,347.0 447.0,347.8 447.2,348.0 447.0,348.2 446.2,349.0 446.2,350.0 447.0,350.8 447.2,351.0 447.2,352.0 447.0,352.2 446.2,353.0 446.2,354.0 446.0,354.2 445.2,355.0 446.0,355.8 446.2,356.0 446.0,356.2 445.2,357.0 445.0,357.2 444.2,358.0 445.0,358.8 445.2,359.0 446.0,359.8 446.2,360.0 446.2,361.0 446.0,361.2 445.2,362.0 445.2,363.0 445.2,364.0 445.0,364.2 444.2,365.0 445.0,365.8 445.2,366.0 445.0,366.2 444.2,367.0 444.0,367.2 443.2,368.0 443.2,369.0 443.2,370.0 443.0,370.2 442.2,371.0 442.2,372.0 442.0,372.2 441.2,373.0 441.2,374.0 441.2,375.0 441.2,376.0 442.0,376.8 442.2,377.0 442.0,377.2 441.0,377.2 440.2,378.0 441.0,378.8 441.2,379.0 441.0,379.2 440.2,380.0 440.2,381.0 440.2,382.0 440.2,383.0 440.2,384.0 440.0,384.2 439.2,385.0 439.2,386.0 439.2,387.0 439.2,388.0 439.0,388.2 438.2,389.0 438.2,390.0 438.2,391.0 439.0,391.8 439.2,392.0 439.0,392.2 438.2,393.0 438.2,394.0 438.0,394.2 437.2,395.0 438.0,395.8 438.2,396.0 438.2,397.0 438.0,397.2 437.2,398.0 438.0,398.8 438.2,399.0 438.0,399.2 437.0,399.2 436.0,399.2 435.2,400.0 435.2,401.0 435.2,402.0 435.2,403.0 435.0,403.2 434.2,404.0 435.0,404.8 435.2,405.0 435.0,405.2 434.2,406.0 434.2,407.0 435.0,407.8 435.2,408.0 435.2,409.0 435.0,409.2 434.2,410.0 434.2,411.0 434.2,412.0 434.2,413.0 434.0,413.2 433.2,414.0 433.2,415.0 433.2,416.0 433.2,417.0 433.2,418.0 433.0,418.2 432.2,419.0 433.0,419.8 433.2,420.0 433.2,421.0 433.0,421.2 432.2,422.0 432.2,423.0 432.0,423.2 431.0,423.2 430.2,424.0 431.0,424.8 431.2,425.0 431.2,426.0 431.0,426.2 430.0,426.2 429.2,427.0 430.0,427.8 430.2,428.0 430.0,428.2 429.2,429.0 429.2,430.0 430.0,430.8 430.2,431.0 431.0,431.8 431.2,432.0 431.2,433.0 431.0,433.2 430.2,434.0 430.2,435.0 430.2,436.0 430.2,437.0 430.2,438.0 430.2,439.0 431.0,439.8 431.2,440.0 431.0,440.2 430.2,441.0 430.2,442.0 430.0,442.2 429.2,443.0 430.0,443.8 430.2,444.0 430.0,444.2 429.2,445.0 429.2,446.0 429.0,446.2 428.2,447.0 428.0,447.2 427.2,448.0 428.0,448.8 428.2,449.0 428.0,449.2 427.2,450.0 427.2,451.0 427.2,452.0 427.2,453.0 427.2,454.0 427.2,455.0 428.0,455.8 428.2,456.0 428.0,456.2 427.2,457.0 427.2,458.0 427.2,459.0 427.2,460.0 427.2,461.0 427.0,461.2 426.2,462.0 427.0,462.8 427.2,463.0 427.0,463.2 426.2,464.0 426.2,465.0 426.2,466.0 426.0,466.2 425.2,467.0 425.2,468.0 425.2,469.0 425.2,470.0 425.2,471.0 425.0,471.2 424.2,472.0 424.2,473.0 424.2,474.0 424.0,474.2 423.2,475.0 423.2,476.0 423.2,477.0 424.0,477.8 424.2,478.0 424.2,479.0 424.2,480.0 424.0,480.2 423.2,481.0 424.0,481.8 424.2,482.0 424.0,482.2 423.2,483.0 423.2,484.0 423.0,484.2 422.2,485.0 423.0,485.8 424.0,485.8 424.2,486.0 424.0,486.2 423.2,487.0 423.2,488.0 423.2,489.0 423.2,490.0 423.0,490.2 422.2,491.0 423.0,491.8 423.2,492.0 423.0,492.2 422.2,493.0 422.2,494.0 422.2,495.0 422.2,496.0 422.0,496.2 421.2,497.0 421.2,498.0 421.0,498.2 420.2,499.0 421.0,499.8 421.2,500.0 421.2,501.0 421.0,501.2 420.2,502.0 421.0,502.8 421.2,503.0 421.0,503.2 420.2,504.0 421.0,504.8 421.2,505.0 421.2,506.0 421.0,506.2 420.2,507.0 421.0,507.8 421.2,508.0 421.0,508.2 420.2,509.0 420.2,510.0 420.2,511.0 421.0,511.8 422.0,511.8 423.0,511.8 423.2,512.0 423.0,512.2 422.0,512.2 421.2,513.0 422.0,513.8 422.2,514.0 422.0,514.2 421.0,514.2 420.2,515.0 421.0,515.8 422.0,515.8 422.2,516.0 422.0,516.2 421.2,517.0 421.0,517.2 420.2,518.0 420.2,519.0 420.0,519.2 419.2,520.0 419.2,521.0 419.2,522.0 419.2,523.0 419.2,524.0 419.0,524.2 418.2,525.0 418.2,526.0 419.0,526.8 419.2,527.0 419.2,528.0 420.0,528.8 420.2,529.0 420.0,529.2 419.2,530.0 419.2,531.0 419.2,532.0 419.2,533.0 419.2,534.0 419.2,535.0 419.0,535.2 418.2,536.0 418.2,537.0 418.2,538.0 418.2,539.0 418.2,540.0 418.2,541.0 418.0,541.2 417.0,541.2 416.2,542.0 417.0,542.8 418.0,542.8 418.2,543.0 418.2,544.0 418.0,544.2 417.2,545.0 417.2,546.0 417.2,547.0 417.0,547.2 416.2,548.0 417.0,548.8 417.2,549.0 417.0,549.2 416.2,550.0 416.2,551.0 417.0,551.8 418.0,551.8 418.2,552.0 418.0,552.2 417.2,553.0 417.2,554.0 417.2,555.0 417.2,556.0 417.0,556.2 416.2,557.0 416.2,558.0 416.0,558.2 415.2,559.0 416.0,559.8 416.2,560.0 416.2,561.0 416.2,562.0 416.0,562.2 415.2,563.0 415.2,564.0 415.2,565.0 415.2,566.0 415.2,567.0 415.2,568.0 415.2,569.0 415.2,570.0 415.2,571.0 415.2,572.0 415.0,572.2 414.2,573.0 414.0,573.2 413.2,574.0 414.0,574.8 414.2,575.0 414.0,575.2 413.2,576.0 413.2,577.0 413.2,578.0 413.2,579.0 413.0,579.2 412.2,580.0 412.2,581.0 412.0,581.2 411.2,582.0 411.2,583.0 411.2,584.0 412.0,584.8 412.2,585.0 412.0,585.2 411.0,585.2 410.2,586.0 411.0,586.8 411.2,587.0 411.2,588.0 411.2,589.0 411.0,589.2 410.2,590.0 410.0,590.2 409.2,591.0 409.2,592.0 410.0,592.8 410.2,593.0 410.2,594.0 410.0,594.2 409.2,595.0 409.2,596.0 409.2,597.0 409.0,597.2 408.2,598.0 408.2,599.0 408.2,600.0 408.2,601.0 408.2,602.0 408.0,602.2 407.2,603.0 407.0,603.2 406.2,604.0 406.2,605.0 407.0,605.8 407.2,606.0 407.0,606.2 406.2,607.0 407.0,607.8 407.2,608.0 407.2,609.0 408.0,609.8 408.2,610.0 408.0,610.2 407.0,610.2 406.2,611.0 407.0,611.8 407.2,612.0 407.0,612.2 406.2,613.0 406.0,613.2 405.2,614.0 405.2,615.0 405.0,615.2 404.2,616.0 404.2,617.0 404.2,618.0 404.2,619.0 404.0,619.2 403.2,620.0 403.2,621.0 403.0,621.2 402.2,622.0 403.0,622.8 403.2,623.0 403.0,623.2 402.2,624.0 402.2,625.0 402.0,625.2 401.2,626.0 401.2,627.0 401.2,628.0 401.0,628.2 400.0,628.2 399.2,629.0 400.0,629.8 400.2,630.0 400.2,631.0 400.2,632.0 400.2,633.0 400.2,634.0 400.0,634.2 399.2,635.0 399.2,636.0 399.0,636.2 398.2,637.0 398.2,638.0 398.0,638.2 397.0,638.2 396.2,639.0 397.0,639.8 398.0,639.8 398.2,640.0 398.2,641.0 398.0,641.2 397.2,642.0 397.2,643.0 397.0,643.2 396.2,644.0 397.0,644.8 397.2,645.0 397.0,645.2 396.2,646.0 396.2,647.0 396.0,647.2 395.0,647.2 394.2,648.0 394.2,649.0 394.2,650.0 394.0,650.2 393.2,651.0 393.2,652.0 393.2,653.0 393.0,653.2 392.2,654.0 393.0,654.8 393.2,655.0 394.0,655.8 395.0,655.8 395.2,656.0 395.2,657.0 395.0,657.2 394.2,658.0 394.2,659.0 394.0,659.2 393.2,660.0 393.0,660.2 392.2,661.0 392.2,662.0 392.2,663.0 392.2,664.0 392.2,665.0 392.0,665.2 391.2,666.0 391.2,667.0 391.0,667.2 390.2,668.0 390.0,668.2 389.2,669.0 389.2,670.0 389.2,671.0 389.0,671.2 388.0,671.2 387.2,672.0 388.0,672.8 388.2,673.0 388.0,673.2 387.0,673.2 386.2,674.0 386.2,675.0 386.0,675.2 385.2,676.0 385.2,677.0 385.2,678.0 385.2,679.0 386.0,679.8 386.2,680.0 386.2,681.0 386.0,681.2 385.2,682.0 385.2,683.0 385.2,684.0 385.2,685.0 385.0,685.2 384.2,686.0 384.2,687.0 384.0,687.2 383.2,688.0 383.2,689.0 383.2,690.0 383.2,691.0 383.0,691.2 382.2,692.0 382.0,692.2 381.2,693.0 382.0,693.8 382.2,694.0 382.0,694.2 381.2,695.0 381.0,695.2 380.0,695.2 379.2,696.0 379.2,697.0 379.2,698.0 379.2,699.0 379.0,699.2 378.2,700.0 379.0,700.8 379.2,701.0 379.0,701.2 378.2,702.0 378.0,702.2 377.2,703.0 378.0,703.8 379.0,703.8 379.2,704.0 379.2,705.0 379.2,706.0 379.0,706.2 378.2,707.0 378.2,708.0 378.0,708.2 377.2,709.0 377.2,710.0 377.2,711.0 377.2,712.0 377.0,712.2 376.0,712.2 375.2,713.0 375.2,714.0 375.2,715.0 375.2,716.0 375.2,717.0 375.0,717.2 374.2,718.0 374.2,719.0 375.0,719.8 375.2,720.0 375.0,720.2 374.2,721.0 374.2,722.0 374.2,723.0 374.2,724.0 374.0,724.2 373.2,725.0 373.2,726.0 373.2,727.0 373.2,728.0 374.0,728.8 374.2,729.0 374.0,729.2 373.2,730.0 373.0,730.2 372.2,731.0 372.2,732.0 372.2,733.0 372.2,734.0 372.2,735.0 372.0,735.2 371.0,735.2 370.2,736.0 370.2,737.0 370.2,738.0 370.2,739.0 370.2,740.0 370.0,740.2 369.2,741.0 369.2,742.0 369.2,743.0 369.2,744.0 369.2,745.0 369.2,746.0 369.2,747.0 369.0,747.2 368.8,747.0 368.0,746.2 367.2,747.0 368.0,747.8 368.2,748.0 368.2,749.0 368.2,750.0 369.0,750.8 369.2,751.0 370.0,751.8 370.2,752.0 370.0,752.2 369.2,753.0 369.2,754.0 369.2,755.0 370.0,755.8 370.2,756.0 370.0,756.2 369.0,756.2 368.2,757.0 368.2,758.0 369.0,758.8 369.2,759.0 369.2,760.0 369.0,760.2 368.2,761.0 369.0,761.8 369.2,762.0 369.0,762.2 368.0,762.2 367.2,763.0 367.2,764.0 367.2,765.0 367.0,765.2 366.2,766.0 367.0,766.8 367.2,767.0 367.2,768.0 367.2,769.0 368.0,769.8 368.2,770.0 368.0,770.2 367.0,770.2 366.2,771.0 366.2,772.0 366.2,773.0 366.0,773.2 365.2,774.0 366.0,774.8 366.2,775.0 367.0,775.8 367.2,776.0 367.2,777.0 367.0,777.2 366.2,778.0 366.0,778.2 365.2,779.0 366.0,779.8 366.2,780.0 366.0,780.2 365.2,781.0 365.2,782.0 365.2,783.0 365.0,783.2 364.2,784.0 364.2,785.0 364.2,786.0 364.2,787.0 364.0,787.2 363.2,788.0 363.2,789.0 363.0,789.2 362.2,790.0 363.0,790.8 363.2,791.0 363.0,791.2 362.2,792.0 363.0,792.8 363.2,793.0 363.0,793.2 362.2,794.0 363.0,794.8 363.2,795.0 363.0,795.2 362.2,796.0 362.0,796.2 361.2,797.0 361.0,797.2 360.2,798.0 361.0,798.8 361.2,799.0 361.2,800.0 361.0,800.2 360.2,801.0 361.0,801.8 361.2,802.0 361.0,802.2 360.2,803.0 360.0,803.2 359.2,804.0 360.0,804.8 360.2,805.0 360.2,806.0 360.0,806.2 359.0,806.2 358.2,807.0 358.2,808.0 358.0,808.2 357.2,809.0 357.2,810.0 357.2,811.0 357.2,812.0 357.0,812.2 356.2,813.0 357.0,813.8 357.2,814.0 357.0,814.2 356.2,815.0 356.0,815.2 355.2,816.0 355.2,817.0 355.0,817.2 354.2,818.0 354.2,819.0 354.2,820.0 354.0,820.2 353.2,821.0 353.2,822.0 353.2,823.0 354.0,823.8 355.0,823.8 355.2,824.0 355.0,824.2 354.2,825.0 354.2,826.0 354.0,826.2 353.0,826.2 352.2,827.0 353.0,827.8 353.2,828.0 353.2,829.0 353.0,829.2 352.2,830.0 353.0,830.8 353.2,831.0 353.0,831.2 352.2,832.0 352.0,832.2 351.2,833.0 351.2,834.0 351.2,835.0 351.0,835.2 350.2,836.0 350.2,837.0 350.0,837.2 349.2,838.0 350.0,838.8 350.2,839.0 351.0,839.8 351.2,840.0 351.0,840.2 350.2,841.0 350.0,841.2 349.2,842.0 349.2,843.0 349.2,844.0 349.2,845.0 349.2,846.0 349.0,846.2 348.2,847.0 349.0,847.8 349.2,848.0 349.2,849.0 349.2,850.0 349.0,850.2 348.2,851.0 348.2,852.0 349.0,852.8 349.2,853.0 349.0,853.2 348.2,854.0 348.2,855.0 348.0,855.2 347.2,856.0 347.2,857.0 347.2,858.0 347.2,859.0 347.2,860.0 347.2,861.0 347.0,861.2 346.2,862.0 346.2,863.0 346.2,864.0 346.0,864.2 345.2,865.0 345.2,866.0 345.0,866.2 344.2,867.0 344.0,867.2 343.2,868.0 344.0,868.8 344.2,869.0 344.2,870.0 344.2,871.0 345.0,871.8 346.0,871.8 346.2,872.0 346.2,873.0 346.0,873.2 345.2,874.0 346.0,874.8 346.2,875.0 346.0,875.2 345.2,876.0 345.2,877.0 345.0,877.2 344.2,878.0 344.2,879.0 344.0,879.2 343.2,880.0 344.0,880.8 344.2,881.0 344.0,881.2 343.2,882.0 343.2,883.0 343.0,883.2 342.2,884.0 342.2,885.0 342.0,885.2 341.2,886.0 342.0,886.8 342.2,887.0 342.2,888.0 342.2,889.0 342.0,889.2 341.2,890.0 341.2,891.0 341.0,891.2 340.2,892.0 340.0,892.2 339.2,893.0 340.0,893.8 340.8,893.0 341.0,892.8 341.2,893.0 341.2,894.0 341.0,894.2 340.0,894.2 339.2,895.0 340.0,895.8 341.0,895.8 342.0,895.8 343.0,895.8 343.2,896.0 343.0,896.2 342.2,897.0 342.2,898.0 342.2,899.0 342.0,899.2 341.2,900.0 341.2,901.0 341.2,902.0 341.2,903.0 341.2,904.0 341.0,904.2 340.2,905.0 340.2,906.0 340.0,906.2 339.2,907.0 339.2,908.0 340.0,908.8 340.2,909.0 340.0,909.2 339.2,910.0 339.2,911.0 339.2,912.0 339.2,913.0 339.0,913.2 338.2,914.0 338.2,915.0 338.2,916.0 338.2,917.0 338.0,917.2 337.2,918.0 337.2,919.0 338.0,919.8 339.0,919.8 339.2,920.0 339.2,921.0 340.0,921.8 340.2,922.0 340.0,922.2 339.0,922.2 338.2,923.0 338.2,924.0 339.0,924.8 339.2,925.0 339.0,925.2 338.0,925.2 337.2,926.0 337.2,927.0 337.2,928.0 337.2,929.0 337.0,929.2 336.2,930.0 336.2,931.0 336.0,931.2 335.2,932.0 336.0,932.8 336.2,933.0 336.0,933.2 335.2,934.0 335.2,935.0 335.2,936.0 335.0,936.2 334.2,937.0 334.0,937.2 333.2,938.0 333.2,939.0 333.2,940.0 333.0,940.2 332.2,941.0 332.2,942.0 332.2,943.0 333.0,943.8 334.0,943.8 335.0,943.8 335.2,944.0 335.2,945.0 335.0,945.2 334.2,946.0 334.2,947.0 334.2,948.0 334.2,949.0 334.0,949.2 333.2,950.0 333.0,950.2 332.0,950.2 331.2,951.0 332.0,951.8 333.0,951.8 333.2,952.0 333.0,952.2 332.2,953.0 333.0,953.8 333.2,954.0 333.2,955.0 333.0,955.2 332.0,955.2 331.2,956.0 332.0,956.8 332.2,957.0 332.0,957.2 331.2,958.0 331.2,959.0 331.0,959.2 330.0,959.2 329.2,960.0 329.2,961.0 329.2,962.0 329.2,963.0 329.0,963.2 328.2,964.0 328.2,965.0 328.2,966.0 328.2,967.0 329.0,967.8 330.0,967.8 330.2,968.0 331.0,968.8 331.2,969.0 331.0,969.2 330.0,969.2 329.2,970.0 329.2,971.0 329.2,972.0 329.2,973.0 329.2,974.0 329.2,975.0 329.0,975.2 328.2,976.0 328.0,976.2 327.2,977.0 327.2,978.0 327.2,979.0 327.2,980.0 327.0,980.2 326.2,981.0 326.2,982.0 326.2,983.0 326.0,983.2 325.0,983.2 324.2,984.0 324.2,985.0 324.2,986.0 324.2,987.0 324.0,987.2 323.2,988.0 323.0,988.2 322.2,989.0 323.0,989.8 323.2,990.0 323.2,991.0 324.0,991.8 325.0,991.8 325.2,992.0 325.2,993.0 325.0,993.2 324.2,994.0 324.2,995.0 324.2,996.0 324.2,997.0 324.0,997.2 323.2,998.0 323.2,999.0 323.0,999.2 322.2,1000.0 322.2,1001.0 322.2,1002.0 322.2,1003.0 322.2,1004.0 322.0,1004.2 321.2,1005.0 321.2,1006.0 321.2,1007.0 321.0,1007.2 320.2,1008.0 320.0,1008.2 319.2,1009.0 319.2,1010.0 319.2,1011.0 319.0,1011.2 318.2,1012.0 318.2,1013.0 318.2,1014.0 318.0,1014.2 317.2,1015.0 318.0,1015.8 319.0,1015.8 320.0,1015.8 320.2,1016.0 320.2,1017.0 320.2,1018.0 320.0,1018.2 319.2,1019.0 319.2,1020.0 319.2,1021.0 319.0,1021.2 318.2,1022.0 319.0,1022.8 319.2,1023.0 319.0,1023.2 318.0,1023.2 317.0,1023.2 316.2,1024.0 316.2,1025.0 316.2,1026.0 316.2,1027.0 316.0,1027.2 315.2,1028.0 315.2,1029.0 315.2,1030.0 315.0,1030.2 314.2,1031.0 314.2,1032.0 314.0,1032.2 313.2,1033.0 313.2,1034.0 313.2,1035.0 313.2,1036.0 313.0,1036.2 312.2,1037.0 312.2,1038.0 312.0,1038.2 311.2,1039.0 312.0,1039.8 313.0,1039.8 314.0,1039.8 314.2,1040.0 314.0,1040.2 313.2,1041.0 313.2,1042.0 313.2,1043.0 313.0,1043.2 312.0,1043.2 311.2,1044.0 312.0,1044.8 312.2,1045.0 312.2,1046.0 312.0,1046.2 311.2,1047.0 312.0,1047.8 312.2,1048.0 312.2,1049.0 312.0,1049.2 311.2,1050.0 311.2,1051.0 311.0,1051.2 310.2,1052.0 310.2,1053.0 310.0,1053.2 309.2,1054.0 310.0,1054.8 310.2,1055.0 310.0,1055.2 309.0,1055.2 308.2,1056.0 308.0,1056.2 307.2,1057.0 307.2,1058.0 307.2,1059.0 307.2,1060.0 307.2,1061.0 307.0,1061.2 306.2,1062.0 306.0,1062.2 305.2,1063.0 306.0,1063.8 307.0,1063.8 308.0,1063.8 308.2,1064.0 308.2,1065.0 308.2,1066.0 308.2,1067.0 308.0,1067.2 307.2,1068.0 307.2,1069.0 307.2,1070.0 307.2,1071.0 307.0,1071.2 306.2,1072.0 306.0,1072.2 305.2,1073.0 306.0,1073.8 306.2,1074.0 306.2,1075.0 306.0,1075.2 305.2,1076.0 305.2,1077.0 305.2,1078.0 305.2,1079.0 305.0,1079.2 304.2,1080.0 304.2,1081.0 304.2,1082.0 304.0,1082.2 303.2,1083.0 303.2,1084.0 303.2,1085.0 303.2,1086.0 303.2,1087.0 304.0,1087.8 305.0,1087.8 306.0,1087.8 306.2,1088.0 306.0,1088.2 305.2,1089.0 306.0,1089.8 306.2,1090.0 306.0,1090.2 305.2,1091.0 305.2,1092.0 305.2,1093.0 305.2,1094.0 305.2,1095.0 305.0,1095.2 304.2,1096.0 304.0,1096.2 303.2,1097.0 304.0,1097.8 304.2,1098.0 304.0,1098.2 303.2,1099.0 303.2,1100.0 303.2,1101.0 304.0,1101.8 304.2,1102.0 304.0,1102.2 303.2,1103.0 303.2,1104.0 303.2,1105.0 303.2,1106.0 303.2,1107.0 303.2,1108.0 303.2,1109.0 303.0,1109.2 302.2,1110.0 303.0,1110.8 303.2,1111.0 304.0,1111.8 305.0,1111.8 305.2,1112.0 305.2,1113.0 305.0,1113.2 304.2,1114.0 304.2,1115.0 304.0,1115.2 303.2,1116.0 304.0,1116.8 304.2,1117.0 304.2,1118.0 304.0,1118.2 303.2,1119.0 303.2,1120.0 303.2,1121.0 303.2,1122.0 303.0,1122.2 302.2,1123.0 303.0,1123.8 303.2,1124.0 303.0,1124.2 302.2,1125.0 302.2,1126.0 302.2,1127.0 302.2,1128.0 302.0,1128.2 301.2,1129.0 301.2,1130.0 301.2,1131.0 301.2,1132.0 301.2,1133.0 301.2,1134.0 301.2,1135.0 302.0,1135.8 303.0,1135.8 303.2,1136.0 304.0,1136.8 304.2,1137.0 304.0,1137.2 303.2,1138.0 303.2,1139.0 303.2,1140.0 304.0,1140.8 304.2,1141.0 304.0,1141.2 303.0,1141.2 302.2,1142.0 303.0,1142.8 303.2,1143.0 303.0,1143.2 302.2,1144.0 302.2,1145.0 303.0,1145.8 303.2,1146.0 303.2,1147.0 303.0,1147.2 302.2,1148.0 302.2,1149.0 303.0,1149.8 303.2,1150.0 303.2,1151.0 303.0,1151.2 302.0,1151.2 301.0,1151.2 300.2,1152.0 300.2,1153.0 300.2,1154.0 300.2,1155.0 300.2,1156.0 300.2,1157.0 300.2,1158.0 300.2,1159.0 301.0,1159.8 302.0,1159.8 303.0,1159.8 303.2,1160.0 303.2,1161.0 303.2,1162.0 303.2,1163.0 303.2,1164.0 303.2,1165.0 303.2,1166.0 303.2,1167.0 303.0,1167.2 302.0,1167.2 301.2,1168.0 301.2,1169.0 301.2,1170.0 301.2,1171.0 301.2,1172.0 301.2,1173.0 301.2,1174.0 301.2,1175.0 301.0,1175.2 300.0,1175.2 299.2,1176.0 299.2,1177.0 299.2,1178.0 299.2,1179.0 299.2,1180.0 300.0,1180.8 300.2,1181.0 300.2,1182.0 300.2,1183.0 301.0,1183.8 302.0,1183.8 303.0,1183.8 303.2,1184.0 303.0,1184.2 302.2,1185.0 302.2,1186.0 302.0,1186.2 301.2,1187.0 302.0,1187.8 302.2,1188.0 302.2,1189.0 302.0,1189.2 301.2,1190.0 302.0,1190.8 302.2,1191.0 302.2,1192.0 302.2,1193.0 302.2,1194.0 302.2,1195.0 302.2,1196.0 302.0,1196.2 301.2,1197.0 302.0,1197.8 302.2,1198.0 302.2,1199.0 302.0,1199.2 301.2,1200.0 301.2,1201.0 301.2,1202.0 301.2,1203.0 302.0,1203.8 302.2,1204.0 302.0,1204.2 301.2,1205.0 301.2,1206.0 302.0,1206.8 302.2,1207.0 303.0,1207.8 303.2,1208.0 303.2,1209.0 304.0,1209.8 304.2,1210.0 304.0,1210.2 303.2,1211.0 303.2,1212.0 303.2,1213.0 303.2,1214.0 303.2,1215.0 303.2,1216.0 303.0,1216.2 302.2,1217.0 303.0,1217.8 303.2,1218.0 303.2,1219.0 303.0,1219.2 302.2,1220.0 303.0,1220.8 303.2,1221.0 303.2,1222.0 303.2,1223.0 303.2,1224.0 303.2,1225.0 303.2,1226.0 303.2,1227.0 303.2,1228.0 303.2,1229.0 303.2,1230.0 303.2,1231.0 304.0,1231.8 305.0,1231.8 306.0,1231.8 306.2,1232.0 306.0,1232.2 305.2,1233.0 305.2,1234.0 305.2,1235.0 306.0,1235.8 306.2,1236.0 307.0,1236.8 307.2,1237.0 307.0,1237.2 306.2,1238.0 307.0,1238.8 307.2,1239.0 307.0,1239.2 306.0,1239.2 305.0,1239.2 304.2,1240.0 304.2,1241.0 305.0,1241.8 305.2,1242.0 305.2,1243.0 305.0,1243.2 304.2,1244.0 305.0,1244.8 305.2,1245.0 305.2,1246.0 305.2,1247.0 306.0,1247.8 306.2,1248.0 306.2,1249.0 306.2,1250.0 306.2,1251.0 307.0,1251.8 307.2,1252.0 307.2,1253.0 307.2,1254.0 307.2,1255.0 308.0,1255.8 308.2,1256.0 309.0,1256.8 309.2,1257.0 309.2,1258.0 309.2,1259.0 309.0,1259.2 308.2,1260.0 309.0,1260.8 309.2,1261.0 309.2,1262.0 310.0,1262.8 310.2,1263.0 310.0,1263.2 309.0,1263.2 308.0,1263.2 307.2,1264.0 307.2,1265.0 307.0,1265.2 306.2,1266.0 307.0,1266.8 308.0,1266.8 308.2,1267.0 308.2,1268.0 308.2,1269.0 308.2,1270.0 308.2,1271.0 309.0,1271.8 309.2,1272.0 310.0,1272.8 310.2,1273.0 310.2,1274.0 310.2,1275.0 311.0,1275.8 311.2,1276.0 311.2,1277.0 311.2,1278.0 311.2,1279.0 312.0,1279.8 312.2,1280.0 312.2,1281.0 312.2,1282.0 313.0,1282.8 313.2,1283.0 313.2,1284.0 313.2,1285.0 313.2,1286.0 313.2,1287.0 313.0,1287.2 312.2,1288.0 312.2,1289.0 312.2,1290.0 312.2,1291.0 312.0,1291.2 311.2,1292.0 312.0,1292.8 313.0,1292.8 313.2,1293.0 313.0,1293.2 312.2,1294.0 313.0,1294.8 313.2,1295.0 314.0,1295.8 314.2,1296.0 314.2,1297.0 314.2,1298.0 315.0,1298.8 315.2,1299.0 315.2,1300.0 315.2,1301.0 315.2,1302.0 316.0,1302.8 316.2,1303.0 316.2,1304.0 317.0,1304.8 317.2,1305.0 317.2,1306.0 317.2,1307.0 318.0,1307.8 318.2,1308.0 318.0,1308.2 317.2,1309.0 317.2,1310.0 318.0,1310.8 319.0,1310.8 319.2,1311.0 319.2,1312.0 319.0,1312.2 318.2,1313.0 318.2,1314.0 319.0,1314.8 319.2,1315.0 319.2,1316.0 319.2,1317.0 319.2,1318.0 320.0,1318.8 320.2,1319.0 321.0,1319.8 321.2,1320.0 321.2,1321.0 322.0,1321.8 322.2,1322.0 322.2,1323.0 322.2,1324.0 323.0,1324.8 323.2,1325.0 323.2,1326.0 324.0,1326.8 324.2,1327.0 324.2,1328.0 325.0,1328.8 325.2,1329.0 325.2,1330.0 325.2,1331.0 326.0,1331.8 326.2,1332.0 326.2,1333.0 326.2,1334.0 327.0,1334.8 327.2,1335.0 327.0,1335.2 326.2,1336.0 327.0,1336.8 327.2,1337.0 327.0,1337.2 326.2,1338.0 327.0,1338.8 327.2,1339.0 327.2,1340.0 327.2,1341.0 327.2,1342.0 327.2,1343.0 328.0,1343.8 329.0,1343.8 329.2,1344.0 329.2,1345.0 329.2,1346.0 329.2,1347.0 330.0,1347.8 330.2,1348.0 330.2,1349.0 331.0,1349.8 331.2,1350.0 331.2,1351.0 331.2,1352.0 331.2,1353.0 332.0,1353.8 332.2,1354.0 332.2,1355.0 332.2,1356.0 333.0,1356.8 333.2,1357.0 333.2,1358.0 334.0,1358.8 334.2,1359.0 334.0,1359.2 333.2,1360.0 333.2,1361.0 334.0,1361.8 335.0,1361.8 335.2,1362.0 335.2,1363.0 335.2,1364.0 335.2,1365.0 335.2,1366.0 336.0,1366.8 337.0,1366.8 337.2,1367.0 337.2,1368.0 337.2,1369.0 338.0,1369.8 338.2,1370.0 338.2,1371.0 339.0,1371.8 339.2,1372.0 339.2,1373.0 340.0,1373.8 340.2,1374.0 341.0,1374.8 341.2,1375.0 341.0,1375.2 340.0,1375.2 339.2,1376.0 339.0,1376.2 338.2,1377.0 339.0,1377.8 340.0,1377.8 340.2,1378.0 340.2,1379.0 340.2,1380.0 341.0,1380.8 341.2,1381.0 341.2,1382.0 342.0,1382.8 343.0,1382.8 343.2,1383.0 343.2,1384.0 343.2,1385.0 344.0,1385.8 344.2,1386.0 344.2,1387.0 344.2,1388.0 345.0,1388.8 345.2,1389.0 346.0,1389.8 346.2,1390.0 347.0,1390.8 347.2,1391.0 347.2,1392.0 348.0,1392.8 349.0,1392.8 349.2,1393.0 349.0,1393.2 348.2,1394.0 349.0,1394.8 349.2,1395.0 350.0,1395.8 350.2,1396.0 350.2,1397.0 351.0,1397.8 351.2,1398.0 352.0,1398.8 352.2,1399.0 352.0,1399.2 351.0,1399.2 350.2,1400.0 350.2,1401.0 351.0,1401.8 351.2,1402.0 351.2,1403.0 352.0,1403.8 352.2,1404.0 353.0,1404.8 353.2,1405.0 354.0,1405.8 354.2,1406.0 354.2,1407.0 355.0,1407.8 355.2,1408.0 356.0,1408.8 357.0,1408.8 357.2,1409.0 357.2,1410.0 357.2,1411.0 358.0,1411.8 359.0,1411.8 359.2,1412.0 360.0,1412.8 360.2,1413.0 361.0,1413.8 361.2,1414.0 362.0,1414.8 362.2,1415.0 362.2,1416.0 363.0,1416.8 363.2,1417.0 364.0,1417.8 364.2,1418.0 364.0,1418.2 363.2,1419.0 364.0,1419.8 365.0,1419.8 365.2,1420.0 366.0,1420.8 366.2,1421.0 367.0,1421.8 367.2,1422.0 367.2,1423.0 367.0,1423.2 366.0,1423.2 365.2,1424.0 365.2,1425.0 366.0,1425.8 366.2,1426.0 367.0,1426.8 367.2,1427.0 367.2,1428.0 368.0,1428.8 369.0,1428.8 369.2,1429.0 369.2,1430.0 370.0,1430.8 370.2,1431.0 371.0,1431.8 372.0,1431.8 372.2,1432.0 373.0,1432.8 373.2,1433.0 374.0,1433.8 375.0,1433.8 376.0,1433.8 376.2,1434.0 376.0,1434.2 375.2,1435.0 376.0,1435.8 377.0,1435.8 377.2,1436.0 378.0,1436.8 378.2,1437.0 378.2,1438.0 379.0,1438.8 379.2,1439.0 379.2,1440.0 380.0,1440.8 381.0,1440.8 381.2,1441.0 381.2,1442.0 382.0,1442.8 383.0,1442.8 383.2,1443.0 383.2,1444.0 384.0,1444.8 385.0,1444.8 385.2,1445.0 385.2,1446.0 386.0,1446.8 387.0,1446.8 387.2,1447.0 387.0,1447.2 386.0,1447.2 385.2,1448.0 386.0,1448.8 386.2,1449.0 387.0,1449.8 387.2,1450.0 387.0,1450.2 386.2,1451.0 387.0,1451.8 387.8,1451.0 388.0,1450.8 388.2,1451.0 388.2,1452.0 389.0,1452.8 389.2,1453.0 390.0,1453.8 390.2,1454.0 391.0,1454.8 391.2,1455.0 391.2,1456.0 391.2,1457.0 392.0,1457.8 392.2,1458.0 392.2,1459.0 393.0,1459.8 394.0,1459.8 394.2,1460.0 395.0,1460.8 395.2,1461.0 395.2,1462.0 396.0,1462.8 396.2,1463.0 396.0,1463.2 395.2,1464.0 396.0,1464.8 396.8,1464.0 397.0,1463.8 397.2,1464.0 398.0,1464.8 398.2,1465.0 399.0,1465.8 400.0,1465.8 400.2,1466.0 400.2,1467.0 401.0,1467.8 401.2,1468.0 402.0,1468.8 402.2,1469.0 403.0,1469.8 403.2,1470.0 404.0,1470.8 404.2,1471.0 404.0,1471.2 403.0,1471.2 402.2,1472.0 402.2,1473.0 403.0,1473.8 404.0,1473.8 405.0,1473.8 405.2,1474.0 405.2,1475.0 406.0,1475.8 406.2,1476.0 407.0,1476.8 408.0,1476.8 408.2,1477.0 409.0,1477.8 409.2,1478.0 410.0,1478.8 410.2,1479.0 411.0,1479.8 411.2,1480.0 411.0,1480.2 410.2,1481.0 411.0,1481.8 411.8,1481.0 412.0,1480.8 412.2,1481.0 413.0,1481.8 413.2,1482.0 413.2,1483.0 414.0,1483.8 415.0,1483.8 415.2,1484.0 415.2,1485.0 416.0,1485.8 416.2,1486.0 417.0,1486.8 417.2,1487.0 418.0,1487.8 419.0,1487.8 419.2,1488.0 419.2,1489.0 420.0,1489.8 420.8,1489.0 421.0,1488.8 421.2,1489.0 421.2,1490.0 422.0,1490.8 422.2,1491.0 422.2,1492.0 423.0,1492.8 424.0,1492.8 424.2,1493.0 425.0,1493.8 425.2,1494.0 426.0,1494.8 427.0,1494.8 427.2,1495.0 427.0,1495.2 426.0,1495.2 425.0,1495.2 424.2,1496.0 425.0,1496.8 425.2,1497.0 425.0,1497.2 424.2,1498.0 425.0,1498.8 425.2,1499.0 426.0,1499.8 427.0,1499.8 427.2,1500.0 427.2,1501.0 427.2,1502.0 428.0,1502.8 428.8,1502.0 429.0,1501.8 429.2,1502.0 429.2,1503.0 429.0,1503.2 428.2,1504.0 429.0,1504.8 430.0,1504.8 430.2,1505.0 431.0,1505.8 431.2,1506.0 431.2,1507.0 431.2,1508.0 432.0,1508.8 432.2,1509.0 432.2,1510.0 433.0,1510.8 434.0,1510.8 434.2,1511.0 435.0,1511.8 435.2,1512.0 436.0,1512.8 437.0,1512.8 437.2,1513.0 437.2,1514.0 437.2,1515.0 438.0,1515.8 438.8,1515.0 439.0,1514.8 439.2,1515.0 439.2,1516.0 439.2,1517.0 440.0,1517.8 440.2,1518.0 441.0,1518.8 441.2,1519.0 441.0,1519.2 440.0,1519.2 439.0,1519.2 438.0,1519.2 437.0,1519.2 436.2,1520.0 437.0,1520.8 438.0,1520.8 438.2,1521.0 438.0,1521.2 437.2,1522.0 437.2,1523.0 438.0,1523.8 439.0,1523.8 439.2,1524.0 439.2,1525.0 439.2,1526.0 439.2,1527.0 440.0,1527.8 440.2,1528.0 441.0,1528.8 442.0,1528.8 442.2,1529.0 442.2,1530.0 442.2,1531.0 443.0,1531.8 443.2,1532.0 443.2,1533.0 443.2,1534.0 443.2,1535.0" stroke="white" stroke-width="1" /><polyline fill="none" points="586.8,1535.0 587.0,1534.8 587.8,1534.0 587.8,1533.0 588.0,1532.8 588.8,1532.0 588.8,1531.0 588.0,1530.2 587.8,1530.0 588.0,1529.8 588.8,1529.0 588.8,1528.0 588.8,1527.0 588.0,1526.2 587.8,1526.0 588.0,1525.8 588.8,1525.0 588.8,1524.0 588.8,1523.0 589.0,1522.8 589.2,1523.0 590.0,1523.8 590.8,1523.0 590.0,1522.2 589.8,1522.0 589.0,1521.2 588.8,1521.0 589.0,1520.8 589.8,1520.0 589.8,1519.0 590.0,1518.8 590.8,1518.0 590.8,1517.0 590.8,1516.0 590.8,1515.0 591.0,1514.8 591.8,1514.0 591.8,1513.0 591.0,1512.2 590.8,1512.0 591.0,1511.8 592.0,1511.8 592.8,1511.0 593.0,1510.8 593.8,1510.0 594.0,1509.8 594.8,1509.0 594.0,1508.2 593.8,1508.0 593.8,1507.0 593.8,1506.0 594.0,1505.8 594.8,1505.0 594.8,1504.0 594.8,1503.0 595.0,1502.8 595.8,1502.0 595.0,1501.2 594.8,1501.0 595.0,1500.8 595.8,1500.0 595.8,1499.0 595.8,1498.0 596.0,1497.8 596.8,1497.0 596.8,1496.0 597.0,1495.8 597.8,1495.0 597.8,1494.0 598.0,1493.8 598.8,1493.0 599.0,1492.8 599.8,1492.0 599.0,1491.2 598.8,1491.0 599.0,1490.8 599.8,1490.0 599.8,1489.0 599.0,1488.2 598.8,1488.0 599.0,1487.8 599.8,1487.0 600.0,1486.8 600.8,1486.0 600.8,1485.0 600.8,1484.0 600.8,1483.0 601.0,1482.8 601.8,1482.0 601.8,1481.0 601.8,1480.0 601.0,1479.2 600.8,1479.0 601.0,1478.8 601.8,1478.0 601.8,1477.0 602.0,1476.8 602.8,1476.0 602.8,1475.0 602.8,1474.0 602.8,1473.0 603.0,1472.8 603.8,1472.0 603.8,1471.0 604.0,1470.8 604.8,1470.0 604.8,1469.0 604.8,1468.0 604.0,1467.2 603.8,1467.0 604.0,1466.8 604.8,1466.0 604.8,1465.0 604.8,1464.0 605.0,1463.8 605.8,1463.0 605.8,1462.0 605.0,1461.2 604.8,1461.0 605.0,1460.8 605.8,1460.0 605.8,1459.0 605.8,1458.0 605.8,1457.0 605.8,1456.0 605.0,1455.2 604.8,1455.0 604.8,1454.0 604.8,1453.0 604.8,1452.0 604.0,1451.2 603.8,1451.0 603.8,1450.0 603.8,1449.0 603.8,1448.0 603.0,1447.2 602.8,1447.0 602.8,1446.0 602.8,1445.0 602.0,1444.2 601.8,1444.0 601.0,1443.2 600.8,1443.0 600.8,1442.0 600.8,1441.0 600.0,1440.2 599.8,1440.0 599.0,1439.2 598.0,1439.2 597.8,1439.0 597.8,1438.0 597.0,1437.2 596.8,1437.0 596.8,1436.0 596.0,1435.2 595.8,1435.0 595.0,1434.2 594.8,1434.0 594.8,1433.0 594.0,1432.2 593.8,1432.0 593.0,1431.2 592.8,1431.0 592.0,1430.2 591.0,1430.2 590.8,1430.0 590.8,1429.0 590.0,1428.2 589.8,1428.0 589.8,1427.0 589.0,1426.2 588.8,1426.0 588.0,1425.2 587.8,1425.0 587.0,1424.2 586.8,1424.0 587.0,1423.8 588.0,1423.8 589.0,1423.8 589.8,1423.0 589.0,1422.2 588.0,1422.2 587.8,1422.0 587.8,1421.0 587.8,1420.0 587.8,1419.0 587.0,1418.2 586.0,1418.2 585.8,1418.0 585.8,1417.0 585.0,1416.2 584.8,1416.0 584.0,1415.2 583.8,1415.0 583.0,1414.2 582.8,1414.0 582.8,1413.0 582.0,1412.2 581.8,1412.0 582.0,1411.8 582.8,1411.0 582.0,1410.2 581.0,1410.2 580.8,1410.0 580.0,1409.2 579.8,1409.0 579.8,1408.0 579.0,1407.2 578.0,1407.2 577.8,1407.0 577.0,1406.2 576.8,1406.0 576.0,1405.2 575.2,1406.0 575.0,1406.2 574.8,1406.0 574.8,1405.0 574.0,1404.2 573.8,1404.0 574.0,1403.8 574.8,1403.0 574.0,1402.2 573.0,1402.2 572.8,1402.0 572.0,1401.2 571.8,1401.0 571.8,1400.0 572.0,1399.8 573.0,1399.8 574.0,1399.8 574.8,1399.0 574.8,1398.0 574.8,1397.0 574.0,1396.2 573.2,1397.0 573.0,1397.2 572.8,1397.0 572.0,1396.2 571.8,1396.0 572.0,1395.8 572.8,1395.0 572.0,1394.2 571.8,1394.0 571.0,1393.2 570.8,1393.0 570.0,1392.2 569.8,1392.0 569.8,1391.0 569.8,1390.0 569.0,1389.2 568.8,1389.0 568.8,1388.0 568.0,1387.2 567.0,1387.2 566.8,1387.0 566.0,1386.2 565.8,1386.0 565.0,1385.2 564.8,1385.0 564.0,1384.2 563.8,1384.0 563.0,1383.2 562.8,1383.0 562.0,1382.2 561.8,1382.0 561.8,1381.0 561.8,1380.0 561.0,1379.2 560.8,1379.0 560.0,1378.2 559.8,1378.0 559.8,1377.0 559.8,1376.0 560.0,1375.8 561.0,1375.8 561.8,1375.0 561.8,1374.0 561.0,1373.2 560.8,1373.0 560.0,1372.2 559.8,1372.0 559.8,1371.0 559.8,1370.0 559.8,1369.0 559.0,1368.2 558.8,1368.0 558.0,1367.2 557.8,1367.0 558.0,1366.8 558.8,1366.0 558.0,1365.2 557.8,1365.0 557.8,1364.0 558.0,1363.8 558.8,1363.0 558.0,1362.2 557.0,1362.2 556.8,1362.0 556.0,1361.2 555.8,1361.0 556.0,1360.8 556.8,1360.0 556.0,1359.2 555.0,1359.2 554.8,1359.0 554.0,1358.2 553.8,1358.0 553.8,1357.0 553.0,1356.2 552.8,1356.0 552.8,1355.0 552.8,1354.0 552.8,1353.0 552.0,1352.2 551.8,1352.0 552.0,1351.8 553.0,1351.8 554.0,1351.8 554.8,1351.0 554.8,1350.0 554.0,1349.2 553.8,1349.0 553.8,1348.0 553.0,1347.2 552.8,1347.0 552.8,1346.0 552.0,1345.2 551.8,1345.0 551.0,1344.2 550.8,1344.0 550.8,1343.0 550.8,1342.0 550.8,1341.0 550.0,1340.2 549.8,1340.0 549.8,1339.0 549.0,1338.2 548.8,1338.0 548.8,1337.0 548.8,1336.0 548.0,1335.2 547.0,1335.2 546.0,1335.2 545.8,1335.0 545.8,1334.0 545.8,1333.0 545.8,1332.0 545.0,1331.2 544.8,1331.0 544.8,1330.0 544.8,1329.0 544.0,1328.2 543.8,1328.0 543.8,1327.0 543.8,1326.0 543.8,1325.0 543.8,1324.0 543.0,1323.2 542.8,1323.0 542.0,1322.2 541.8,1322.0 542.0,1321.8 543.0,1321.8 543.8,1321.0 543.0,1320.2 542.0,1320.2 541.8,1320.0 541.8,1319.0 542.0,1318.8 542.8,1318.0 542.8,1317.0 542.8,1316.0 542.0,1315.2 541.8,1315.0 541.8,1314.0 541.0,1313.2 540.8,1313.0 540.8,1312.0 540.0,1311.2 539.0,1311.2 538.8,1311.0 538.0,1310.2 537.8,1310.0 537.0,1309.2 536.8,1309.0 537.0,1308.8 537.8,1308.0 537.0,1307.2 536.8,1307.0 536.8,1306.0 536.0,1305.2 535.8,1305.0 535.8,1304.0 536.0,1303.8 537.0,1303.8 537.8,1303.0 537.0,1302.2 536.8,1302.0 536.0,1301.2 535.8,1301.0 536.0,1300.8 536.8,1300.0 536.0,1299.2 535.8,1299.0 535.8,1298.0 535.0,1297.2 534.8,1297.0 534.8,1296.0 534.0,1295.2 533.0,1295.2 532.8,1295.0 532.8,1294.0 532.0,1293.2 531.8,1293.0 531.8,1292.0 531.0,1291.2 530.8,1291.0 530.8,1290.0 530.8,1289.0 530.0,1288.2 529.0,1288.2 528.8,1288.0 528.0,1287.2 527.0,1287.2 526.8,1287.0 526.8,1286.0 526.0,1285.2 525.8,1285.0 525.8,1284.0 525.8,1283.0 525.0,1282.2 524.2,1283.0 524.0,1283.2 523.8,1283.0 523.8,1282.0 523.0,1281.2 522.8,1281.0 522.8,1280.0 523.0,1279.8 523.8,1279.0 523.0,1278.2 522.8,1278.0 522.0,1277.2 521.8,1277.0 521.8,1276.0 521.0,1275.2 520.8,1275.0 520.0,1274.2 519.8,1274.0 519.0,1273.2 518.8,1273.0 518.0,1272.2 517.8,1272.0 517.0,1271.2 516.8,1271.0 516.0,1270.2 515.0,1270.2 514.8,1270.0 514.8,1269.0 514.0,1268.2 513.8,1268.0 513.0,1267.2 512.8,1267.0 512.8,1266.0 512.0,1265.2 511.2,1266.0 511.0,1266.2 510.8,1266.0 510.0,1265.2 509.8,1265.0 509.8,1264.0 509.0,1263.2 508.0,1263.2 507.0,1263.2 506.8,1263.0 506.8,1262.0 506.0,1261.2 505.0,1261.2 504.8,1261.0 505.0,1260.8 505.8,1260.0 505.0,1259.2 504.8,1259.0 504.0,1258.2 503.0,1258.2 502.8,1258.0 502.0,1257.2 501.0,1257.2 500.8,1257.0 500.8,1256.0 500.0,1255.2 499.8,1255.0 500.0,1254.8 500.8,1254.0 500.0,1253.2 499.0,1253.2 498.8,1253.0 498.0,1252.2 497.8,1252.0 497.0,1251.2 496.8,1251.0 496.8,1250.0 496.8,1249.0 496.0,1248.2 495.2,1249.0 495.2,1250.0 495.0,1250.2 494.0,1250.2 493.8,1250.0 494.0,1249.8 494.8,1249.0 494.0,1248.2 493.8,1248.0 493.8,1247.0 494.0,1246.8 494.8,1246.0 494.8,1245.0 494.0,1244.2 493.8,1244.0 493.0,1243.2 492.8,1243.0 492.0,1242.2 491.8,1242.0 491.0,1241.2 490.8,1241.0 490.8,1240.0 490.8,1239.0 490.0,1238.2 489.8,1238.0 489.8,1237.0 489.8,1236.0 489.0,1235.2 488.8,1235.0 488.0,1234.2 487.0,1234.2 486.8,1234.0 486.0,1233.2 485.8,1233.0 485.8,1232.0 486.0,1231.8 486.8,1231.0 486.8,1230.0 486.0,1229.2 485.8,1229.0 485.0,1228.2 484.0,1228.2 483.8,1228.0 484.0,1227.8 485.0,1227.8 485.8,1227.0 485.0,1226.2 484.0,1226.2 483.8,1226.0 483.8,1225.0 483.8,1224.0 484.0,1223.8 484.8,1223.0 484.0,1222.2 483.8,1222.0 483.0,1221.2 482.8,1221.0 483.0,1220.8 483.8,1220.0 483.0,1219.2 482.8,1219.0 482.0,1218.2 481.8,1218.0 482.0,1217.8 482.8,1217.0 482.0,1216.2 481.0,1216.2 480.8,1216.0 481.0,1215.8 482.0,1215.8 482.8,1215.0 482.0,1214.2 481.8,1214.0 481.0,1213.2 480.8,1213.0 480.8,1212.0 481.0,1211.8 481.8,1211.0 481.0,1210.2 480.8,1210.0 480.0,1209.2 479.8,1209.0 480.0,1208.8 480.8,1208.0 480.0,1207.2 479.8,1207.0 479.8,1206.0 479.8,1205.0 479.8,1204.0 479.0,1203.2 478.8,1203.0 478.8,1202.0 479.0,1201.8 479.8,1201.0 479.0,1200.2 478.0,1200.2 477.8,1200.0 477.8,1199.0 477.0,1198.2 476.8,1198.0 476.8,1197.0 476.0,1196.2 475.8,1196.0 475.8,1195.0 475.8,1194.0 475.8,1193.0 475.8,1192.0 476.0,1191.8 476.8,1191.0 477.0,1190.8 478.0,1190.8 478.8,1190.0 478.8,1189.0 478.0,1188.2 477.2,1189.0 477.0,1189.2 476.8,1189.0 476.8,1188.0 476.8,1187.0 476.0,1186.2 475.8,1186.0 476.0,1185.8 476.8,1185.0 476.8,1184.0 476.0,1183.2 475.0,1183.2 474.8,1183.0 475.0,1182.8 475.8,1182.0 475.8,1181.0 475.8,1180.0 475.0,1179.2 474.8,1179.0 475.0,1178.8 475.8,1178.0 475.8,1177.0 476.0,1176.8 476.8,1176.0 476.8,1175.0 476.0,1174.2 475.8,1174.0 476.0,1173.8 476.8,1173.0 476.8,1172.0 476.8,1171.0 476.0,1170.2 475.8,1170.0 476.0,1169.8 476.8,1169.0 476.8,1168.0 476.0,1167.2 475.0,1167.2 474.8,1167.0 475.0,1166.8 475.8,1166.0 476.0,1165.8 476.8,1165.0 476.0,1164.2 475.8,1164.0 475.8,1163.0 475.0,1162.2 474.8,1162.0 475.0,1161.8 475.8,1161.0 476.0,1160.8 476.8,1160.0 476.0,1159.2 475.8,1159.0 476.0,1158.8 476.8,1158.0 476.0,1157.2 475.8,1157.0 476.0,1156.8 476.8,1156.0 476.8,1155.0 476.8,1154.0 476.8,1153.0 477.0,1152.8 477.8,1152.0 477.0,1151.2 476.2,1152.0 476.0,1152.2 475.8,1152.0 475.0,1151.2 474.8,1151.0 475.0,1150.8 475.8,1150.0 476.0,1149.8 476.8,1149.0 476.0,1148.2 475.8,1148.0 475.8,1147.0 476.0,1146.8 476.8,1146.0 476.8,1145.0 477.0,1144.8 477.8,1144.0 478.0,1143.8 478.8,1143.0 478.0,1142.2 477.8,1142.0 478.0,1141.8 478.8,1141.0 478.8,1140.0 478.8,1139.0 478.8,1138.0 479.0,1137.8 479.8,1137.0 479.8,1136.0 479.0,1135.2 478.0,1135.2 477.8,1135.0 478.0,1134.8 478.8,1134.0 478.8,1133.0 479.0,1132.8 479.8,1132.0 479.8,1131.0 479.8,1130.0 479.8,1129.0 480.0,1128.8 480.8,1128.0 480.0,1127.2 479.8,1127.0 479.8,1126.0 479.8,1125.0 480.0,1124.8 480.8,1124.0 480.8,1123.0 480.8,1122.0 480.8,1121.0 480.8,1120.0 481.0,1119.8 481.8,1119.0 482.0,1118.8 482.8,1118.0 482.8,1117.0 482.8,1116.0 482.8,1115.0 482.8,1114.0 482.8,1113.0 482.8,1112.0 482.8,1111.0 482.8,1110.0 482.8,1109.0 482.8,1108.0 483.0,1107.8 483.8,1107.0 483.8,1106.0 483.8,1105.0 484.0,1104.8 484.8,1104.0 484.0,1103.2 483.8,1103.0 484.0,1102.8 484.8,1102.0 484.8,1101.0 484.8,1100.0 484.8,1099.0 485.0,1098.8 485.8,1098.0 485.8,1097.0 485.0,1096.2 484.8,1096.0 484.8,1095.0 485.0,1094.8 486.0,1094.8 486.8,1094.0 486.8,1093.0 486.0,1092.2 485.8,1092.0 486.0,1091.8 486.8,1091.0 486.0,1090.2 485.8,1090.0 485.8,1089.0 486.0,1088.8 486.8,1088.0 486.8,1087.0 486.8,1086.0 486.8,1085.0 487.0,1084.8 487.8,1084.0 487.8,1083.0 487.8,1082.0 487.8,1081.0 488.0,1080.8 488.8,1080.0 488.8,1079.0 488.8,1078.0 488.8,1077.0 488.8,1076.0 488.8,1075.0 488.8,1074.0 488.8,1073.0 489.0,1072.8 489.8,1072.0 489.0,1071.2 488.8,1071.0 489.0,1070.8 489.8,1070.0 489.8,1069.0 489.8,1068.0 489.8,1067.0 489.8,1066.0 489.8,1065.0 489.8,1064.0 490.0,1063.8 490.8,1063.0 490.8,1062.0 490.8,1061.0 490.8,1060.0 491.0,1059.8 491.8,1059.0 491.0,1058.2 490.8,1058.0 491.0,1057.8 491.8,1057.0 491.0,1056.2 490.8,1056.0 490.8,1055.0 490.8,1054.0 490.8,1053.0 490.8,1052.0 491.0,1051.8 491.8,1051.0 491.0,1050.2 490.8,1050.0 490.8,1049.0 491.0,1048.8 491.8,1048.0 492.0,1047.8 492.8,1047.0 493.0,1046.8 493.8,1046.0 493.0,1045.2 492.8,1045.0 492.8,1044.0 492.8,1043.0 492.8,1042.0 493.0,1041.8 493.8,1041.0 493.8,1040.0 493.8,1039.0 493.0,1038.2 492.8,1038.0 493.0,1037.8 493.8,1037.0 493.8,1036.0 494.0,1035.8 494.8,1035.0 494.0,1034.2 493.8,1034.0 493.8,1033.0 494.0,1032.8 494.8,1032.0 494.8,1031.0 494.8,1030.0 494.8,1029.0 494.0,1028.2 493.8,1028.0 494.0,1027.8 494.8,1027.0 494.8,1026.0 494.8,1025.0 494.8,1024.0 494.8,1023.0 494.8,1022.0 494.8,1021.0 494.8,1020.0 494.8,1019.0 494.8,1018.0 494.8,1017.0 494.8,1016.0 495.0,1015.8 496.0,1015.8 496.8,1015.0 496.8,1014.0 496.8,1013.0 496.8,1012.0 496.8,1011.0 497.0,1010.8 497.8,1010.0 497.0,1009.2 496.8,1009.0 497.0,1008.8 497.8,1008.0 497.0,1007.2 496.8,1007.0 497.0,1006.8 497.8,1006.0 497.8,1005.0 497.0,1004.2 496.8,1004.0 497.0,1003.8 497.8,1003.0 497.8,1002.0 497.8,1001.0 497.8,1000.0 497.8,999.0 497.8,998.0 497.8,997.0 498.0,996.8 498.8,996.0 498.8,995.0 498.0,994.2 497.8,994.0 498.0,993.8 498.8,993.0 498.0,992.2 497.8,992.0 498.0,991.8 498.8,991.0 498.0,990.2 497.8,990.0 498.0,989.8 498.8,989.0 498.8,988.0 498.8,987.0 498.0,986.2 497.8,986.0 498.0,985.8 498.8,985.0 498.8,984.0 498.0,983.2 497.8,983.0 497.8,982.0 497.8,981.0 497.8,980.0 497.8,979.0 497.0,978.2 496.8,978.0 497.0,977.8 497.8,977.0 497.8,976.0 497.0,975.2 496.8,975.0 497.0,974.8 497.8,974.0 497.8,973.0 497.0,972.2 496.8,972.0 496.8,971.0 496.8,970.0 496.8,969.0 496.8,968.0 497.0,967.8 497.8,967.0 497.8,966.0 498.0,965.8 498.8,965.0 498.0,964.2 497.8,964.0 497.8,963.0 497.8,962.0 497.8,961.0 497.8,960.0 497.8,959.0 497.0,958.2 496.8,958.0 496.8,957.0 496.8,956.0 496.8,955.0 496.8,954.0 496.8,953.0 496.8,952.0 496.8,951.0 496.8,950.0 497.0,949.8 497.8,949.0 497.0,948.2 496.8,948.0 497.0,947.8 497.8,947.0 497.0,946.2 496.8,946.0 496.8,945.0 496.8,944.0 496.8,943.0 497.0,942.8 497.8,942.0 497.8,941.0 497.0,940.2 496.8,940.0 497.0,939.8 497.8,939.0 497.8,938.0 497.8,937.0 497.0,936.2 496.8,936.0 497.0,935.8 497.8,935.0 497.8,934.0 497.0,933.2 496.8,933.0 496.8,932.0 496.8,931.0 496.8,930.0 496.8,929.0 497.0,928.8 497.8,928.0 497.0,927.2 496.0,927.2 495.0,927.2 494.8,927.0 495.0,926.8 495.8,926.0 496.0,925.8 496.8,925.0 496.8,924.0 496.8,923.0 496.0,922.2 495.0,922.2 494.8,922.0 495.0,921.8 496.0,921.8 496.8,921.0 496.0,920.2 495.0,920.2 494.8,920.0 495.0,919.8 496.0,919.8 496.8,919.0 496.8,918.0 496.8,917.0 496.8,916.0 496.8,915.0 496.8,914.0 496.8,913.0 496.8,912.0 496.8,911.0 497.0,910.8 497.8,910.0 497.0,909.2 496.8,909.0 496.8,908.0 496.8,907.0 496.8,906.0 496.8,905.0 496.8,904.0 496.8,903.0 496.8,902.0 497.0,901.8 497.8,901.0 497.0,900.2 496.8,900.0 496.8,899.0 496.8,898.0 496.8,897.0 496.8,896.0 497.0,895.8 497.8,895.0 497.8,894.0 497.8,893.0 497.0,892.2 496.8,892.0 497.0,891.8 497.8,891.0 497.8,890.0 497.8,889.0 498.0,888.8 498.8,888.0 498.0,887.2 497.0,887.2 496.8,887.0 497.0,886.8 497.8,886.0 497.8,885.0 497.8,884.0 497.8,883.0 497.8,882.0 497.8,881.0 497.8,880.0 498.0,879.8 498.8,879.0 498.0,878.2 497.8,878.0 498.0,877.8 498.8,877.0 498.8,876.0 498.0,875.2 497.8,875.0 498.0,874.8 498.8,874.0 498.0,873.2 497.8,873.0 498.0,872.8 498.8,872.0 498.8,871.0 498.8,870.0 498.8,869.0 498.8,868.0 498.8,867.0 498.8,866.0 498.8,865.0 498.8,864.0 498.8,863.0 499.0,862.8 499.8,862.0 499.0,861.2 498.8,861.0 499.0,860.8 500.0,860.8 500.8,860.0 500.0,859.2 499.8,859.0 499.8,858.0 499.8,857.0 500.0,856.8 500.8,856.0 500.8,855.0 500.8,854.0 500.8,853.0 500.8,852.0 500.8,851.0 500.8,850.0 500.8,849.0 501.0,848.8 501.8,848.0 501.8,847.0 501.0,846.2 500.8,846.0 500.8,845.0 500.8,844.0 501.0,843.8 501.8,843.0 501.0,842.2 500.8,842.0 501.0,841.8 501.8,841.0 501.8,840.0 501.8,839.0 502.0,838.8 502.8,838.0 502.8,837.0 502.8,836.0 502.8,835.0 502.8,834.0 503.0,833.8 504.0,833.8 504.8,833.0 504.0,832.2 503.0,832.2 502.8,832.0 502.8,831.0 503.0,830.8 503.8,830.0 503.8,829.0 503.8,828.0 504.0,827.8 504.8,827.0 504.8,826.0 504.8,825.0 504.8,824.0 504.8,823.0 505.0,822.8 505.8,822.0 505.0,821.2 504.8,821.0 505.0,820.8 505.8,820.0 505.8,819.0 505.8,818.0 506.0,817.8 506.8,817.0 506.8,816.0 506.0,815.2 505.0,815.2 504.8,815.0 505.0,814.8 505.8,814.0 505.8,813.0 505.8,812.0 505.8,811.0 505.8,810.0 506.0,809.8 506.8,809.0 506.8,808.0 506.8,807.0 506.8,806.0 506.8,805.0 507.0,804.8 507.8,804.0 507.8,803.0 507.8,802.0 507.8,801.0 507.8,800.0 507.8,799.0 508.0,798.8 508.8,798.0 508.8,797.0 508.8,796.0 509.0,795.8 509.8,795.0 509.8,794.0 509.8,793.0 509.8,792.0 509.8,791.0 510.0,790.8 510.8,790.0 510.8,789.0 510.8,788.0 511.0,787.8 511.8,787.0 511.0,786.2 510.8,786.0 511.0,785.8 512.0,785.8 512.8,785.0 512.8,784.0 512.0,783.2 511.2,784.0 511.0,784.2 510.8,784.0 510.0,783.2 509.8,783.0 510.0,782.8 510.8,782.0 510.8,781.0 511.0,780.8 511.8,780.0 512.0,779.8 512.8,779.0 512.8,778.0 512.8,777.0 513.0,776.8 513.8,776.0 513.0,775.2 512.8,775.0 513.0,774.8 513.8,774.0 514.0,773.8 514.8,773.0 514.0,772.2 513.8,772.0 513.8,771.0 514.0,770.8 514.8,770.0 514.8,769.0 514.8,768.0 514.8,767.0 514.8,766.0 514.8,765.0 515.0,764.8 515.8,764.0 515.8,763.0 515.8,762.0 515.8,761.0 516.0,760.8 516.8,760.0 516.8,759.0 516.0,758.2 515.8,758.0 516.0,757.8 516.8,757.0 516.8,756.0 517.0,755.8 517.8,755.0 517.8,754.0 517.0,753.2 516.8,753.0 517.0,752.8 517.8,752.0 517.8,751.0 517.8,750.0 518.0,749.8 518.8,749.0 518.8,748.0 518.8,747.0 518.8,746.0 518.8,745.0 518.8,744.0 518.8,743.0 519.0,742.8 519.8,742.0 520.0,741.8 520.8,741.0 520.8,740.0 520.8,739.0 520.8,738.0 520.8,737.0 521.0,736.8 521.8,736.0 521.8,735.0 522.0,734.8 522.8,734.0 522.0,733.2 521.0,733.2 520.8,733.0 520.8,732.0 521.0,731.8 521.8,731.0 521.8,730.0 521.8,729.0 521.8,728.0 522.0,727.8 522.8,727.0 522.8,726.0 523.0,725.8 523.8,725.0 523.8,724.0 523.8,723.0 523.8,722.0 523.8,721.0 524.0,720.8 524.8,720.0 524.8,719.0 524.8,718.0 524.8,717.0 525.0,716.8 525.8,716.0 526.0,715.8 526.8,715.0 526.0,714.2 525.8,714.0 525.8,713.0 525.8,712.0 526.0,711.8 526.8,711.0 526.8,710.0 526.8,709.0 526.0,708.2 525.8,708.0 526.0,707.8 526.8,707.0 526.0,706.2 525.8,706.0 526.0,705.8 526.8,705.0 527.0,704.8 528.0,704.8 529.0,704.8 529.8,704.0 529.0,703.2 528.8,703.0 529.0,702.8 529.8,702.0 529.8,701.0 529.8,700.0 529.8,699.0 529.8,698.0 530.0,697.8 530.8,697.0 531.0,696.8 531.8,696.0 531.0,695.2 530.8,695.0 531.0,694.8 531.8,694.0 531.8,693.0 531.8,692.0 532.0,691.8 532.8,691.0 532.0,690.2 531.8,690.0 532.0,689.8 532.8,689.0 533.0,688.8 533.8,688.0 533.0,687.2 532.0,687.2 531.8,687.0 532.0,686.8 532.8,686.0 533.0,685.8 533.8,685.0 533.0,684.2 532.8,684.0 533.0,683.8 533.8,683.0 534.0,682.8 534.8,682.0 534.0,681.2 533.8,681.0 534.0,680.8 534.8,680.0 534.8,679.0 534.8,678.0 534.8,677.0 535.0,676.8 536.0,676.8 536.8,676.0 536.8,675.0 536.0,674.2 535.8,674.0 535.8,673.0 535.8,672.0 535.8,671.0 535.8,670.0 536.0,669.8 536.8,669.0 536.8,668.0 536.8,667.0 536.8,666.0 536.8,665.0 537.0,664.8 537.8,664.0 537.8,663.0 537.8,662.0 538.0,661.8 538.8,661.0 538.8,660.0 539.0,659.8 539.8,659.0 539.0,658.2 538.8,658.0 538.8,657.0 539.0,656.8 539.8,656.0 539.8,655.0 539.8,654.0 539.8,653.0 539.8,652.0 539.8,651.0 539.8,650.0 540.0,649.8 540.8,649.0 540.8,648.0 540.0,647.2 539.8,647.0 540.0,646.8 540.8,646.0 540.8,645.0 540.8,644.0 540.8,643.0 540.8,642.0 540.8,641.0 540.8,640.0 540.8,639.0 540.8,638.0 540.8,637.0 540.8,636.0 541.0,635.8 541.8,635.0 541.0,634.2 540.8,634.0 541.0,633.8 541.8,633.0 541.8,632.0 542.0,631.8 542.8,631.0 542.8,630.0 542.8,629.0 542.8,628.0 542.8,627.0 542.8,626.0 542.8,625.0 542.8,624.0 542.8,623.0 543.0,622.8 543.8,622.0 544.0,621.8 544.8,621.0 544.8,620.0 544.0,619.2 543.8,619.0 543.8,618.0 544.0,617.8 544.8,617.0 544.8,616.0 544.8,615.0 544.8,614.0 544.8,613.0 544.8,612.0 544.8,611.0 544.8,610.0 544.8,609.0 545.0,608.8 545.8,608.0 545.0,607.2 544.8,607.0 545.0,606.8 545.8,606.0 545.8,605.0 545.8,604.0 545.8,603.0 545.0,602.2 544.8,602.0 545.0,601.8 546.0,601.8 546.8,601.0 546.0,600.2 545.8,600.0 545.0,599.2 544.8,599.0 545.0,598.8 546.0,598.8 546.8,598.0 546.0,597.2 545.8,597.0 546.0,596.8 546.8,596.0 546.8,595.0 546.8,594.0 546.0,593.2 545.8,593.0 546.0,592.8 546.8,592.0 546.0,591.2 545.8,591.0 545.8,590.0 545.8,589.0 545.8,588.0 545.8,587.0 545.8,586.0 545.0,585.2 544.8,585.0 544.8,584.0 545.0,583.8 545.8,583.0 545.8,582.0 545.8,581.0 545.8,580.0 545.8,579.0 545.8,578.0 545.8,577.0 545.8,576.0 545.0,575.2 544.0,575.2 543.8,575.0 543.8,574.0 544.0,573.8 544.2,574.0 545.0,574.8 545.8,574.0 545.0,573.2 544.8,573.0 544.8,572.0 544.8,571.0 544.8,570.0 544.8,569.0 544.8,568.0 544.8,567.0 544.0,566.2 543.8,566.0 544.0,565.8 544.8,565.0 544.8,564.0 544.8,563.0 544.0,562.2 543.8,562.0 543.8,561.0 544.0,560.8 544.8,560.0 544.0,559.2 543.8,559.0 544.0,558.8 544.8,558.0 544.0,557.2 543.8,557.0 544.0,556.8 544.8,556.0 544.8,555.0 544.8,554.0 544.8,553.0 544.8,552.0 544.8,551.0 544.8,550.0 544.8,549.0 544.8,548.0 544.8,547.0 544.8,546.0 544.8,545.0 544.8,544.0 544.0,543.2 543.8,543.0 543.0,542.2 542.8,542.0 543.0,541.8 544.0,541.8 544.8,541.0 544.8,540.0 544.8,539.0 544.0,538.2 543.8,538.0 544.0,537.8 544.8,537.0 544.8,536.0 544.0,535.2 543.8,535.0 543.8,534.0 544.0,533.8 544.2,534.0 545.0,534.8 545.8,534.0 545.0,533.2 544.8,533.0 544.8,532.0 544.8,531.0 545.0,530.8 546.0,530.8 546.8,530.0 546.0,529.2 545.8,529.0 545.8,528.0 545.0,527.2 544.8,527.0 545.0,526.8 545.8,526.0 545.8,525.0 545.8,524.0 546.0,523.8 546.8,523.0 546.0,522.2 545.8,522.0 546.0,521.8 546.8,521.0 546.8,520.0 546.8,519.0 546.8,518.0 546.8,517.0 547.0,516.8 547.8,516.0 547.8,515.0 547.8,514.0 547.8,513.0 548.0,512.8 548.8,512.0 548.0,511.2 547.8,511.0 547.8,510.0 548.0,509.8 548.8,509.0 548.8,508.0 548.0,507.2 547.8,507.0 548.0,506.8 548.8,506.0 548.8,505.0 548.8,504.0 549.0,503.8 549.8,503.0 549.8,502.0 550.0,501.8 550.8,501.0 550.0,500.2 549.8,500.0 550.0,499.8 550.8,499.0 550.0,498.2 549.8,498.0 549.8,497.0 550.0,496.8 550.8,496.0 550.0,495.2 549.8,495.0 549.0,494.2 548.8,494.0 549.0,493.8 549.8,493.0 549.8,492.0 550.0,491.8 550.8,491.0 551.0,490.8 551.8,490.0 551.8,489.0 552.0,488.8 552.8,488.0 552.8,487.0 552.8,486.0 552.8,485.0 552.8,484.0 553.0,483.8 554.0,483.8 554.8,483.0 554.0,482.2 553.8,482.0 553.8,481.0 553.8,480.0 553.8,479.0 554.0,478.8 554.8,478.0 554.8,477.0 554.8,476.0 554.8,475.0 555.0,474.8 555.8,474.0 555.8,473.0 556.0,472.8 556.8,472.0 556.0,471.2 555.8,471.0 555.8,470.0 555.0,469.2 554.8,469.0 555.0,468.8 555.8,468.0 555.8,467.0 556.0,466.8 556.8,466.0 556.8,465.0 556.8,464.0 556.8,463.0 556.8,462.0 556.8,461.0 556.8,460.0 557.0,459.8 558.0,459.8 558.8,459.0 558.8,458.0 558.8,457.0 558.8,456.0 559.0,455.8 559.8,455.0 559.8,454.0 560.0,453.8 560.8,453.0 561.0,452.8 561.8,452.0 561.8,451.0 561.8,450.0 561.8,449.0 561.8,448.0 562.0,447.8 562.8,447.0 562.0,446.2 561.8,446.0 561.8,445.0 561.8,444.0 562.0,443.8 562.8,443.0 562.8,442.0 563.0,441.8 563.8,441.0 563.8,440.0 563.8,439.0 563.8,438.0 563.8,437.0 563.8,436.0 564.0,435.8 564.2,436.0 565.0,436.8 565.8,436.0 565.8,435.0 565.8,434.0 565.8,433.0 565.8,432.0 566.0,431.8 566.8,431.0 566.8,430.0 567.0,429.8 568.0,429.8 568.8,429.0 568.8,428.0 568.8,427.0 568.8,426.0 569.0,425.8 569.8,425.0 569.8,424.0 569.8,423.0 570.0,422.8 570.8,422.0 570.8,421.0 570.8,420.0 571.0,419.8 572.0,419.8 572.8,419.0 572.8,418.0 572.8,417.0 573.0,416.8 573.8,416.0 573.0,415.2 572.0,415.2 571.8,415.0 572.0,414.8 572.8,414.0 572.8,413.0 573.0,412.8 573.8,412.0 574.0,411.8 574.8,411.0 574.8,410.0 574.0,409.2 573.8,409.0 574.0,408.8 574.8,408.0 575.0,407.8 576.0,407.8 577.0,407.8 578.0,407.8 578.8,407.0 578.0,406.2 577.8,406.0 578.0,405.8 578.8,405.0 578.8,404.0 579.0,403.8 580.0,403.8 580.8,403.0 580.8,402.0 580.8,401.0 580.8,400.0 580.0,399.2 579.0,399.2 578.8,399.0 579.0,398.8 579.8,398.0 579.0,397.2 578.8,397.0 579.0,396.8 580.0,396.8 580.8,396.0 580.8,395.0 580.8,394.0 581.0,393.8 581.8,393.0 582.0,392.8 582.8,392.0 582.8,391.0 582.8,390.0 583.0,389.8 583.8,389.0 584.0,388.8 584.8,388.0 584.8,387.0 584.8,386.0 585.0,385.8 585.8,385.0 585.8,384.0 586.0,383.8 586.8,383.0 586.8,382.0 586.8,381.0 586.8,380.0 587.0,379.8 588.0,379.8 588.8,379.0 588.0,378.2 587.8,378.0 588.0,377.8 588.8,377.0 588.8,376.0 588.0,375.2 587.0,375.2 586.8,375.0 586.8,374.0 586.8,373.0 587.0,372.8 587.8,372.0 588.0,371.8 588.8,371.0 588.8,370.0 589.0,369.8 589.8,369.0 589.8,368.0 590.0,367.8 590.8,367.0 590.8,366.0 591.0,365.8 592.0,365.8 592.8,365.0 592.8,364.0 593.0,363.8 593.8,363.0 593.0,362.2 592.8,362.0 593.0,361.8 593.8,361.0 593.8,360.0 594.0,359.8 594.8,359.0 594.8,358.0 594.8,357.0 595.0,356.8 595.8,356.0 595.0,355.2 594.8,355.0 595.0,354.8 595.8,354.0 595.8,353.0 596.0,352.8 597.0,352.8 597.8,352.0 597.0,351.2 596.0,351.2 595.0,351.2 594.0,351.2 593.8,351.0 594.0,350.8 595.0,350.8 595.8,350.0 595.0,349.2 594.8,349.0 595.0,348.8 596.0,348.8 596.8,348.0 596.0,347.2 595.8,347.0 596.0,346.8 596.8,346.0 596.0,345.2 595.8,345.0 596.0,344.8 597.0,344.8 597.8,344.0 597.8,343.0 598.0,342.8 598.8,342.0 598.0,341.2 597.8,341.0 597.8,340.0 598.0,339.8 598.8,339.0 599.0,338.8 599.8,338.0 599.0,337.2 598.0,337.2 597.8,337.0 598.0,336.8 598.8,336.0 599.0,335.8 600.0,335.8 600.8,335.0 600.8,334.0 601.0,333.8 601.8,333.0 601.8,332.0 602.0,331.8 602.8,331.0 602.8,330.0 602.8,329.0 603.0,328.8 603.8,328.0 603.0,327.2 602.0,327.2 601.0,327.2 600.0,327.2 599.8,327.0 600.0,326.8 601.0,326.8 601.8,326.0 601.0,325.2 600.8,325.0 600.8,324.0 601.0,323.8 601.8,323.0 601.8,322.0 602.0,321.8 602.8,321.0 602.8,320.0 603.0,319.8 603.8,319.0 604.0,318.8 604.8,318.0 604.8,317.0 604.8,316.0 605.0,315.8 605.8,315.0 605.0,314.2 604.8,314.0 605.0,313.8 605.8,313.0 605.8,312.0 606.0,311.8 606.8,311.0 607.0,310.8 607.8,310.0 607.8,309.0 608.0,308.8 608.8,308.0 608.8,307.0 608.8,306.0 609.0,305.8 609.8,305.0 609.0,304.2 608.8,304.0 608.0,303.2 607.0,303.2 606.0,303.2 605.8,303.0 606.0,302.8 606.8,302.0 607.0,301.8 607.8,301.0 607.8,300.0 607.8,299.0 607.8,298.0 608.0,297.8 608.8,297.0 608.8,296.0 609.0,295.8 609.8,295.0 610.0,294.8 610.8,294.0 610.8,293.0 610.8,292.0 611.0,291.8 611.8,291.0 612.0,290.8 612.8,290.0 612.0,289.2 611.8,289.0 612.0,288.8 612.8,288.0 613.0,287.8 613.8,287.0 613.8,286.0 614.0,285.8 614.8,285.0 615.0,284.8 615.8,284.0 615.8,283.0 615.0,282.2 614.8,282.0 615.0,281.8 616.0,281.8 616.8,281.0 616.8,280.0 616.0,279.2 615.0,279.2 614.8,279.0 615.0,278.8 615.8,278.0 615.0,277.2 614.8,277.0 615.0,276.8 616.0,276.8 616.8,276.0 616.8,275.0 616.8,274.0 616.8,273.0 616.8,272.0 617.0,271.8 617.8,271.0 618.0,270.8 618.8,270.0 618.8,269.0 618.8,268.0 618.8,267.0 618.8,266.0 619.0,265.8 619.8,265.0 619.0,264.2 618.8,264.0 619.0,263.8 620.0,263.8 620.8,263.0 620.0,262.2 619.8,262.0 620.0,261.8 620.8,261.0 620.8,260.0 621.0,259.8 621.8,259.0 621.0,258.2 620.8,258.0 620.8,257.0 621.0,256.8 621.8,256.0 621.0,255.2 620.0,255.2 619.8,255.0 619.8,254.0 619.8,253.0 619.8,252.0 619.8,251.0 619.8,250.0 619.8,249.0 619.8,248.0 620.0,247.8 620.8,247.0 620.8,246.0 620.8,245.0 620.8,244.0 620.8,243.0 620.8,242.0 621.0,241.8 621.8,241.0 621.8,240.0 621.8,239.0 621.0,238.2 620.8,238.0 620.8,237.0 621.0,236.8 621.2,237.0 622.0,237.8 622.8,237.0 622.0,236.2 621.8,236.0 621.8,235.0 621.0,234.2 620.8,234.0 621.0,233.8 621.8,233.0 621.0,232.2 620.8,232.0 620.0,231.2 619.8,231.0 619.8,230.0 619.8,229.0 619.8,228.0 619.8,227.0 619.8,226.0 619.8,225.0 619.0,224.2 618.8,224.0 618.8,223.0 618.8,222.0 618.8,221.0 618.0,220.2 617.8,220.0 617.8,219.0 617.8,218.0 617.0,217.2 616.8,217.0 617.0,216.8 617.8,216.0 617.0,215.2 616.8,215.0 616.0,214.2 615.8,214.0 615.8,213.0 616.0,212.8 616.8,212.0 616.8,211.0 616.0,210.2 615.8,210.0 615.8,209.0 615.0,208.2 614.8,208.0 614.0,207.2 613.0,207.2 612.8,207.0 612.8,206.0 612.0,205.2 611.8,205.0 612.0,204.8 612.8,204.0 612.0,203.2 611.8,203.0 611.8,202.0 611.0,201.2 610.8,201.0 610.8,200.0 611.0,199.8 612.0,199.8 612.8,199.0 612.0,198.2 611.8,198.0 611.0,197.2 610.8,197.0 611.0,196.8 611.8,196.0 611.0,195.2 610.8,195.0 610.8,194.0 610.0,193.2 609.8,193.0 609.8,192.0 609.0,191.2 608.8,191.0 608.0,190.2 607.8,190.0 607.8,189.0 608.0,188.8 608.8,188.0 608.0,187.2 607.2,188.0 607.0,188.2 606.8,188.0 606.8,187.0 606.8,186.0 606.0,185.2 605.8,185.0 606.0,184.8 606.8,184.0 606.0,183.2 605.0,183.2 604.8,183.0 605.0,182.8 605.8,182.0 605.0,181.2 604.8,181.0 604.8,180.0 604.0,179.2 603.8,179.0 603.8,178.0 603.8,177.0 603.0,176.2 602.8,176.0 603.0,175.8 603.8,175.0 603.8,174.0 603.0,173.2 602.8,173.0 602.8,172.0 602.8,171.0 602.0,170.2 601.8,170.0 602.0,169.8 602.8,169.0 602.0,168.2 601.0,168.2 600.8,168.0 600.8,167.0 601.0,166.8 601.8,166.0 601.0,165.2 600.8,165.0 600.8,164.0 600.0,163.2 599.8,163.0 599.8,162.0 599.8,161.0 599.8,160.0 599.8,159.0 600.0,158.8 600.8,158.0 600.0,157.2 599.8,157.0 599.8,156.0 599.8,155.0 599.0,154.2 598.8,154.0 598.8,153.0 598.8,152.0 598.8,151.0 598.8,150.0 598.8,149.0 598.0,148.2 597.8,148.0 597.0,147.2 596.8,147.0 597.0,146.8 597.8,146.0 597.8,145.0 597.0,144.2 596.8,144.0 596.8,143.0 596.0,142.2 595.8,142.0 596.0,141.8 597.0,141.8 597.8,141.0 597.0,140.2 596.0,140.2 595.8,140.0 596.0,139.8 596.8,139.0 596.0,138.2 595.8,138.0 595.0,137.2 594.8,137.0 594.8,136.0 595.0,135.8 595.8,135.0 595.0,134.2 594.8,134.0 595.0,133.8 595.8,133.0 595.8,132.0 595.8,131.0 595.0,130.2 594.8,130.0 594.8,129.0 594.0,128.2 593.8,128.0 594.0,127.8 594.8,127.0 594.0,126.2 593.8,126.0 593.8,125.0 593.8,124.0 593.8,123.0 593.0,122.2 592.8,122.0 592.8,121.0 592.8,120.0 592.8,119.0 593.0,118.8 593.8,118.0 593.0,117.2 592.8,117.0 592.0,116.2 591.8,116.0 592.0,115.8 592.8,115.0 592.0,114.2 591.8,114.0 591.8,113.0 591.0,112.2 590.8,112.0 590.8,111.0 591.0,110.8 591.8,110.0 591.0,109.2 590.8,109.0 590.0,108.2 589.8,108.0 590.0,107.8 591.0,107.8 591.8,107.0 591.0,106.2 590.8,106.0 590.0,105.2 589.8,105.0 589.8,104.0 589.0,103.2 588.8,103.0 589.0,102.8 589.8,102.0 589.0,101.2 588.8,101.0 588.8,100.0 588.8,99.0 588.8,98.0 588.0,97.2 587.8,97.0 587.8,96.0 587.0,95.2 586.8,95.0 586.8,94.0 586.8,93.0 586.0,92.2 585.8,92.0 585.8,91.0 585.8,90.0 586.0,89.8 586.8,89.0 586.0,88.2 585.0,88.2 584.8,88.0 585.0,87.8 586.0,87.8 587.0,87.8 587.8,87.0 587.0,86.2 586.8,86.0 586.8,85.0 586.0,84.2 585.8,84.0 586.0,83.8 586.8,83.0 586.0,82.2 585.0,82.2 584.8,82.0 585.0,81.8 585.8,81.0 585.0,80.2 584.8,80.0 584.0,79.2 583.8,79.0 583.0,78.2 582.8,78.0 582.8,77.0 582.8,76.0 582.8,75.0 582.0,74.2 581.8,74.0 581.8,73.0 581.8,72.0 581.0,71.2 580.8,71.0 580.8,70.0 580.8,69.0 580.8,68.0 580.0,67.2 579.8,67.0 579.8,66.0 579.0,65.2 578.8,65.0 578.8,64.0 578.8,63.0 579.0,62.8 579.8,62.0 579.0,61.2 578.8,61.0 578.0,60.2 577.8,60.0 578.0,59.8 578.8,59.0 578.0,58.2 577.8,58.0 577.8,57.0 577.0,56.2 576.8,56.0 576.0,55.2 575.0,55.2 574.8,55.0 575.0,54.8 575.8,54.0 575.0,53.2 574.8,53.0 574.8,52.0 574.8,51.0 574.0,50.2 573.8,50.0 573.8,49.0 573.8,48.0 573.0,47.2 572.8,47.0 572.8,46.0 572.0,45.2 571.8,45.0 571.0,44.2 570.8,44.0 570.8,43.0 570.0,42.2 569.8,42.0 570.0,41.8 570.8,41.0 570.0,40.2 569.8,40.0 570.0,39.8 571.0,39.8 571.8,39.0 571.0,38.2 570.8,38.0 570.8,37.0 570.8,36.0 570.8,35.0 570.8,34.0 570.0,33.2 569.0,33.2 568.8,33.0 568.8,32.0 568.0,31.2 567.8,31.0 568.0,30.8 568.8,30.0 568.0,29.2 567.0,29.2 566.8,29.0 566.8,28.0 567.0,27.8 567.2,28.0 568.0,28.8 568.8,28.0 568.0,27.2 567.8,27.0 567.0,26.2 566.8,26.0 566.0,25.2 565.8,25.0 565.8,24.0 566.0,23.8 566.8,23.0 566.8,22.0 566.0,21.2 565.8,21.0 565.8,20.0 565.8,19.0 565.0,18.2 564.8,18.0 564.0,17.2 563.8,17.0 564.0,16.8 564.8,16.0 565.0,15.8 565.8,15.0 565.8,14.0 565.0,13.2 564.8,13.0 565.0,12.8 565.8,12.0 565.0,11.2 564.0,11.2 563.8,11.0 564.0,10.8 564.8,10.0 564.0,9.2 563.8,9.0 563.8,8.0 563.0,7.2 562.8,7.0 562.8,6.0 562.8,5.0 562.0,4.2 561.8,4.0 561.8,3.0 561.0,2.2 560.8,2.0 560.8,1.0 560.8,0.0" stroke="white" stroke-width="1" /><polyline fill="none" points="486.0,25.2 485.8,25.0 486.0,24.8 486.2,25.0 486.0,25.2" stroke="white" stroke-width="1" /><polyline fill="none" points="473.0,103.2 472.8,103.0 473.0,102.8 473.2,103.0 473.0,103.2" stroke="white" stroke-width="1" /><polyline fill="none" points="615.0,211.2 614.8,211.0 615.0,210.8 615.2,211.0 615.0,211.2" stroke="white" stroke-width="1" /><polyline fill="none" points="467.0,214.2 466.8,214.0 467.0,213.8 467.2,214.0 467.0,214.2" stroke="white" stroke-width="1" /><polyline fill="none" points="597.0,342.2 596.8,342.0 597.0,341.8 597.2,342.0 597.0,342.2" stroke="white" stroke-width="1" /><polyline fill="none" points="448.0,349.2 447.8,349.0 448.0,348.8 448.2,349.0 448.0,349.2" stroke="white" stroke-width="1" /><polyline fill="none" points="443.0,373.2 442.8,373.0 443.0,372.8 443.2,373.0 443.0,373.2" stroke="white" stroke-width="1" /><polyline fill="none" points="585.0,383.2 584.8,383.0 585.0,382.8 585.2,383.0 585.0,383.2" stroke="white" stroke-width="1" /><polyline fill="none" points="561.0,447.2 560.8,447.0 561.0,446.8 561.2,447.0 561.0,447.2" stroke="white" stroke-width="1" /><polyline fill="none" points="560.8,457.0 560.0,456.2 559.2,457.0 560.0,457.8 560.8,457.0" stroke="white" stroke-width="1" /><polyline fill="none" points="551.0,488.2 550.8,488.0 551.0,487.8 551.2,488.0 551.0,488.2" stroke="white" stroke-width="1" /><polyline fill="none" points="552.8,492.0 552.0,491.2 551.2,492.0 552.0,492.8 552.8,492.0" stroke="white" stroke-width="1" /><polyline fill="none" points="546.8,532.0 546.0,531.2 545.2,532.0 546.0,532.8 546.8,532.0" stroke="white" stroke-width="1" /><polyline fill="none" points="543.0,539.2 542.8,539.0 543.0,538.8 543.2,539.0 543.0,539.2" stroke="white" stroke-width="1" /><polyline fill="none" points="543.0,560.2 542.8,560.0 543.0,559.8 543.2,560.0 543.0,560.2" stroke="white" stroke-width="1" /><polyline fill="none" points="543.0,563.2 542.8,563.0 543.0,562.8 543.2,563.0 543.0,563.2" stroke="white" stroke-width="1" /><polyline fill="none" points="544.8,624.0 544.0,623.2 543.2,624.0 544.0,624.8 544.8,624.0" stroke="white" stroke-width="1" /><polyline fill="none" points="399.8,633.0 399.0,632.2 398.2,633.0 399.0,633.8 399.8,633.0" stroke="white" stroke-width="1" /><polyline fill="none" points="378.8,705.0 378.0,704.2 377.2,705.0 378.0,705.8 378.8,705.0" stroke="white" stroke-width="1" /><polyline fill="none" points="528.8,707.0 528.0,706.2 527.2,707.0 528.0,707.8 528.8,707.0" stroke="white" stroke-width="1" /><polyline fill="none" points="520.8,744.0 520.0,743.2 519.2,744.0 520.0,744.8 520.8,744.0" stroke="white" stroke-width="1" /><polyline fill="none" points="368.0,766.2 367.8,766.0 368.0,765.8 368.2,766.0 368.0,766.2" stroke="white" stroke-width="1" /><polyline fill="none" points="511.0,778.2 510.8,778.0 511.0,777.8 511.2,778.0 511.0,778.2" stroke="white" stroke-width="1" /><polyline fill="none" points="345.0,868.2 344.8,868.0 345.0,867.8 345.2,868.0 345.0,868.2" stroke="white" stroke-width="1" /><polyline fill="none" points="495.0,896.2 494.8,896.0 495.0,895.8 495.2,896.0 495.0,896.2" stroke="white" stroke-width="1" /><polyline fill="none" points="495.0,930.2 494.8,930.0 495.0,929.8 495.2,930.0 495.0,930.2" stroke="white" stroke-width="1" /><polyline fill="none" points="495.0,936.2 494.8,936.0 495.0,935.8 495.2,936.0 495.0,936.2" stroke="white" stroke-width="1" /><polyline fill="none" points="415.0,987.2 414.8,987.0 414.8,986.0 415.0,985.8 415.2,986.0 415.2,987.0 415.0,987.2" stroke="white" stroke-width="1" /><polyline fill="none" points="324.0,989.2 323.8,989.0 324.0,988.8 324.2,989.0 324.0,989.2" stroke="white" stroke-width="1" /><polyline fill="none" points="389.0,995.2 388.8,995.0 389.0,994.8 389.2,995.0 389.0,995.2" stroke="white" stroke-width="1" /><polyline fill="none" points="397.0,999.2 396.8,999.0 397.0,998.8 397.2,999.0 397.0,999.2" stroke="white" stroke-width="1" /><polyline fill="none" points="389.0,1020.2 388.8,1020.0 388.8,1019.0 389.0,1018.8 389.2,1019.0 389.2,1020.0 389.0,1020.2" stroke="white" stroke-width="1" /><polyline fill="none" points="390.0,1029.2 389.0,1029.2 388.8,1029.0 388.8,1028.0 389.0,1027.8 389.2,1028.0 390.0,1028.8 390.2,1029.0 390.0,1029.2" stroke="white" stroke-width="1" /><polyline fill="none" points="367.0,1050.2 366.8,1050.0 366.8,1049.0 367.0,1048.8 367.2,1049.0 367.2,1050.0 367.0,1050.2" stroke="white" stroke-width="1" /><polyline fill="none" points="311.0,1054.2 310.8,1054.0 311.0,1053.8 311.2,1054.0 311.0,1054.2" stroke="white" stroke-width="1" /><polyline fill="none" points="379.0,1054.2 378.8,1054.0 379.0,1053.8 379.2,1054.0 379.0,1054.2" stroke="white" stroke-width="1" /><polyline fill="none" points="347.0,1074.2 346.8,1074.0 347.0,1073.8 347.2,1074.0 347.0,1074.2" stroke="white" stroke-width="1" /><polyline fill="none" points="349.0,1075.2 348.8,1075.0 349.0,1074.8 349.2,1075.0 349.0,1075.2" stroke="white" stroke-width="1" /><polyline fill="none" points="342.0,1079.2 341.8,1079.0 342.0,1078.8 342.2,1079.0 342.0,1079.2" stroke="white" stroke-width="1" /><polyline fill="none" points="343.0,1086.2 342.8,1086.0 343.0,1085.8 343.2,1086.0 343.0,1086.2" stroke="white" stroke-width="1" /><polyline fill="none" points="365.0,1119.2 364.8,1119.0 365.0,1118.8 365.2,1119.0 365.0,1119.2" stroke="white" stroke-width="1" /><polyline fill="none" points="358.0,1124.2 357.8,1124.0 358.0,1123.8 358.2,1124.0 358.0,1124.2" stroke="white" stroke-width="1" /><polyline fill="none" points="379.0,1128.2 378.8,1128.0 379.0,1127.8 379.2,1128.0 379.0,1128.2" stroke="white" stroke-width="1" /><polyline fill="none" points="371.0,1132.2 370.8,1132.0 371.0,1131.8 371.2,1132.0 371.0,1132.2" stroke="white" stroke-width="1" /><polyline fill="none" points="381.0,1132.2 380.8,1132.0 381.0,1131.8 381.2,1132.0 381.0,1132.2" stroke="white" stroke-width="1" /><polyline fill="none" points="389.0,1134.2 388.8,1134.0 389.0,1133.8 389.2,1134.0 389.0,1134.2" stroke="white" stroke-width="1" /><polyline fill="none" points="350.0,1135.2 349.8,1135.0 350.0,1134.8 350.2,1135.0 350.0,1135.2" stroke="white" stroke-width="1" /><polyline fill="none" points="370.0,1136.2 369.0,1136.2 368.8,1136.0 369.0,1135.8 370.0,1135.8 370.2,1136.0 370.0,1136.2" stroke="white" stroke-width="1" /><polyline fill="none" points="478.0,1137.2 477.8,1137.0 478.0,1136.8 478.2,1137.0 478.0,1137.2" stroke="white" stroke-width="1" /><polyline fill="none" points="375.0,1139.2 374.8,1139.0 375.0,1138.8 375.2,1139.0 375.0,1139.2" stroke="white" stroke-width="1" /><polyline fill="none" points="346.0,1146.2 345.8,1146.0 345.8,1145.0 346.0,1144.8 346.2,1145.0 346.2,1146.0 346.0,1146.2" stroke="white" stroke-width="1" /><polyline fill="none" points="344.0,1147.2 343.8,1147.0 344.0,1146.8 344.2,1147.0 344.0,1147.2" stroke="white" stroke-width="1" /><polyline fill="none" points="341.0,1152.2 340.8,1152.0 341.0,1151.8 341.2,1152.0 341.0,1152.2" stroke="white" stroke-width="1" /><polyline fill="none" points="341.0,1167.2 340.8,1167.0 341.0,1166.8 341.2,1167.0 341.0,1167.2" stroke="white" stroke-width="1" /><polyline fill="none" points="475.0,1175.2 474.8,1175.0 475.0,1174.8 475.2,1175.0 475.0,1175.2" stroke="white" stroke-width="1" /><polyline fill="none" points="343.0,1178.2 342.0,1178.2 341.8,1178.0 342.0,1177.8 343.0,1177.8 343.2,1178.0 343.0,1178.2" stroke="white" stroke-width="1" /><polyline fill="none" points="372.0,1184.2 371.8,1184.0 372.0,1183.8 372.2,1184.0 372.0,1184.2" stroke="white" stroke-width="1" /><polyline fill="none" points="365.0,1200.2 364.8,1200.0 365.0,1199.8 365.2,1200.0 365.0,1200.2" stroke="white" stroke-width="1" /><polyline fill="none" points="303.0,1205.2 302.8,1205.0 303.0,1204.8 303.2,1205.0 303.0,1205.2" stroke="white" stroke-width="1" /><polyline fill="none" points="479.0,1208.2 478.0,1208.2 477.8,1208.0 478.0,1207.8 479.0,1207.8 479.2,1208.0 479.0,1208.2" stroke="white" stroke-width="1" /><polyline fill="none" points="488.8,1233.0 488.8,1232.0 488.8,1231.0 488.0,1230.2 487.2,1231.0 487.2,1232.0 487.2,1233.0 488.0,1233.8 488.8,1233.0" stroke="white" stroke-width="1" /><polyline fill="none" points="373.0,1241.2 372.8,1241.0 373.0,1240.8 373.2,1241.0 373.0,1241.2" stroke="white" stroke-width="1" /><polyline fill="none" points="379.0,1247.2 378.8,1247.0 379.0,1246.8 379.2,1247.0 379.0,1247.2" stroke="white" stroke-width="1" /><polyline fill="none" points="382.0,1247.2 381.8,1247.0 382.0,1246.8 382.2,1247.0 382.0,1247.2" stroke="white" stroke-width="1" /><polyline fill="none" points="310.0,1260.2 309.8,1260.0 310.0,1259.8 310.2,1260.0 310.0,1260.2" stroke="white" stroke-width="1" /><polyline fill="none" points="381.0,1261.2 380.8,1261.0 381.0,1260.8 381.2,1261.0 381.0,1261.2" stroke="white" stroke-width="1" /><polyline fill="none" points="371.0,1268.2 370.8,1268.0 371.0,1267.8 371.2,1268.0 371.0,1268.2" stroke="white" stroke-width="1" /><polyline fill="none" points="371.0,1272.2 370.8,1272.0 371.0,1271.8 371.2,1272.0 371.0,1272.2" stroke="white" stroke-width="1" /><polyline fill="none" points="519.0,1275.2 518.8,1275.0 519.0,1274.8 519.2,1275.0 519.0,1275.2" stroke="white" stroke-width="1" /><polyline fill="none" points="389.0,1289.2 388.8,1289.0 388.0,1288.2 387.8,1288.0 388.0,1287.8 389.0,1287.8 389.2,1288.0 389.2,1289.0 389.0,1289.2" stroke="white" stroke-width="1" /><polyline fill="none" points="388.0,1293.2 387.8,1293.0 388.0,1292.8 388.2,1293.0 388.0,1293.2" stroke="white" stroke-width="1" /><polyline fill="none" points="357.0,1295.2 356.8,1295.0 356.8,1294.0 357.0,1293.8 357.2,1294.0 357.2,1295.0 357.0,1295.2" stroke="white" stroke-width="1" /><polyline fill="none" points="381.0,1295.2 380.0,1295.2 379.8,1295.0 380.0,1294.8 381.0,1294.8 381.2,1295.0 381.0,1295.2" stroke="white" stroke-width="1" /><polyline fill="none" points="390.0,1299.2 389.8,1299.0 390.0,1298.8 390.2,1299.0 390.0,1299.2" stroke="white" stroke-width="1" /><polyline fill="none" points="394.0,1339.2 393.8,1339.0 394.0,1338.8 394.2,1339.0 394.0,1339.2" stroke="white" stroke-width="1" /><polyline fill="none" points="372.0,1350.2 371.8,1350.0 372.0,1349.8 372.2,1350.0 372.0,1350.2" stroke="white" stroke-width="1" /><polyline fill="none" points="371.0,1351.2 370.8,1351.0 371.0,1350.8 371.2,1351.0 371.0,1351.2" stroke="white" stroke-width="1" /><polyline fill="none" points="402.0,1370.2 401.8,1370.0 401.8,1369.0 402.0,1368.8 402.2,1369.0 402.2,1370.0 402.0,1370.2" stroke="white" stroke-width="1" /><polyline fill="none" points="385.0,1372.2 384.8,1372.0 384.8,1371.0 385.0,1370.8 385.2,1371.0 385.2,1372.0 385.0,1372.2" stroke="white" stroke-width="1" /><polyline fill="none" points="386.0,1375.2 385.8,1375.0 386.0,1374.8 386.2,1375.0 386.0,1375.2" stroke="white" stroke-width="1" /><polyline fill="none" points="389.0,1375.2 388.8,1375.0 389.0,1374.8 389.2,1375.0 389.0,1375.2" stroke="white" stroke-width="1" /><polyline fill="none" points="385.0,1376.2 384.8,1376.0 385.0,1375.8 385.2,1376.0 385.0,1376.2" stroke="white" stroke-width="1" /><polyline fill="none" points="567.0,1390.2 566.8,1390.0 566.8,1389.0 567.0,1388.8 567.2,1389.0 567.2,1390.0 567.0,1390.2" stroke="white" stroke-width="1" /><polyline fill="none" points="439.0,1416.2 438.8,1416.0 439.0,1415.8 439.2,1416.0 439.0,1416.2" stroke="white" stroke-width="1" /><polyline fill="none" points="450.0,1416.2 449.8,1416.0 450.0,1415.8 450.2,1416.0 450.0,1416.2" stroke="white" stroke-width="1" /><polyline fill="none" points="431.0,1418.2 430.8,1418.0 431.0,1417.8 431.2,1418.0 431.0,1418.2" stroke="white" stroke-width="1" /><polyline fill="none" points="474.0,1423.2 473.8,1423.0 473.8,1422.0 474.0,1421.8 474.2,1422.0 474.2,1423.0 474.0,1423.2" stroke="white" stroke-width="1" /><polyline fill="none" points="443.0,1423.2 442.8,1423.0 443.0,1422.8 443.2,1423.0 443.0,1423.2" stroke="white" stroke-width="1" /><polyline fill="none" points="444.0,1425.2 443.8,1425.0 443.8,1424.0 444.0,1423.8 444.2,1424.0 444.2,1425.0 444.0,1425.2" stroke="white" stroke-width="1" /><polyline fill="none" points="452.0,1424.2 451.8,1424.0 452.0,1423.8 452.2,1424.0 452.0,1424.2" stroke="white" stroke-width="1" /><polyline fill="none" points="465.0,1426.2 464.8,1426.0 465.0,1425.8 465.2,1426.0 465.0,1426.2" stroke="white" stroke-width="1" /><polyline fill="none" points="448.0,1429.2 447.8,1429.0 448.0,1428.8 448.2,1429.0 448.0,1429.2" stroke="white" stroke-width="1" /><polyline fill="none" points="484.0,1444.2 483.8,1444.0 484.0,1443.8 484.2,1444.0 484.0,1444.2" stroke="white" stroke-width="1" /><polyline fill="none" points="497.0,1445.2 496.8,1445.0 497.0,1444.8 497.2,1445.0 497.0,1445.2" stroke="white" stroke-width="1" /><polyline fill="none" points="393.0,1457.2 392.8,1457.0 393.0,1456.8 393.2,1457.0 393.0,1457.2" stroke="white" stroke-width="1" /><polyline fill="none" points="596.0,1457.2 595.8,1457.0 596.0,1456.8 596.2,1457.0 596.0,1457.2" stroke="white" stroke-width="1" /><polyline fill="none" points="522.0,1466.2 521.8,1466.0 522.0,1465.8 522.2,1466.0 522.0,1466.2" stroke="white" stroke-width="1" /><polyline fill="none" points="598.0,1492.2 597.8,1492.0 598.0,1491.8 598.2,1492.0 598.0,1492.2" stroke="white" stroke-width="1" /><polyline fill="none" points="593.0,1509.2 592.8,1509.0 593.0,1508.8 593.2,1509.0 593.0,1509.2" stroke="white" stroke-width="1" /><polyline fill="none" points="589.0,1518.2 588.8,1518.0 589.0,1517.8 589.2,1518.0 589.0,1518.2" stroke="white" stroke-width="1" /><polyline fill="none" points="442.8,1533.0 442.0,1532.2 441.2,1533.0 442.0,1533.8 442.8,1533.0" stroke="white" stroke-width="1" /></svg>