<?xml version="1.0" encoding="utf-8"?>
<!DOCTYPE svg PUBLIC "-//W3C//DTD SVG 20010904//EN" "http://www.w3.org/TR/2001/REC-SVG-20010904/DTD/svg10.dtd">
<svg version="1.0" xmlns="http://www.w3.org/2000/svg" width="1382pt" height="622pt" viewBox="0 0 1382 622" style="" preserveAspectRatio="xMidYMid meet">
<g fill="#FFFFFFFF" stroke="#FFFFFFFF">
<path d="M 1105.000 199.686 C 1086.070 201.101 1056.701 207.006 1038.250 213.107 L 1029.000 216.165 1029.000 320.082 L 1029.000 424.000 1055.500 424.000 L 1082.000 424.000 1082.000 334.023 L 1082.000 244.046 1084.250 242.586 C 1088.924 239.552 1099.934 238.500 1127.000 238.500 C 1154.744 238.500 1162.297 239.268 1172.658 243.145 C 1178.896 245.479 1184.335 249.830 1186.725 254.398 C 1191.292 263.128 1191.353 264.246 1191.737 346.250 L 1192.102 424.000 1218.606 424.000 L 1245.111 424.000 1244.715 345.750 C 1244.279 259.732 1244.250 259.288 1237.982 243.178 C 1227.729 216.828 1203.757 203.791 1158.696 200.060 C 1146.977 199.090 1115.872 198.873 1105.000 199.686 "/></g>
<g fill="#FFFFFFFF" stroke="#FFFFFFFF">
<path d="M 835.500 197.071 C 812.641 199.297 796.630 204.266 784.205 212.992 C 771.472 221.934 762.904 235.999 758.919 254.500 C 756.993 263.443 756.713 268.511 756.274 302.441 C 755.748 343.090 756.620 359.284 760.061 372.739 C 762.993 384.204 768.313 394.079 775.946 402.228 L 782.585 409.315 788.828 401.554 C 796.492 392.027 800.828 385.317 805.830 375.241 C 809.609 367.629 809.650 367.425 808.290 363.000 C 804.437 350.461 804.544 272.191 808.434 258.025 C 813.702 238.840 831.803 233.109 878.500 235.841 C 910.291 237.701 918.529 241.095 924.607 254.838 C 928.458 263.545 929.235 275.511 928.724 318.237 C 928.211 361.161 927.530 366.527 921.611 374.288 C 915.124 382.793 900.358 387.000 876.990 387.000 L 864.242 387.000 859.385 395.653 C 856.714 400.413 851.295 409.075 847.343 414.903 L 840.158 425.500 870.329 425.482 C 902.698 425.462 912.054 424.610 926.951 420.324 C 946.850 414.598 961.264 403.424 968.933 387.778 C 976.562 372.211 977.987 362.545 978.699 321.500 C 979.781 259.117 975.908 239.008 959.308 220.829 C 951.502 212.281 948.293 209.907 938.617 205.520 C 922.503 198.215 908.264 196.241 871.500 196.214 C 856.650 196.203 840.450 196.589 835.500 197.071 "/></g>
<g fill="#FFFFFFFF" stroke="#FFFFFFFF">
<path d="M 217.768 197.049 C 197.546 199.147 178.404 204.572 167.187 211.386 C 160.464 215.471 151.531 224.496 147.669 231.106 C 143.616 238.045 140.229 248.988 138.299 261.379 C 135.756 277.712 135.775 344.403 138.327 360.811 C 144.356 399.564 163.268 416.581 208.235 423.713 C 228.705 426.960 302.418 426.026 317.750 422.326 C 319.978 421.789 320.000 421.609 320.000 404.142 L 320.000 386.500 272.250 386.500 C 230.070 386.500 223.529 386.291 216.176 384.704 C 194.499 380.029 189.301 373.927 187.022 350.481 C 185.767 337.570 185.767 284.430 187.022 271.519 C 189.310 247.987 194.399 241.982 216.000 237.330 C 223.554 235.704 229.706 235.500 271.250 235.500 L 318.000 235.500 318.000 217.795 L 318.000 200.091 314.750 199.556 C 297.859 196.775 235.860 195.172 217.768 197.049 "/></g>
<g fill="#EF2AC1FF" stroke="#EF2AC1FF">
<path d="M 868.567 240.295 C 864.814 246.700 852.311 273.856 844.693 292.151 C 832.269 321.985 806.143 376.507 798.710 388.112 C 789.058 403.180 774.742 417.295 757.000 429.236 C 746.160 436.532 723.363 448.255 712.300 452.223 C 708.835 453.465 706.000 454.845 706.000 455.287 C 706.000 456.007 715.297 473.806 727.628 496.693 L 732.042 504.886 741.663 500.881 C 787.126 481.960 820.229 455.201 846.666 416.000 C 862.750 392.150 872.898 372.557 890.691 331.000 C 896.461 317.525 906.570 295.195 913.157 281.377 C 925.050 256.428 925.123 256.230 923.709 252.847 C 919.201 242.056 907.826 237.325 883.873 236.276 L 871.247 235.723 868.567 240.295 "/></g>
<g fill="#FFFFFFFF" stroke="#FFFFFFFF">
<path d="M 540.000 197.064 C 499.572 201.575 481.647 219.042 475.928 259.500 C 475.204 264.619 474.616 295.684 474.294 345.750 L 473.792 424.000 497.396 424.000 L 521.000 424.000 521.008 350.750 C 521.015 277.122 521.470 265.272 524.682 255.061 C 527.634 245.677 535.141 240.320 550.404 236.706 C 553.776 235.908 565.396 235.500 584.750 235.500 L 614.001 235.500 614.000 217.861 L 614.000 200.223 610.750 199.621 C 596.478 196.979 554.390 195.458 540.000 197.064 "/></g>
<g fill="#FFFFFFFF" stroke="#FFFFFFFF">
<path d="M 654.000 311.500 L 654.000 424.000 679.000 424.000 L 704.000 424.000 704.000 311.500 L 704.000 199.000 679.000 199.000 L 654.000 199.000 654.000 311.500 "/></g>
<g fill="#FFFFFFFF" stroke="#FFFFFFFF">
<path d="M 376.000 311.500 L 376.000 424.000 401.000 424.000 L 426.000 424.000 426.000 311.500 L 426.000 199.000 401.000 199.000 L 376.000 199.000 376.000 311.500 "/></g>
<g fill="#EF2AC1FF" stroke="#EF2AC1FF">
<path d="M 999.000 119.237 C 997.625 119.857 991.239 122.715 984.809 125.589 C 951.094 140.657 924.601 161.045 900.137 190.750 C 897.707 193.701 896.402 196.008 897.157 196.018 C 900.974 196.070 920.172 199.219 925.444 200.658 C 932.958 202.709 942.928 207.104 949.209 211.134 L 953.978 214.194 962.239 206.496 C 966.782 202.262 975.456 195.489 981.512 191.446 C 992.288 184.252 1014.306 173.006 1024.750 169.362 C 1027.638 168.355 1029.988 167.299 1029.973 167.015 C 1029.859 164.845 1004.178 118.480 1003.000 118.318 C 1002.175 118.204 1000.375 118.618 999.000 119.237 "/></g>
<g fill="#FFFFFFFF" stroke="#FFFFFFFF">
<path d="M 668.287 116.945 C 661.625 118.003 657.105 120.662 654.535 125.035 C 652.741 128.090 652.500 130.217 652.500 143.000 C 652.500 160.281 653.507 162.995 661.376 166.909 C 665.635 169.027 667.623 169.323 677.859 169.365 C 694.148 169.430 700.336 167.009 703.629 159.282 C 705.300 155.360 705.529 131.531 703.936 127.315 C 702.365 123.157 698.094 119.123 694.057 117.984 C 688.995 116.557 674.431 115.970 668.287 116.945 "/></g>
<g fill="#FFFFFFFF" stroke="#FFFFFFFF">
<path d="M 390.287 116.949 C 383.627 118.001 379.106 120.660 376.535 125.035 C 374.741 128.090 374.500 130.217 374.500 143.000 C 374.500 160.341 375.493 162.989 383.491 166.964 C 387.934 169.173 389.700 169.429 400.500 169.429 C 411.309 169.429 413.058 169.175 417.474 166.964 C 425.990 162.701 426.500 161.347 426.500 143.000 C 426.500 124.811 425.942 123.265 417.948 119.287 C 412.843 116.746 398.983 115.575 390.287 116.949 "/></g>
</svg>
