<?xml version="1.0" encoding="UTF-8"?>
<svg version="1.1" xmlns="http://www.w3.org/2000/svg" width="1380" height="620">
<path d="M0 0 C3.99894122 7.44006059 7.98960787 14.8844379 11.96841431 22.33528137 C14.12625959 26.37378214 16.2995132 30.40360158 18.48046875 34.4296875 C19.48742378 36.30705326 20.49396278 38.18464225 21.5 40.0625 C21.9741333 40.9289917 22.4482666 41.7954834 22.93676758 42.68823242 C23.35982178 43.48334229 23.78287598 44.27845215 24.21875 45.09765625 C24.58935547 45.78351807 24.95996094 46.46937988 25.34179688 47.17602539 C26 49 26 49 25 52 C23.41552734 52.88452148 23.41552734 52.88452148 21.3359375 53.62109375 C20.55492676 53.91032715 19.77391602 54.19956055 18.96923828 54.49755859 C18.11313965 54.80773926 17.25704102 55.11791992 16.375 55.4375 C-0.87778567 62.03166094 -17.55515234 70.39907832 -32 82 C-32.57991699 82.46325684 -33.15983398 82.92651367 -33.75732422 83.40380859 C-35.53771524 84.83864256 -37.30385272 86.28861344 -39.0625 87.75 C-39.58730957 88.18578369 -40.11211914 88.62156738 -40.65283203 89.07055664 C-44.20716781 92.10964614 -47.09824108 95.35815945 -50 99 C-49.12794922 99.36351562 -49.12794922 99.36351562 -48.23828125 99.734375 C-38.21233036 105.40349906 -32.25591972 119.93371562 -29.1953125 130.61328125 C-19.17700177 170.30120451 -16.33187952 238.55990467 -36.671875 275.265625 C-42.61520148 285.2189067 -50.7859834 292.53976923 -61 298 C-61.79148437 298.44730469 -62.58296875 298.89460938 -63.3984375 299.35546875 C-69.29431355 302.37780269 -75.47851338 304.08689959 -81.875 305.6875 C-82.6572998 305.89004395 -83.43959961 306.09258789 -84.24560547 306.30126953 C-98.14364234 309.56036326 -112.38750939 310.23783453 -126.6015625 309.73828125 C-128.20111282 309.69008492 -128.20111282 309.69008492 -129.83297729 309.64091492 C-134.21181104 309.50627807 -138.5869325 309.36954586 -142.96142578 309.12915039 C-156.16503029 307.85214466 -156.16503029 307.85214466 -167.80737305 312.76049805 C-170.70854132 315.89197401 -172.80973167 319.34803382 -175 323 C-176.48191894 324.76263089 -177.9965973 326.49903913 -179.5625 328.1875 C-180.28824219 328.98414063 -181.01398438 329.78078125 -181.76171875 330.6015625 C-201.4032337 351.64849126 -225.00639851 367.38163627 -250.8125 379.875 C-251.74271973 380.3275415 -252.67293945 380.78008301 -253.63134766 381.24633789 C-260.26236483 384.38608175 -266.99759148 386.81983868 -274 389 C-274.3309668 388.35788574 -274.66193359 387.71577148 -275.00292969 387.05419922 C-276.58267258 383.99310761 -278.16578276 380.93377848 -279.75 377.875 C-280.62060059 376.19325684 -280.62060059 376.19325684 -281.50878906 374.47753906 C-285.96571956 365.90392018 -290.55618055 357.41195333 -295.30371094 348.99560547 C-295.77583008 348.14627441 -296.24794922 347.29694336 -296.734375 346.421875 C-297.14913086 345.68549805 -297.56388672 344.94912109 -297.99121094 344.19042969 C-299.08979213 341.80503026 -299.58330405 339.58533153 -300 337 C-299.29762207 336.71519775 -298.59524414 336.43039551 -297.87158203 336.13696289 C-257.02846018 319.89763815 -257.02846018 319.89763815 -225 291 C-225.556875 290.50113281 -226.11375 290.00226563 -226.6875 289.48828125 C-244.76128477 272.48304795 -248.62087391 250.84071623 -250 227 C-250.14009963 222.08290002 -250.16372155 217.16891547 -250.16796875 212.25 C-250.17119805 210.86157195 -250.17456324 209.47314421 -250.17805481 208.0847168 C-250.18399291 205.1904217 -250.18590042 202.29615621 -250.18530273 199.40185547 C-250.18522179 196.48154464 -250.19212264 193.56139173 -250.20581055 190.64111328 C-250.51689113 123.21065759 -250.51689113 123.21065759 -229.27685547 100.9597168 C-210.33130985 82.28352374 -180.41933914 78.48315433 -155 78 C-151.3240083 78.05909858 -147.65367395 78.20837624 -143.98046875 78.359375 C-141.04412066 78.45573438 -138.10766262 78.5477145 -135.17114258 78.63867188 C-133.17219604 78.71325821 -131.17393832 78.80918128 -129.17700195 78.92578125 C-117.00300457 80.0566622 -117.00300457 80.0566622 -106.36865234 75.27685547 C-103.4716084 72.11977536 -101.25611115 68.63278112 -99 65 C-97.95797322 63.75278535 -96.88767436 62.52730457 -95.765625 61.3515625 C-94.93546875 60.45179688 -94.1053125 59.55203125 -93.25 58.625 C-91.50716792 56.74297488 -89.75632155 54.86954354 -88 53 C-87.38640625 52.34386719 -86.7728125 51.68773437 -86.140625 51.01171875 C-72.94043185 37.34009013 -56.48036997 26.31972322 -40 17 C-39.4131543 16.66403809 -38.82630859 16.32807617 -38.22167969 15.98193359 C-30.30708324 11.48031482 -22.16253119 7.62783606 -13.8125 4 C-12.90290527 3.60167969 -11.99331055 3.20335938 -11.05615234 2.79296875 C-10.19844238 2.42816406 -9.34073242 2.06335938 -8.45703125 1.6875 C-7.69366455 1.36136719 -6.93029785 1.03523438 -6.14379883 0.69921875 C-4 0 -4 0 0 0 Z M-190.96484375 129.8984375 C-202.6071454 145.21276094 -199.18650118 171.69365139 -199.18530273 189.84887695 C-199.18748091 193.53022986 -199.20567037 197.21127827 -199.22460938 200.89257812 C-199.25190313 212.14128935 -199.0957146 223.31624229 -198.11328125 234.52734375 C-197.99668404 235.88672813 -197.99668404 235.88672813 -197.87773132 237.27357483 C-197.47126769 241.35105883 -197.0064009 244.37231782 -195 248 C-181.09341674 222.60821504 -169.5083518 196.16421383 -158.31939697 169.49252319 C-151.13970297 152.41291058 -143.32117819 135.55370913 -135 119 C-164.90350265 117.37282767 -164.90350265 117.37282767 -190.96484375 129.8984375 Z M-80 141 C-92.33537512 165.1834823 -103.53845465 189.75532678 -114.1602478 214.72781372 C-119.07968229 226.28734735 -124.08067547 237.79426102 -129.375 249.1875 C-129.89191406 250.30189453 -130.40882813 251.41628906 -130.94140625 252.56445312 C-132.94643651 256.83522133 -134.96437367 261.04169365 -137.3515625 265.11328125 C-139.16529527 267.73542459 -139.16529527 267.73542459 -139 270 C-110.19411754 270.8634399 -110.19411754 270.8634399 -85 259 C-76.25719705 248.80006322 -76.84092959 233.0589592 -76.4375 220.375 C-76.3957666 219.08464844 -76.3540332 217.79429687 -76.31103516 216.46484375 C-75.81940461 200.26712233 -75.89944242 184.13527947 -76.375 167.9375 C-76.40577637 166.74833984 -76.43655273 165.55917969 -76.46826172 164.33398438 C-76.73441117 156.43122303 -77.6255095 148.78581839 -79 141 C-79.33 141 -79.66 141 -80 141 Z " fill="#FEFEFE" transform="translate(1004,116)"/>
<path d="M0 0 C0.71110931 0.00060425 1.42221863 0.0012085 2.15487671 0.00183105 C34.73892961 0.07624355 72.94652374 1.04381739 98 24.8125 C116.26541546 44.09266077 117.43260601 71.82011307 117.36352539 96.97387695 C117.3632425 98.40434772 117.36340323 99.83481863 117.3639679 101.26528931 C117.36425191 105.10531918 117.35841977 108.94531708 117.35139394 112.78533959 C117.34509394 116.81450753 117.34455139 120.84367641 117.34336853 124.87284851 C117.34027465 132.48331392 117.33208775 140.09376478 117.32201904 147.70422381 C117.31079718 156.37666782 117.30533222 165.04911256 117.30032361 173.72156203 C117.28990328 191.54355126 117.27158228 209.36552055 117.25 227.1875 C99.43 227.1875 81.61 227.1875 63.25 227.1875 C63.18941406 218.46570313 63.12882812 209.74390625 63.06640625 200.7578125 C63.02066137 194.4682797 62.97440336 188.17875228 62.92741489 181.88922882 C62.86688179 173.77772955 62.80748946 165.66622772 62.75268555 157.5546875 C62.70923452 151.1240738 62.66282282 144.69348879 62.61312145 138.26292026 C62.58699893 134.87061123 62.56262036 131.47831369 62.54092598 128.08597183 C62.45431569 114.68144586 62.29171514 101.28696146 61.80834961 87.89013672 C61.77241227 86.84141451 61.73647493 85.7926923 61.69944859 84.71219063 C61.22834901 67.17213711 61.22834901 67.17213711 53.25 52.1875 C42.73712301 42.56156549 25.06354371 42.04441888 11.56640625 41.984375 C10.55263412 41.97867493 9.538862 41.97297485 8.49436951 41.96710205 C6.35376006 41.95769318 4.2131364 41.95113452 2.07250977 41.94726562 C-1.14659081 41.93762255 -4.3650349 41.90658494 -7.58398438 41.875 C-26.61195467 41.30507155 -26.61195467 41.30507155 -44.75 46.1875 C-45.9318246 49.73297379 -45.88977418 52.56165913 -45.90821838 56.30583191 C-45.91315636 57.0352675 -45.91809434 57.7647031 -45.92318195 58.5162428 C-45.93857183 60.96679952 -45.9469216 63.41733001 -45.95532227 65.86791992 C-45.96489962 67.62203706 -45.97490962 69.37615189 -45.98532104 71.13026428 C-46.01239164 75.89851482 -46.03338954 80.66677527 -46.05332303 85.43506026 C-46.07516929 90.41589786 -46.10256463 95.39670481 -46.12937927 100.3775177 C-46.17932456 109.81221472 -46.22425658 119.24692874 -46.26740164 128.68165904 C-46.31675832 139.42156869 -46.37168226 150.16144758 -46.42708123 160.90132749 C-46.54092948 182.99669107 -46.64702734 205.09208288 -46.75 227.1875 C-64.57 227.1875 -82.39 227.1875 -100.75 227.1875 C-100.75 157.8875 -100.75 88.5875 -100.75 17.1875 C-70.62498186 7.91826365 -70.62498186 7.91826365 -59.625 5.8125 C-57.80440063 5.45055542 -57.80440063 5.45055542 -55.94702148 5.08129883 C-47.24766727 3.38686151 -38.58482348 1.93195721 -29.75 1.1875 C-28.76080566 1.10282471 -27.77161133 1.01814941 -26.75244141 0.9309082 C-17.83026606 0.22254919 -8.94803587 -0.01420261 0 0 Z " fill="#FFFFFF" transform="translate(1127.75,196.8125)"/>
<path d="M0 0 C1.04798767 -0.00200409 2.09597534 -0.00400818 3.17572021 -0.006073 C24.62463426 -0.01606327 46.24152629 0.71733772 67.4375 4.25 C67.4375 16.46 67.4375 28.67 67.4375 41.25 C59.48269531 41.21519531 59.48269531 41.21519531 51.3671875 41.1796875 C47.95832828 41.1694392 44.54948871 41.1598093 41.140625 41.15234375 C35.75874772 41.14050029 30.37694001 41.12666737 24.99511719 41.09912109 C-16.76706082 38.58758734 -16.76706082 38.58758734 -54.86328125 51.55859375 C-64.58481379 61.23542959 -63.68607852 78.4924923 -63.72709656 91.16738892 C-63.72862618 92.70794643 -63.72973964 94.2485044 -63.73046875 95.7890625 C-63.73369009 97.39936349 -63.73705479 99.00966419 -63.74055481 100.6199646 C-63.74651893 103.98704709 -63.74839762 107.35410402 -63.74780273 110.72119141 C-63.7477015 114.99390768 -63.76132595 119.26645634 -63.77857494 123.53913307 C-63.78980517 126.86470258 -63.79171856 130.19023304 -63.79119301 133.51581955 C-63.79235767 135.08876495 -63.79669209 136.66171189 -63.80452538 138.23463821 C-64.48715359 160.48512181 -64.48715359 160.48512181 -55.98046875 180.05078125 C-39.52326251 194.01342149 -10.38402857 191.41347579 9.96484375 191.34765625 C11.69218403 191.34578553 13.41952484 191.34436473 15.14686584 191.34336853 C19.6396945 191.33959477 24.13248957 191.32980999 28.62530518 191.31866455 C34.04461727 191.30651498 39.46394075 191.30202366 44.88326263 191.29621124 C53.06803161 191.2865942 61.25272724 191.26740207 69.4375 191.25 C69.4375 203.46 69.4375 215.67 69.4375 228.25 C65.9725 228.724375 62.5075 229.19875 58.9375 229.6875 C57.88240234 229.83501709 56.82730469 229.98253418 55.74023438 230.13452148 C39.92221993 232.24577594 24.15539878 232.4364472 8.22216797 232.43530273 C4.83938884 232.43748267 1.4569403 232.45568815 -1.92578125 232.47460938 C-31.85418228 232.55289243 -65.45311871 231.62684904 -90.5625 213.25 C-91.50802734 212.59644531 -91.50802734 212.59644531 -92.47265625 211.9296875 C-106.60347239 201.17867932 -111.95396066 182.958752 -114.5625 166.25 C-115.32308722 160.49080343 -115.71439891 154.82518463 -115.72363281 149.01831055 C-115.72859772 148.24932938 -115.73356262 147.48034821 -115.73867798 146.68806458 C-115.75315017 144.17093977 -115.76007959 141.65387815 -115.765625 139.13671875 C-115.76845238 138.26526529 -115.77127975 137.39381184 -115.77419281 136.4959507 C-115.78913145 131.87579681 -115.79839213 127.25567367 -115.80273438 122.63549805 C-115.80818366 117.92378194 -115.83215158 113.21235997 -115.86070633 108.50073528 C-115.87957456 104.82582349 -115.88455115 101.1509788 -115.88607025 97.47602272 C-115.88904771 95.74252544 -115.89690386 94.00902787 -115.91025543 92.27557945 C-116.06801508 70.20230836 -114.02885599 47.54965306 -100.5625 29.25 C-100.12550781 28.61835938 -99.68851563 27.98671875 -99.23828125 27.3359375 C-85.67747362 9.49919954 -60.15205394 4.53508066 -39.296875 1.64453125 C-26.1801813 0.25877177 -13.18195135 0.01225256 0 0 Z " fill="#FFFFFF" transform="translate(250.5625,193.75)"/>
<path d="M0 0 C16.94506413 -0.56454372 36.23886042 -0.50464187 50.015625 10.62890625 C53.64318833 14.28189642 54.62443122 17.60299686 55.06253052 22.64059448 C54.95875543 26.5562429 53.47656773 29.44432834 51.65234375 32.84765625 C51.28945251 33.5689975 50.92656128 34.29033875 50.55267334 35.03353882 C49.77217591 36.58067809 48.98213605 38.12303417 48.18344116 39.66085815 C46.04965338 43.77388867 43.99074038 47.92435699 41.921875 52.0703125 C41.290821 53.32807747 41.290821 53.32807747 40.64701843 54.61125183 C36.73372485 62.4438655 33.15189605 70.39803899 29.6875 78.4375 C29.40658508 79.08678467 29.12567017 79.73606934 28.83624268 80.4050293 C27.15726366 84.28729881 25.48948159 88.17426388 23.82751465 92.06384277 C21.33267098 97.90109244 18.82623284 103.7333619 16.3125 109.5625 C16.04579498 110.18131042 15.77908997 110.80012085 15.50430298 111.43768311 C1.16529983 144.64938101 1.16529983 144.64938101 -4 152 C-4.66 152 -5.32 152 -6 152 C-6.20367188 152.77988281 -6.40734375 153.55976563 -6.6171875 154.36328125 C-8.52027495 159.36829372 -11.27850659 163.66754296 -14.125 168.1875 C-14.70741455 169.12134521 -15.2898291 170.05519043 -15.88989258 171.01733398 C-19.5493831 176.83733824 -23.32691957 182.48414137 -27.51171875 187.94140625 C-29.02921711 189.92195368 -29.02921711 189.92195368 -29.9921875 191.99609375 C-45.85380981 223.53490091 -85.24615129 247.07708438 -115.8125 261.875 C-116.74271973 262.3275415 -117.67293945 262.78008301 -118.63134766 263.24633789 C-125.26236483 266.38608175 -131.99759148 268.81983868 -139 271 C-139.3309668 270.35788574 -139.66193359 269.71577148 -140.00292969 269.05419922 C-141.58267258 265.99310761 -143.16578276 262.93377848 -144.75 259.875 C-145.62060059 258.19325684 -145.62060059 258.19325684 -146.50878906 256.47753906 C-150.96571956 247.90392018 -155.55618055 239.41195333 -160.30371094 230.99560547 C-160.77583008 230.14627441 -161.24794922 229.29694336 -161.734375 228.421875 C-162.14913086 227.68549805 -162.56388672 226.94912109 -162.99121094 226.19042969 C-164.08979213 223.80503026 -164.58330405 221.58533153 -165 219 C-164.29762207 218.71519775 -163.59524414 218.43039551 -162.87158203 218.13696289 C-137.24780728 207.6191171 -113.75134863 195.52798985 -93 177 C-92.04609375 176.20207031 -91.0921875 175.40414062 -90.109375 174.58203125 C-82.67546376 168.21752345 -77.32655168 161.1187757 -72 153 C-71.45859375 152.20335937 -70.9171875 151.40671875 -70.359375 150.5859375 C-66.56179333 144.68090666 -63.83222032 138.32089121 -61.01489258 131.91235352 C-57.58701967 124.16640476 -53.89999482 116.56188719 -50.17459106 108.95635986 C-41.55171791 91.34356543 -33.56508835 73.5220056 -25.98632812 55.43359375 C-21.56453144 44.88979736 -16.99185305 34.43652125 -12.1875 24.0625 C-11.39690186 22.34873169 -11.39690186 22.34873169 -10.59033203 20.6003418 C-7.3147571 13.58250777 -3.79627411 6.75034249 0 0 Z " fill="#EF2AC1" transform="translate(869,234)"/>
<path d="M0 0 C1.19625 0.07831055 2.3925 0.15662109 3.625 0.23730469 C25.77537139 1.83787139 25.77537139 1.83787139 28.0625 4.125 C28.15108646 6.86394085 28.17773479 9.5775327 28.16015625 12.31640625 C28.15803383 13.54616432 28.15803383 13.54616432 28.15586853 14.80076599 C28.15025289 17.42971382 28.13769779 20.05857773 28.125 22.6875 C28.11998701 24.46549357 28.11542376 26.24348846 28.11132812 28.02148438 C28.10027839 32.38935545 28.08300331 36.75716348 28.0625 41.125 C27.04131325 41.11500725 27.04131325 41.11500725 25.99949646 41.10481262 C18.84419531 41.03788217 11.68898463 40.99296253 4.53344727 40.96020508 C1.87115573 40.94692983 -0.79063637 40.9248256 -3.45288086 40.89868164 C-31.09874841 39.79005942 -31.09874841 39.79005942 -55.7734375 50.6171875 C-65.44245308 60.4748668 -64.09163899 77.43195483 -64.14282227 90.16992188 C-64.15241429 91.6883266 -64.16242512 93.20672874 -64.17282104 94.72512817 C-64.19973283 98.82781268 -64.22081623 102.93050853 -64.24082303 107.03323174 C-64.26276779 111.32804275 -64.29011474 115.62281935 -64.31687927 119.91760254 C-64.36669181 128.04174014 -64.41167283 136.16589696 -64.45490164 144.29007196 C-64.50437209 153.54282484 -64.55925369 162.79554318 -64.61458123 172.0482626 C-64.72822556 191.07381102 -64.83438826 210.09939137 -64.9375 229.125 C-80.7775 229.125 -96.6175 229.125 -112.9375 229.125 C-113.00551169 209.03469503 -113.06065205 188.94448487 -113.09293652 168.85409355 C-113.10833257 159.523455 -113.12928116 150.19289365 -113.16381836 140.86230469 C-113.19394527 132.71924282 -113.21312759 124.57623691 -113.21976548 116.43312085 C-113.22363878 112.13095034 -113.23258518 107.82893979 -113.25469017 103.52682114 C-113.54135169 45.40489817 -113.54135169 45.40489817 -96.75 20.9375 C-71.70769277 -4.10480723 -32.70231808 -2.15409471 0 0 Z " fill="#FFFFFF" transform="translate(585.9375,194.875)"/>
<path d="M0 0 C16.83 0 33.66 0 51 0 C51 74.91 51 149.82 51 227 C34.17 227 17.34 227 0 227 C0 152.09 0 77.18 0 0 Z " fill="#FFFFFF" transform="translate(652,197)"/>
<path d="M0 0 C16.83 0 33.66 0 51 0 C51 74.91 51 149.82 51 227 C34.17 227 17.34 227 0 227 C0 152.09 0 77.18 0 0 Z " fill="#FFFFFF" transform="translate(374,197)"/>
<path d="M0 0 C3.99894122 7.44006059 7.98960787 14.8844379 11.96841431 22.33528137 C14.12625959 26.37378214 16.2995132 30.40360158 18.48046875 34.4296875 C19.48742378 36.30705326 20.49396278 38.18464225 21.5 40.0625 C21.9741333 40.9289917 22.4482666 41.7954834 22.93676758 42.68823242 C23.35982178 43.48334229 23.78287598 44.27845215 24.21875 45.09765625 C24.58935547 45.78351807 24.95996094 46.46937988 25.34179688 47.17602539 C26 49 26 49 25 52 C23.41552734 52.88452148 23.41552734 52.88452148 21.3359375 53.62109375 C20.55492676 53.91032715 19.77391602 54.19956055 18.96923828 54.49755859 C18.11313965 54.80773926 17.25704102 55.11791992 16.375 55.4375 C-5.48032379 63.79079003 -24.45445328 75.18849514 -42.0625 90.45703125 C-45.0118079 93.010222 -47.99677996 95.51072387 -51 98 C-51.78761719 97.48050781 -52.57523438 96.96101563 -53.38671875 96.42578125 C-70.63447328 85.38313604 -89.60906657 80.74419465 -110 80 C-105.25804397 69.64751183 -95.75932794 61.19451018 -88 53 C-87.360625 52.31808594 -86.72125 51.63617188 -86.0625 50.93359375 C-72.89426347 37.290541 -56.44254653 26.29833389 -40 17 C-39.4131543 16.66403809 -38.82630859 16.32807617 -38.22167969 15.98193359 C-30.30708324 11.48031482 -22.16253119 7.62783606 -13.8125 4 C-12.44810791 3.40251953 -12.44810791 3.40251953 -11.05615234 2.79296875 C-10.19844238 2.42816406 -9.34073242 2.06335938 -8.45703125 1.6875 C-7.69366455 1.36136719 -6.93029785 1.03523438 -6.14379883 0.69921875 C-4 0 -4 0 0 0 Z " fill="#EF2AC1" transform="translate(1004,116)"/>
<path d="M0 0 C1.69286133 -0.0299707 1.69286133 -0.0299707 3.41992188 -0.06054688 C10.32822211 -0.05652808 16.18017434 0.57136337 22.0625 4.4375 C27.93074987 11.47939985 27.27383376 18.41026269 27.3125 27.1875 C27.333125 28.3425 27.35375 29.4975 27.375 30.6875 C27.40971089 38.28918501 27.30672953 45.0130355 21.8125 50.8125 C14.75164591 54.98482287 7.62396723 54.77348493 -0.375 54.75 C-1.46876953 54.76611328 -2.56253906 54.78222656 -3.68945312 54.79882812 C-11.53429842 54.80355109 -17.73546352 54.29148904 -23.8125 48.875 C-30.33948053 39.84271382 -28.91101453 24.28480114 -27.25 13.8125 C-26.11372211 9.14984247 -24.53666686 6.64545307 -20.9375 3.4375 C-13.98736574 0.07115455 -7.64053389 -0.04783487 0 0 Z " fill="#FFFFFF" transform="translate(677.9375,114.5625)"/>
<path d="M0 0 C1.64742188 -0.02416992 1.64742188 -0.02416992 3.328125 -0.04882812 C11.15615852 -0.05352119 17.15769455 0.5989566 23.5 5.5625 C28.46856364 11.99240589 27.96141104 19.45978446 27.9375 27.25 C27.95361328 28.29607422 27.96972656 29.34214844 27.98632812 30.41992188 C27.99046043 36.99441511 27.84080498 43.58568876 23.31445312 48.83129883 C16.4989322 54.98543061 8.90872873 54.6502294 0.25 54.625 C-1.39742188 54.64916992 -1.39742188 54.64916992 -3.078125 54.67382812 C-10.97830702 54.67856445 -17.29799659 54.25572065 -23.25 48.5625 C-27.66065849 41.81678702 -27.71410496 35.28064116 -27.6875 27.4375 C-27.70361328 26.49519531 -27.71972656 25.55289063 -27.73632812 24.58203125 C-27.74082025 18.08641559 -27.37724913 10.95289486 -23.06445312 5.72338867 C-16.27644378 -0.37059306 -8.59392819 -0.02504058 0 0 Z " fill="#FFFFFF" transform="translate(399.375,114.6875)"/>
</svg>
