<?xml version="1.0" encoding="iso-8859-1"?>
<!-- Generator: Adobe Illustrator 21.0.0, SVG Export Plug-In . SVG Version: 6.00 Build 0)  -->
<svg version="1.1" id="Capa_1" xmlns="http://www.w3.org/2000/svg" xmlns:xlink="http://www.w3.org/1999/xlink" x="0px" y="0px"
	 viewBox="0 0 116.61 90.38" style="enable-background:new 0 0 116.61 90.38;" xml:space="preserve">
<g>
	<path style="fill-rule:evenodd;clip-rule:evenodd;fill:#145A95;" d="M22.16,36.87c0.71-10.23,5.42-17.4,14.68-18.34
		c12.15-1.23,18.33,6.8,19.31,18.14C45.18,37.1,33.43,36.72,22.16,36.87L22.16,36.87z M64.56,52.23c4.17,0,11.43,0.8,13.07-1.31
		c1.27-1.65,0.83-6.73,0.69-10.15C77.44,16.12,64.62,2.81,43.25,0h-8.07C13.07,2.58,2.21,16.84,0,40.01v10.55
		C1.63,74.4,13.09,88.09,35.59,90.38h10.18c9.17-1.31,16.4-4.72,22.87-9.06c1.72-1.18,5.6-2.97,5.75-5.01
		c0.13-1.38-1.83-2.85-2.52-3.51c-2.34-2.39-4.02-3.98-6.27-6.13c-0.88-0.85-2.33-2.54-3.57-2.57c-1.41-0.06-3.39,1.83-5,2.95
		c-1.68,1.14-3.47,2.36-5,2.99c-11.16,4.44-23.68,0.37-27.89-7.78c-1.38-2.61-1.96-5.62-1.82-9.66
		C35.64,51.94,50.36,52.23,64.56,52.23L64.56,52.23z"/>
	<path style="fill-rule:evenodd;clip-rule:evenodd;fill:#D07332;" d="M95.88,5.39c3.77-0.88,7.46,4.11,9.65,6.86
		c6.62,8.35,11.18,20.03,11.08,34.64c-0.08,14.4-5.03,25.31-12,33.67c-2.03,2.47-5.09,6.73-8.39,6.66
		c-2.56-0.04-4.71-2.74-6.27-4.22c-1.31-1.23-4.71-3.55-4.82-5.77c-0.11-2.02,3.41-4.86,4.64-6.47c4.68-5.94,8.61-13.01,8.96-24.25
		c0.34-12.94-4.59-21.69-10.91-27.78c-1.07-1-2.3-2.33-2.34-3.16c-0.07-2.14,3.08-3.85,4.67-5.33C92.25,8.2,93.27,5.99,95.88,5.39
		L95.88,5.39z"/>
</g>
</svg>
