<?xml version="1.0" encoding="UTF-8"?>
<svg version="1.1" xmlns="http://www.w3.org/2000/svg" width="1024" height="427">
<path d="M0 0 C1.51052162 2.35788741 2.62872575 4.46436419 3.75 7 C4.42978157 8.4529999 5.11217018 9.90478236 5.796875 11.35546875 C6.15072266 12.1139209 6.50457031 12.87237305 6.86914062 13.65380859 C9.13781754 18.36062749 11.68555266 22.92627252 14.20605469 27.50195312 C17 32.6755606 17 32.6755606 17 36 C16.07960938 36.3403125 15.15921875 36.680625 14.2109375 37.03125 C4.89636301 40.56513409 -3.45755017 44.87867692 -12 50 C-13.19103755 50.65952045 -14.38244924 51.31836564 -15.57421875 51.9765625 C-18.76429688 53.86078197 -21.48099228 55.87206194 -24.3125 58.25 C-28.7810219 62 -28.7810219 62 -31 62 C-31 62.66 -31 63.32 -31 64 C-31.66 64 -32.32 64 -33 64 C-33 64.66 -33 65.32 -33 66 C-33.66 66.66 -34.32 67.32 -35 68 C-34.62488281 68.4125 -34.24976563 68.825 -33.86328125 69.25 C-20.85334245 83.93124077 -18.68480558 99.80474556 -18.69921875 119.05078125 C-18.69493362 120.3483989 -18.6906485 121.64601654 -18.68623352 122.98295593 C-18.67884228 125.70995208 -18.67900989 128.43681861 -18.68432617 131.16381836 C-18.68895802 133.92440073 -18.68202914 136.68454267 -18.66381836 139.44506836 C-18.36113016 185.70951058 -18.36113016 185.70951058 -35.5 203.5625 C-41.81973208 209.30771098 -50.60761359 212.74646177 -58.8125 214.75 C-60.12734375 215.07327271 -60.12734375 215.07327271 -61.46875 215.40307617 C-68.74814147 216.90804092 -75.81666401 217.18787459 -83.23046875 217.25390625 C-84.23100784 217.26410797 -85.23154694 217.27430969 -86.2624054 217.28482056 C-91.37305134 217.32283836 -96.47545101 217.29739759 -101.58520508 217.19628906 C-103.50471752 217.18877463 -105.42423264 217.1819119 -107.34375 217.17578125 C-108.22737717 217.14045792 -109.11100433 217.10513458 -110.02140808 217.06874084 C-114.94853624 217.08592192 -114.94853624 217.08592192 -118.8605957 219.83651733 C-120.4973755 222.01156446 -120.4973755 222.01156446 -121.83166504 224.27897644 C-122.21721558 224.84691422 -122.60276611 225.41485199 -123 226 C-123.66 226 -124.32 226 -125 226 C-125.226875 226.55171875 -125.45375 227.1034375 -125.6875 227.671875 C-127.38725926 230.68692417 -129.54804816 232.81230369 -132 235.25 C-133.3303125 236.58804688 -133.3303125 236.58804688 -134.6875 237.953125 C-137 240 -137 240 -139 240 C-139 240.66 -139 241.32 -139 242 C-140.83843061 243.615498 -142.67222096 245.09562242 -144.625 246.5625 C-145.20967041 247.00505127 -145.79434082 247.44760254 -146.39672852 247.90356445 C-161.10474012 258.89100329 -176.52762136 267.23783258 -194 273 C-198.41222903 265.7198221 -202.42821628 258.34486441 -206.15820312 250.69726562 C-207.74490387 247.45516163 -209.38821805 244.30781849 -211.23828125 241.20703125 C-213 238 -213 238 -213 235 C-212.42145264 234.75878418 -211.84290527 234.51756836 -211.24682617 234.26904297 C-196.85812834 228.24786467 -183.56044574 222.03589562 -170.84765625 212.953125 C-168 211 -168 211 -165.68359375 209.921875 C-163.63888355 209.05036549 -163.63888355 209.05036549 -163 206 C-162.34 206 -161.68 206 -161 206 C-161.58674476 202.75523078 -162.56319354 201.07347318 -164.8125 198.6875 C-172.20899192 190.37087033 -175.2550133 180.76011653 -176.6640625 169.90625 C-176.79019928 168.95069214 -176.91633606 167.99513428 -177.04629517 167.01062012 C-178.21433941 157.44701972 -178.45607348 147.94852241 -178.39111328 138.32275391 C-178.37499906 135.49983461 -178.39110586 132.67834607 -178.41015625 129.85546875 C-178.42174179 120.15600992 -177.92103992 110.65819496 -176.63671875 101.0390625 C-176.51682587 100.13643677 -176.39693298 99.23381104 -176.27340698 98.30383301 C-175.24418093 91.29997242 -173.31904356 85.28756107 -170 79 C-169.61972656 78.23945313 -169.23945312 77.47890625 -168.84765625 76.6953125 C-168.56792969 76.13585937 -168.28820312 75.57640625 -168 75 C-167.34 75 -166.68 75 -166 75 C-165.7421875 74.41089844 -165.484375 73.82179688 -165.21875 73.21484375 C-160.51279768 64.6626804 -150.09787188 60.22794631 -141.25 57.3125 C-126.62658071 53.42223359 -111.84098916 53.64862194 -96.82885742 53.61914062 C-93.95447458 53.60966906 -91.08117305 53.5760256 -88.20703125 53.5390625 C-86.88527641 53.54663071 -86.88527641 53.54663071 -85.53681946 53.55435181 C-83.28444544 53.51771834 -81.20527835 53.46023903 -79 53 C-77.0135755 51.11251108 -77.0135755 51.11251108 -76 49 C-75.34 49 -74.68 49 -74 49 C-73.76925781 48.45472656 -73.53851562 47.90945312 -73.30078125 47.34765625 C-67.27494604 36.47219991 -53.92401878 24.80457444 -43 19 C-42.34 19 -41.68 19 -41 19 C-41 18.34 -41 17.68 -41 17 C-39.58227539 15.91845703 -39.58227539 15.91845703 -37.59765625 14.7578125 C-36.50807617 14.11779297 -36.50807617 14.11779297 -35.39648438 13.46484375 C-34.62626953 13.02269531 -33.85605469 12.58054687 -33.0625 12.125 C-32.32708984 11.69058594 -31.59167969 11.25617188 -30.83398438 10.80859375 C-25.6998576 7.82228071 -20.46184976 5.3236846 -15 3 C-14.04609375 2.57074219 -13.0921875 2.14148438 -12.109375 1.69921875 C-11.33078125 1.36535156 -10.5521875 1.03148438 -9.75 0.6875 C-8.96109375 0.34074219 -8.1721875 -0.00601563 -7.359375 -0.36328125 C-4.33386245 -1.17976891 -2.90366855 -1.2424351 0 0 Z M-134 90 C-134.5775 90.474375 -135.155 90.94875 -135.75 91.4375 C-139.13981944 95.6747743 -139.56288282 100.86304451 -140.109375 106.08984375 C-140.19346619 106.87640854 -140.27755737 107.66297333 -140.36419678 108.47337341 C-141.17142506 116.67575475 -141.30305181 124.85012545 -141.26074219 133.08666992 C-141.24998833 135.5651891 -141.26073852 138.04298634 -141.2734375 140.52148438 C-141.28131331 151.14792219 -140.48583016 161.4798825 -139 172 C-135.90875693 168.26398933 -133.9410913 164.94694704 -132.125 160.4375 C-130.32999443 156.00127194 -128.38481509 151.74933881 -126.203125 147.48828125 C-122.94740232 141.04376187 -120.17909804 134.43462785 -117.44772339 127.75811768 C-113.17985651 117.34103336 -108.79189335 107.05418959 -103.58984375 97.0625 C-99.71442727 90.3270485 -99.71442727 90.3270485 -98 83 C-117.17766032 82.13617047 -117.17766032 82.13617047 -134 90 Z M-59 102 C-66.08532902 115.97683446 -72.66585607 130.10268556 -78.80419922 144.51953125 C-81.01170657 149.7034424 -83.25673688 154.86221975 -85.61328125 159.98046875 C-87.65934617 164.43570307 -89.67288594 168.90547351 -91.6875 173.375 C-92.08066406 174.24455322 -92.47382812 175.11410645 -92.87890625 176.01000977 C-94.66713325 179.97763843 -96.43656648 183.93674496 -98 188 C-78.74265811 188.99590858 -78.74265811 188.99590858 -62 181 C-50.45578266 165.28703752 -54.57714267 135.74749836 -55.4375 117.4375 C-55.47665527 116.591875 -55.51581055 115.74625 -55.55615234 114.875 C-55.78376835 110.51454012 -56.17115597 106.2974518 -57 102 C-57.66 102 -58.32 102 -59 102 Z " fill="#001689" transform="translate(714,70)"/>
<path d="M0 0 C0.9216394 -0.01035278 1.84327881 -0.02070557 2.79284668 -0.03137207 C20.52752098 -0.18830213 42.84699616 0.6732151 58.25 10.5625 C59.05308594 11.06910156 59.85617187 11.57570312 60.68359375 12.09765625 C62.39689075 13.2262317 64.10546428 14.36197619 65.8125 15.5 C65.8125 16.16 65.8125 16.82 65.8125 17.5 C66.4725 17.5 67.1325 17.5 67.8125 17.5 C83.75951352 34.21022072 80.96138445 60.1869123 80.91015625 81.3984375 C80.90828762 83.68771331 80.90686582 85.97698952 80.90586853 88.26626587 C80.90207836 94.24691909 80.89227857 100.22754743 80.88116455 106.20819092 C80.87087457 112.32889469 80.86635476 118.44960254 80.86132812 124.5703125 C80.85065265 136.5468876 80.83308482 148.52343783 80.8125 160.5 C67.9425 160.5 55.0725 160.5 41.8125 160.5 C41.75191406 154.4259375 41.69132813 148.351875 41.62890625 142.09375 C41.58830221 138.19270307 41.54747394 134.29166096 41.50585938 130.390625 C41.44015945 124.22983728 41.37518735 118.06904932 41.31518555 111.90820312 C41.09016153 85.02852711 41.09016153 85.02852711 40.46484375 58.15625 C40.44450577 57.2530603 40.42416779 56.34987061 40.4032135 55.41931152 C40.13722477 48.71999526 38.81564291 43.15121855 34.6875 37.6875 C24.91320107 30.25053342 10.89645514 30.16783275 -0.84472656 30.23925781 C-2.920224 30.24991132 -4.99484238 30.2393437 -7.0703125 30.2265625 C-8.43750184 30.2278857 -9.80469065 30.23045141 -11.171875 30.234375 C-12.97736816 30.23775879 -12.97736816 30.23775879 -14.81933594 30.24121094 C-20.97738103 30.60604035 -27.08065732 31.6275939 -33.1875 32.5 C-33.5175 74.74 -33.8475 116.98 -34.1875 160.5 C-47.0575 160.5 -59.9275 160.5 -73.1875 160.5 C-73.1875 111.66 -73.1875 62.82 -73.1875 12.5 C-64.91122263 9.49044459 -57.06004959 6.89770041 -48.52392578 5.01757812 C-46.95674498 4.67040746 -45.39254036 4.3095392 -43.83154297 3.93554688 C-29.27873056 0.52766463 -14.87779402 0.07585913 0 0 Z " fill="#001689" transform="translate(801.1875,125.5)"/>
<path d="M0 0 C1.73954704 -0.00287018 1.73954704 -0.00287018 3.51423645 -0.00579834 C5.95032978 -0.00714921 8.38643059 -0.00353029 10.82250977 0.00488281 C14.49317138 0.01554841 18.16333817 0.00497464 21.83398438 -0.0078125 C34.84222245 -0.01441248 47.43749001 0.51768288 60.33203125 2.265625 C60.33203125 11.175625 60.33203125 20.085625 60.33203125 29.265625 C58.45612305 29.28544434 56.58021484 29.30526367 54.64746094 29.32568359 C48.40489402 29.39383345 42.16247881 29.47063439 35.92008591 29.55315208 C32.14044514 29.60280565 28.36082823 29.6491345 24.58105469 29.6875 C20.92397059 29.72474862 17.26710267 29.77120728 13.6102066 29.82368851 C12.22462052 29.84202484 10.83898848 29.8572067 9.45333099 29.86896896 C-9.07565163 29.89167374 -9.07565163 29.89167374 -25.66796875 37.265625 C-30.01581652 42.96280484 -30.78478788 49.46205177 -30.82910156 56.45776367 C-30.83870911 57.68641647 -30.84831665 58.91506927 -30.85821533 60.18095398 C-30.86306525 61.51516533 -30.8673436 62.84937886 -30.87109375 64.18359375 C-30.87392113 64.86157831 -30.8767485 65.53956287 -30.87966156 66.23809242 C-30.8946198 69.82873545 -30.90386945 73.41933868 -30.90820312 77.01000977 C-30.91367106 80.69378022 -30.9376728 84.37717795 -30.96617508 88.06083202 C-30.98492953 90.91525792 -30.99001389 93.76959649 -30.991539 96.62407875 C-30.99598544 98.63461737 -31.01457053 100.64510901 -31.0335083 102.65556335 C-31.0130117 111.15453478 -30.6130005 119.07118584 -25.60546875 126.203125 C-21.54047696 129.05726817 -17.46467006 130.14423402 -12.66796875 131.265625 C-11.43925049 131.60102295 -10.21053223 131.9364209 -8.94458008 132.28198242 C-2.15982398 133.77783114 4.73614575 133.62351388 11.6484375 133.6796875 C13.11532136 133.69843051 14.58219479 133.71800618 16.04905701 133.7383728 C19.88101003 133.78936957 23.71299788 133.82916731 27.54510498 133.86651611 C31.46700424 133.9067611 35.3887627 133.95775917 39.31054688 134.0078125 C46.98428501 134.10418673 54.65807935 134.18771686 62.33203125 134.265625 C62.33203125 142.845625 62.33203125 151.425625 62.33203125 160.265625 C48.49991717 163.27539056 35.20492379 163.79252733 21.06982422 163.76660156 C17.36605873 163.76563389 13.66440342 163.80729209 9.9609375 163.8515625 C-11.47948401 163.95849082 -35.51789123 163.03804041 -52.91796875 149.015625 C-53.82546875 148.108125 -54.73296875 147.200625 -55.66796875 146.265625 C-55.66796875 145.605625 -55.66796875 144.945625 -55.66796875 144.265625 C-56.32796875 144.265625 -56.98796875 144.265625 -57.66796875 144.265625 C-68.40103719 131.52466961 -68.98803732 113.27734302 -68.93359375 97.484375 C-68.9355072 96.22782104 -68.93742065 94.97126709 -68.93939209 93.67663574 C-68.94108427 90.37441781 -68.93315731 87.07239483 -68.921875 83.77020264 C-68.91797109 81.76682478 -68.9218662 79.76362216 -68.92871094 77.76025391 C-68.94118091 73.85571417 -68.93953951 69.95142605 -68.93359375 66.046875 C-68.93764221 64.87249878 -68.94169067 63.69812256 -68.94586182 62.48815918 C-68.84841733 44.94503802 -66.26276715 29.19303429 -54.41796875 15.703125 C-52.66796875 14.265625 -52.66796875 14.265625 -50.66796875 14.265625 C-50.66796875 13.605625 -50.66796875 12.945625 -50.66796875 12.265625 C-34.31922139 3.55424867 -18.64384403 -0.06992061 0 0 Z " fill="#001689" transform="translate(170.66796875,123.734375)"/>
<path d="M0 0 C0.88558594 0.01675781 1.77117187 0.03351563 2.68359375 0.05078125 C10.96961406 0.47169665 20.37390723 2.57102953 26.1875 8.9375 C28.16819537 12.28419218 28.80142779 14.13015084 29 18 C27.94704727 20.66455539 26.87541952 22.95441744 25.5 25.4375 C24.74703028 26.86891568 23.99576234 28.30122768 23.24609375 29.734375 C22.67544189 30.81041992 22.67544189 30.81041992 22.09326172 31.90820312 C16.90224009 41.84046603 12.58255757 52.21678778 8.19555664 62.52001953 C5.98796221 67.70429972 3.74636063 72.86495725 1.3828125 77.98046875 C0.17314897 80.62190917 -1.01456844 83.27133775 -2.1953125 85.92578125 C-2.59427734 86.82031006 -2.99324219 87.71483887 -3.40429688 88.63647461 C-4.20224675 90.42659535 -4.9979175 92.21773422 -5.79101562 94.01000977 C-10.5037661 104.55735024 -10.5037661 104.55735024 -13.41796875 107.3671875 C-15.90552118 109.9345873 -17.52703102 113.05204226 -19.3125 116.125 C-22.32782269 121.24442148 -25.44502788 126.23646939 -28.796875 131.14453125 C-30.16465392 133.1784737 -30.16465392 133.1784737 -31.625 136.25 C-33.10682741 139.21365481 -34.76940396 141.55353982 -37 144 C-37.66 144 -38.32 144 -39 144 C-39.226875 144.55171875 -39.45375 145.1034375 -39.6875 145.671875 C-41.38725926 148.68692417 -43.54804816 150.81230369 -46 153.25 C-47.3303125 154.58804688 -47.3303125 154.58804688 -48.6875 155.953125 C-51 158 -51 158 -53 158 C-53 158.66 -53 159.32 -53 160 C-54.83843061 161.615498 -56.67222096 163.09562242 -58.625 164.5625 C-59.20967041 165.00505127 -59.79434082 165.44760254 -60.39672852 165.90356445 C-75.10474012 176.89100329 -90.52762136 185.23783258 -108 191 C-112.41222903 183.7198221 -116.42821628 176.34486441 -120.15820312 168.69726562 C-121.74490387 165.45516163 -123.38821805 162.30781849 -125.23828125 159.20703125 C-127 156 -127 156 -127 153 C-126.42145264 152.75878418 -125.84290527 152.51756836 -125.24682617 152.26904297 C-110.85812834 146.24786467 -97.56044574 140.03589562 -84.84765625 130.953125 C-82 129 -82 129 -79.68359375 127.921875 C-77.63888355 127.05036549 -77.63888355 127.05036549 -77 124 C-76.34 124 -75.68 124 -75 124 C-75 123.34 -75 122.68 -75 122 C-73.33409543 120.99873093 -71.66729593 119.99895048 -70 119 C-61.50755755 110.52450853 -55.81931451 99.14955604 -51.76196289 87.96923828 C-50.52924049 84.7833559 -48.94763143 81.77710873 -47.375 78.75 C-40.74105679 65.69865638 -34.89640375 52.33083077 -29.4375 38.75 C-26.24011179 30.79855467 -22.72533364 23.12548286 -18.7890625 15.515625 C-16.69097901 11.39275351 -14.82118574 7.19585885 -13.0078125 2.94140625 C-10.60399867 -1.68919635 -4.50680023 -0.13018268 0 0 Z " fill="#EE29C0" transform="translate(628,152)"/>
<path d="M0 0 C2.31448044 0.01064685 4.62817107 0.00008495 6.94262695 -0.01269531 C17.26313859 -0.02200479 27.45446987 0.56958289 37.64770508 2.26074219 C38.64770508 3.26074219 38.64770508 3.26074219 38.76123047 5.8527832 C38.75337524 7.54165649 38.75337524 7.54165649 38.74536133 9.26464844 C38.74052734 11.08706055 38.74052734 11.08706055 38.7355957 12.94628906 C38.72302734 14.86538086 38.72302734 14.86538086 38.71020508 16.82324219 C38.70569336 18.10650391 38.70118164 19.38976562 38.6965332 20.71191406 C38.68470053 23.89490241 38.66821576 27.07779981 38.64770508 30.26074219 C37.49882812 30.24503174 36.34995117 30.22932129 35.16625977 30.21313477 C30.84992657 30.15829223 26.53362331 30.12419715 22.21704102 30.09594727 C20.35891518 30.08098314 18.50082391 30.06060446 16.64282227 30.03442383 C-3.69691623 29.38508376 -3.69691623 29.38508376 -21.35229492 38.26074219 C-26.12363442 46.26427941 -25.50429899 56.14083703 -25.55761719 65.1965332 C-25.56751678 66.25123306 -25.57741638 67.30593292 -25.58761597 68.39259338 C-25.6189939 71.84992288 -25.64389389 75.30726609 -25.66870117 78.76464844 C-25.68929121 81.17317546 -25.7102882 83.58169903 -25.73167419 85.99021912 C-25.78668323 92.30792436 -25.8361853 98.62566106 -25.88452148 104.94342041 C-25.93489171 111.39883196 -25.99049651 117.85419821 -26.0456543 124.30957031 C-26.15297672 136.95992356 -26.25399438 149.61031561 -26.35229492 162.26074219 C-37.90229492 162.26074219 -49.45229492 162.26074219 -61.35229492 162.26074219 C-61.39764373 148.06447342 -61.43426726 133.86825349 -61.45591927 119.67192841 C-61.46631589 113.07862131 -61.48039912 106.48536673 -61.50317383 99.89208984 C-61.52505003 93.51838165 -61.53689447 87.1447237 -61.54204941 80.77098083 C-61.5457188 78.35036937 -61.55288348 75.92976037 -61.56375504 73.50917053 C-61.75907584 28.17997385 -61.75907584 28.17997385 -46.97729492 12.38574219 C-43.46706938 9.09924531 -39.77066964 7.08962457 -35.35229492 5.26074219 C-34.73741211 4.98488281 -34.1225293 4.70902344 -33.48901367 4.42480469 C-22.82966347 -0.03314302 -11.35883401 -0.06186858 0 0 Z " fill="#001689" transform="translate(400.352294921875,123.7392578125)"/>
<path d="M0 0 C12.21 0 24.42 0 37 0 C37 52.8 37 105.6 37 160 C24.79 160 12.58 160 0 160 C0 107.2 0 54.4 0 0 Z " fill="#001689" transform="translate(465,126)"/>
<path d="M0 0 C12.21 0 24.42 0 37 0 C37.02254549 20.71375522 37.04097828 41.42750056 37.05181217 62.14126492 C37.05697552 71.75832495 37.06401895 81.37537684 37.07543945 90.99243164 C37.08538512 99.37151169 37.09185315 107.75058584 37.09408849 116.12967163 C37.0953958 120.56916125 37.09848292 125.00863399 37.10573006 129.44811821 C37.11248842 133.62177273 37.11461734 137.79540333 37.11310768 141.96906281 C37.11338409 143.5054112 37.11539031 145.04176034 37.11920547 146.57810402 C37.12413987 148.66659617 37.12299925 150.75499657 37.12025452 152.8434906 C37.12117631 154.01508948 37.1220981 155.18668837 37.12304783 156.39379025 C37 159 37 159 36 160 C24.12 160 12.24 160 0 160 C0 107.2 0 54.4 0 0 Z " fill="#001689" transform="translate(270,126)"/>
<path d="M0 0 C1.51052162 2.35788741 2.62872575 4.46436419 3.75 7 C4.42978157 8.4529999 5.11217018 9.90478236 5.796875 11.35546875 C6.15072266 12.1139209 6.50457031 12.87237305 6.86914062 13.65380859 C9.13781754 18.36062749 11.68555266 22.92627252 14.20605469 27.50195312 C17 32.6755606 17 32.6755606 17 36 C16.07960938 36.3403125 15.15921875 36.680625 14.2109375 37.03125 C4.89636301 40.56513409 -3.45755017 44.87867692 -12 50 C-13.19103755 50.65952045 -14.38244924 51.31836564 -15.57421875 51.9765625 C-18.76429688 53.86078197 -21.48099228 55.87206194 -24.3125 58.25 C-28.7810219 62 -28.7810219 62 -31 62 C-31 62.66 -31 63.32 -31 64 C-31.66 64 -32.32 64 -33 64 C-33 64.66 -33 65.32 -33 66 C-35.171875 67.1953125 -35.171875 67.1953125 -38 68 C-40.515625 66.8046875 -40.515625 66.8046875 -43.25 64.875 C-53.89472433 58.20238339 -66.74076653 56.7951864 -79 55 C-77.5 52 -77.5 52 -76 49 C-75.34 49 -74.68 49 -74 49 C-73.76925781 48.45472656 -73.53851562 47.90945312 -73.30078125 47.34765625 C-67.27494604 36.47219991 -53.92401878 24.80457444 -43 19 C-42.34 19 -41.68 19 -41 19 C-41 18.34 -41 17.68 -41 17 C-39.58227539 15.91845703 -39.58227539 15.91845703 -37.59765625 14.7578125 C-36.87126953 14.33113281 -36.14488281 13.90445313 -35.39648438 13.46484375 C-34.62626953 13.02269531 -33.85605469 12.58054687 -33.0625 12.125 C-32.32708984 11.69058594 -31.59167969 11.25617188 -30.83398438 10.80859375 C-25.6998576 7.82228071 -20.46184976 5.3236846 -15 3 C-13.56914063 2.35611328 -13.56914063 2.35611328 -12.109375 1.69921875 C-11.33078125 1.36535156 -10.5521875 1.03148438 -9.75 0.6875 C-8.96109375 0.34074219 -8.1721875 -0.00601563 -7.359375 -0.36328125 C-4.33386245 -1.17976891 -2.90366855 -1.2424351 0 0 Z " fill="#EE29C0" transform="translate(714,70)"/>
<path d="M0 0 C0.77279297 -0.01611328 1.54558594 -0.03222656 2.34179688 -0.04882812 C7.66006536 -0.0533237 11.34187579 0.8343234 16.0625 3.3125 C20.70646374 8.11126254 20.27185481 13.89765678 20.3125 20.1875 C20.333125 20.97769531 20.35375 21.76789063 20.375 22.58203125 C20.41379102 28.41038232 19.28323668 32.38516529 15.6875 37.125 C11.44199412 40.22748507 5.22962842 39.52938257 0.1875 39.5625 C-0.58980469 39.583125 -1.36710937 39.60375 -2.16796875 39.625 C-7.51672074 39.660958 -11.20788988 38.85921314 -15.9375 36.3125 C-21.24402306 29.23713592 -20.43218128 20.73032647 -19.9375 12.3125 C-19.22520297 9.31008519 -18.32277699 7.08305399 -16.9375 4.3125 C-16.2775 4.3125 -15.6175 4.3125 -14.9375 4.3125 C-14.9375 3.6525 -14.9375 2.9925 -14.9375 2.3125 C-9.83782424 0.26447021 -5.40555433 -0.02242969 0 0 Z " fill="#001689" transform="translate(287.9375,67.6875)"/>
<path d="M0 0 C1.22976563 -0.01063477 1.22976563 -0.01063477 2.484375 -0.02148438 C8.32697709 0.03957176 12.50510567 1.16137691 17.1875 4.875 C20.33151547 9.01186246 19.59472282 14.81103571 19.625 19.75 C19.645625 20.57951172 19.66625 21.40902344 19.6875 22.26367188 C19.72219477 27.75845636 19.05199147 31.60265326 16.375 36.4375 C11.11539742 39.94390172 5.63390034 39.64721166 -0.5 39.6875 C-1.27730469 39.708125 -2.05460937 39.72875 -2.85546875 39.75 C-8.20629709 39.78597196 -11.88786096 38.97004741 -16.625 36.4375 C-21.59072391 30.31310718 -21.15384558 21.95320931 -20.625 14.4375 C-20.11628167 10.80016396 -19.65116232 7.52629636 -17.625 4.4375 C-12.11380605 0.38072024 -6.65829676 -0.16381524 0 0 Z " fill="#001689" transform="translate(483.625,67.5625)"/>
</svg>
