<?xml version="1.0" standalone="no"?>
<!DOCTYPE svg PUBLIC "-//W3C//DTD SVG 20010904//EN"
 "http://www.w3.org/TR/2001/REC-SVG-20010904/DTD/svg10.dtd">
<svg version="1.0" xmlns="http://www.w3.org/2000/svg"
 width="1024.000000pt" height="427.000000pt" viewBox="0 0 1024.000000 427.000000"
 preserveAspectRatio="xMidYMid meet">

<g transform="translate(0.000000,427.000000) scale(0.100000,-0.100000)"
fill="#000000" stroke="none">
<path d="M2763 3566 c-55 -25 -68 -57 -68 -166 0 -163 30 -194 190 -193 153 0
185 33 185 189 0 94 -15 139 -52 164 -33 21 -213 25 -255 6z"/>
<path d="M4710 3562 c-50 -25 -60 -52 -60 -172 0 -117 8 -138 63 -167 49 -25
203 -23 248 3 49 29 59 56 59 167 0 159 -28 187 -187 187 -64 0 -98 -5 -123
-18z"/>
<path d="M7050 3546 c-246 -103 -461 -255 -616 -436 l-76 -88 -252 -5 c-280
-6 -345 -16 -462 -71 -132 -63 -217 -178 -251 -341 -23 -116 -24 -664 0 -779
22 -105 63 -190 121 -250 l48 -49 -44 -38 c-107 -96 -293 -204 -450 -264 l-48
-18 34 -61 c18 -33 59 -110 91 -171 32 -60 60 -112 61 -114 2 -2 43 13 91 33
103 43 242 120 333 185 80 57 246 215 297 283 l38 50 100 -6 c127 -7 372 9
467 30 209 47 335 165 385 360 16 60 18 117 18 419 0 300 -3 360 -17 418 -23
87 -59 158 -110 213 l-41 45 49 50 c86 88 245 186 401 249 l82 34 -89 170
c-49 94 -92 172 -97 173 -4 1 -33 -8 -63 -21z m-870 -801 c0 -3 -17 -40 -39
-83 -21 -42 -69 -147 -106 -232 -105 -243 -194 -438 -237 -524 -34 -68 -42
-77 -50 -61 -16 28 -29 312 -23 495 7 186 18 261 47 307 27 44 106 81 198 92
87 10 210 13 210 6z m405 -525 c0 -279 -2 -333 -17 -380 -19 -61 -54 -101
-109 -124 -63 -26 -326 -50 -317 -28 2 4 26 55 55 112 28 58 85 184 126 280
41 96 111 252 157 345 76 159 83 168 93 145 8 -17 12 -129 12 -350z"/>
<path d="M1660 3020 c-367 -25 -535 -127 -607 -371 -24 -80 -31 -693 -10 -806
24 -123 52 -187 112 -252 127 -137 309 -183 715 -183 193 0 420 15 442 28 4 3
8 62 8 131 l0 125 -272 -7 c-474 -12 -609 21 -650 156 -18 61 -19 685 0 746
41 137 165 168 637 162 l270 -4 3 119 c1 66 -1 123 -5 127 -22 22 -461 42
-643 29z"/>
<path d="M3825 3014 c-228 -37 -342 -132 -397 -329 -21 -78 -22 -97 -26 -672
l-3 -593 165 0 165 0 4 568 c2 421 6 577 16 605 21 66 65 104 145 130 64 20
90 22 279 21 l208 0 -3 125 -3 126 -40 8 c-46 9 -465 18 -510 11z"/>
<path d="M2705 2998 c-3 -7 -4 -364 -3 -793 l3 -780 178 -3 177 -2 0 795 0
795 -175 0 c-131 0 -177 -3 -180 -12z"/>
<path d="M4660 2215 l0 -795 175 0 175 0 0 795 0 795 -175 0 -175 0 0 -795z"/>
<path d="M7736 2989 c-113 -15 -262 -48 -354 -77 l-87 -28 -3 -732 -2 -732
185 0 185 0 0 625 c0 723 -10 657 107 671 99 12 378 9 453 -5 92 -18 155 -54
179 -105 32 -66 41 -224 41 -723 l0 -463 185 0 185 0 0 518 c0 552 -6 639 -50
755 -55 147 -177 234 -391 282 -88 20 -522 29 -633 14z"/>
</g>
</svg>
