<svg version="1.1" id="Layer_1" xmlns="http://www.w3.org/2000/svg" xmlns:xlink="http://www.w3.org/1999/xlink" x="0px" y="0px"
	 width="100%" viewBox="0 0 1024 427" enable-background="new 0 0 1024 427" xml:space="preserve">
<path fill="#000000" opacity="1.000000" stroke="none" 
	d="
M661.000000,428.000000 
	C440.666656,428.000000 220.833328,428.000000 1.000000,428.000000 
	C1.000000,285.666656 1.000000,143.333328 1.000000,1.000000 
	C342.333344,1.000000 683.666687,1.000000 1025.000000,1.000000 
	C1025.000000,143.333328 1025.000000,285.666656 1025.000000,428.000000 
	C903.833313,428.000000 782.666687,428.000000 661.000000,428.000000 
M679.317566,138.224640 
	C679.899170,137.945450 680.557129,137.762909 681.050781,137.372513 
	C687.775024,132.054413 694.031250,125.977921 701.292725,121.546638 
	C711.050842,115.591789 721.580688,110.901749 731.993225,105.559013 
	C731.921875,105.311714 731.838440,104.647552 731.552429,104.086777 
	C726.026794,93.253609 720.571777,82.381409 714.773804,71.695435 
	C714.248291,70.726997 711.242371,70.268250 709.797546,70.764374 
	C695.628784,75.629601 682.566345,82.741470 670.292908,91.259087 
	C656.939514,100.526176 645.633606,111.949326 634.976013,124.981987 
	C623.643799,124.988121 612.303223,124.723701 600.981628,125.074089 
	C588.904358,125.447861 576.917236,126.920723 565.750427,131.989090 
	C553.831543,137.398804 544.989746,145.814224 541.943359,158.969635 
	C540.204895,166.476685 538.534668,174.128677 538.117859,181.785339 
	C537.287109,197.043594 536.936890,212.357086 537.201721,227.633667 
	C537.335144,235.327988 538.908203,243.060242 540.442688,250.651566 
	C542.399963,260.335114 548.098816,268.001862 554.349548,275.178772 
	C552.750549,276.830170 551.247375,278.588837 549.537415,280.115997 
	C535.694397,292.479279 518.820129,299.448883 501.385223,306.937805 
	C508.019775,319.333649 514.606384,331.639893 521.476440,344.475830 
	C531.325256,339.657379 541.038635,335.710632 549.898682,330.352783 
	C559.500854,324.546082 568.869934,318.066223 577.296326,310.687286 
	C585.009827,303.932526 591.330017,295.586578 599.167297,287.987549 
	C618.000244,287.252991 636.945984,289.850342 655.650818,285.097443 
	C669.591309,281.555145 681.475220,275.485107 688.651672,262.475128 
	C693.513977,253.660431 695.586243,243.767227 695.768372,233.996872 
	C696.155090,213.257339 695.798950,192.472214 694.810974,171.750443 
	C694.198853,158.913116 689.017700,147.542160 679.317566,138.224640 
M768.000000,212.500000 
	C768.000732,197.001144 768.047302,181.502075 767.972595,166.003571 
	C767.951843,161.689056 769.157959,158.642197 774.002808,158.114487 
	C779.908264,157.471298 785.793030,156.199249 791.700684,156.109070 
	C803.104797,155.934998 814.443237,155.629486 825.779724,158.749802 
	C838.556152,162.266464 841.691589,165.852219 842.745483,178.335815 
	C844.099121,194.370590 843.809753,210.554977 843.961243,226.677429 
	C844.130310,244.674698 843.992188,262.674774 844.011414,280.673645 
	C844.013489,282.611664 844.173462,284.549500 844.266113,286.619507 
	C857.334473,286.619507 869.891113,286.619507 882.637878,286.619507 
	C882.779907,285.128998 882.981445,283.996460 882.982056,282.863770 
	C882.999329,251.199127 883.397217,219.526535 882.770569,187.874298 
	C882.562439,177.359009 881.864502,166.732758 877.339783,156.481171 
	C872.589600,145.718689 864.897766,138.290146 854.755371,134.409134 
	C841.849487,129.470581 828.077881,126.954796 814.052429,127.001793 
	C802.721802,127.039764 791.223755,125.889259 780.101318,127.434547 
	C764.987549,129.534363 750.180908,133.796127 735.199524,136.924789 
	C730.512817,137.903534 728.868713,140.116638 728.889221,145.050903 
	C729.077515,190.213928 729.000061,235.378036 729.000061,280.541840 
	C729.000061,282.485840 729.000061,284.429871 729.000061,286.666077 
	C742.238586,286.666077 754.794983,286.666077 768.000000,286.666077 
	C768.000000,262.058502 768.000000,237.779251 768.000000,212.500000 
M140.000000,188.511292 
	C140.001892,185.178116 139.704498,181.812393 140.062958,178.518021 
	C141.054718,169.403824 142.712387,160.447769 153.546478,157.842926 
	C160.075989,156.273026 166.713730,154.368378 173.348572,154.173767 
	C190.832581,153.660965 208.341583,154.008911 225.840591,153.987228 
	C227.764771,153.984848 229.688736,153.808197 231.567200,153.714645 
	C231.567200,144.538940 231.567200,135.975937 231.567200,127.224945 
	C222.264465,126.460815 213.383652,125.373123 204.477249,125.089203 
	C192.989563,124.722992 181.481277,125.026810 169.982010,124.993019 
	C156.449829,124.953262 143.252762,127.078514 130.767090,132.250610 
	C117.507004,137.743515 109.333817,147.780212 105.808762,161.842773 
	C102.572464,174.753448 102.899132,187.837708 103.045120,200.919998 
	C103.235451,217.975754 101.613037,235.146927 105.958702,251.976837 
	C108.657059,262.427063 114.446976,270.736938 123.393265,276.673889 
	C135.979080,285.026093 150.607162,286.850342 165.034592,287.768036 
	C180.969223,288.781647 197.026138,288.295502 213.013504,287.862183 
	C219.979340,287.673401 226.904617,285.988251 233.500549,285.033020 
	C233.500549,275.747223 233.500549,267.527222 233.500549,259.000000 
	C215.681152,259.000000 198.350174,259.334381 181.041397,258.859436 
	C172.338913,258.620667 163.585129,257.375641 155.031738,255.687744 
	C150.120575,254.718582 144.901932,252.473541 143.211075,246.943192 
	C141.680679,241.937805 140.296631,236.683746 140.142395,231.500809 
	C139.726196,217.513962 140.000000,203.506592 140.000000,188.511292 
M409.488831,124.999992 
	C398.428741,125.674072 387.240112,125.531731 376.344086,127.247589 
	C365.023285,129.030350 355.442993,134.481903 348.922394,144.814590 
	C341.793579,156.111099 340.475952,168.796631 340.226257,181.301651 
	C339.561646,214.588486 339.995911,247.897369 340.012146,281.197479 
	C340.013000,282.966248 340.187714,284.734924 340.287842,286.624023 
	C352.007202,286.624023 363.222809,286.624023 375.000000,286.624023 
	C375.000000,284.139038 374.982605,282.010742 375.002594,279.882782 
	C375.332062,244.796875 375.606934,209.710281 376.049438,174.625793 
	C376.138000,167.605927 378.628235,161.312729 385.747162,158.823120 
	C392.044037,156.620972 398.680542,154.638626 405.275116,154.206070 
	C416.611603,153.462479 428.032135,154.000381 439.949554,154.000381 
	C439.949554,146.230057 440.064178,138.105698 439.804962,129.993301 
	C439.772430,128.975388 437.845093,127.276756 436.665558,127.155090 
	C427.956696,126.256851 419.214813,125.678787 409.488831,124.999992 
M271.000000,143.502380 
	C271.000000,191.196411 271.000000,238.890457 271.000000,286.572235 
	C283.782684,286.572235 295.665192,286.572235 307.640259,286.572235 
	C307.640259,233.294586 307.640259,180.445419 307.640259,127.339615 
	C295.398315,127.339615 283.517303,127.339615 271.000000,127.339615 
	C271.000000,132.612823 271.000000,137.558548 271.000000,143.502380 
M465.999969,279.407410 
	C466.109161,281.823120 466.218353,284.238831 466.322906,286.551880 
	C478.823059,286.551880 490.705322,286.551880 502.616516,286.551880 
	C502.616516,233.251297 502.616516,180.399780 502.616516,127.364120 
	C490.348724,127.364120 478.467072,127.364120 466.000000,127.364120 
	C466.000000,177.961548 466.000000,228.197144 465.999969,279.407410 
M308.074249,99.272629 
	C308.221649,92.857246 308.551025,86.439392 308.463989,80.027191 
	C308.380920,73.908134 304.543701,70.565323 298.881500,69.983925 
	C292.680786,69.347229 286.342133,69.043289 280.152893,69.595428 
	C274.226501,70.124107 270.028687,73.944038 269.580170,80.112259 
	C269.152924,85.988663 269.447479,91.961212 269.934570,97.849312 
	C270.531830,105.068863 275.894196,107.532639 282.070282,107.839813 
	C287.815765,108.125572 293.611115,107.327629 299.387939,107.089951 
	C304.043884,106.898392 306.339081,103.917030 308.074249,99.272629 
M465.356140,99.703430 
	C466.881866,105.135292 471.068298,107.485168 476.114197,107.758125 
	C481.872894,108.069641 487.679840,107.442970 493.467377,107.280319 
	C499.929779,107.098679 503.263794,103.305161 503.619598,97.365662 
	C503.993652,91.121193 503.466309,84.818001 503.239258,78.543861 
	C503.080627,74.161110 500.895416,71.123871 496.425140,70.778008 
	C489.120758,70.212883 481.767151,69.671982 474.461670,69.921593 
	C468.360291,70.130051 465.611450,74.882019 465.144379,80.275055 
	C464.609985,86.445808 465.083130,92.703812 465.356140,99.703430 
z"/>
<path fill="#001689" opacity="1.000000" stroke="none" 
	d="
M768.000000,213.000000 
	C768.000000,237.779251 768.000000,262.058502 768.000000,286.666077 
	C754.794983,286.666077 742.238586,286.666077 729.000061,286.666077 
	C729.000061,284.429871 729.000061,282.485840 729.000061,280.541840 
	C729.000061,235.378036 729.077515,190.213928 728.889221,145.050903 
	C728.868713,140.116638 730.512817,137.903534 735.199524,136.924789 
	C750.180908,133.796127 764.987549,129.534363 780.101318,127.434547 
	C791.223755,125.889259 802.721802,127.039764 814.052429,127.001793 
	C828.077881,126.954796 841.849487,129.470581 854.755371,134.409134 
	C864.897766,138.290146 872.589600,145.718689 877.339783,156.481171 
	C881.864502,166.732758 882.562439,177.359009 882.770569,187.874298 
	C883.397217,219.526535 882.999329,251.199127 882.982056,282.863770 
	C882.981445,283.996460 882.779907,285.128998 882.637878,286.619507 
	C869.891113,286.619507 857.334473,286.619507 844.266113,286.619507 
	C844.173462,284.549500 844.013489,282.611664 844.011414,280.673645 
	C843.992188,262.674774 844.130310,244.674698 843.961243,226.677429 
	C843.809753,210.554977 844.099121,194.370590 842.745483,178.335815 
	C841.691589,165.852219 838.556152,162.266464 825.779724,158.749802 
	C814.443237,155.629486 803.104797,155.934998 791.700684,156.109070 
	C785.793030,156.199249 779.908264,157.471298 774.002808,158.114487 
	C769.157959,158.642197 767.951843,161.689056 767.972595,166.003571 
	C768.047302,181.502075 768.000732,197.001144 768.000000,213.000000 
z"/>
<path fill="#001689" opacity="1.000000" stroke="none" 
	d="
M554.997131,274.834229 
	C548.098816,268.001862 542.399963,260.335114 540.442688,250.651566 
	C538.908203,243.060242 537.335144,235.327988 537.201721,227.633667 
	C536.936890,212.357086 537.287109,197.043594 538.117859,181.785339 
	C538.534668,174.128677 540.204895,166.476685 541.943359,158.969635 
	C544.989746,145.814224 553.831543,137.398804 565.750427,131.989090 
	C576.917236,126.920723 588.904358,125.447861 600.981628,125.074089 
	C612.303223,124.723701 623.643799,124.988121 635.708984,125.260895 
	C637.227234,125.775085 637.999390,126.148926 638.799866,126.225052 
	C652.652344,127.542427 666.088135,130.109802 677.556946,138.794083 
	C677.874084,139.034225 678.516174,138.845383 679.006714,138.856567 
	C689.017700,147.542160 694.198853,158.913116 694.810974,171.750443 
	C695.798950,192.472214 696.155090,213.257339 695.768372,233.996872 
	C695.586243,243.767227 693.513977,253.660431 688.651672,262.475128 
	C681.475220,275.485107 669.591309,281.555145 655.650818,285.097443 
	C636.945984,289.850342 618.000244,287.252991 598.663330,287.617828 
	C603.630005,278.310608 609.075745,269.357574 614.616943,260.464020 
	C615.081299,259.718750 616.188232,259.373871 617.461182,258.896729 
	C625.323914,258.338898 632.774841,258.093811 640.108887,257.036804 
	C653.904541,255.048523 657.095093,246.780228 657.954163,236.923523 
	C658.586853,229.665100 659.094299,222.366074 659.071960,215.086945 
	C659.034607,202.891388 658.576904,190.695709 658.174255,178.504120 
	C658.111572,176.604568 657.403748,174.726334 657.005005,172.478210 
	C658.234741,166.645111 655.539124,160.849045 649.485718,158.088470 
	C639.155945,153.377792 628.198303,152.442093 616.539551,154.103516 
	C609.814819,154.374466 603.525024,154.424469 597.299683,155.083694 
	C585.826416,156.298645 577.375916,162.309921 576.182007,170.369064 
	C575.073608,177.851730 574.016418,185.454102 574.139099,192.984161 
	C574.410889,209.663727 575.437378,226.330994 576.107544,243.395630 
	C576.036621,244.449539 576.199951,245.187347 575.964294,245.761368 
	C571.701660,256.143555 565.865540,265.534485 558.036987,273.611877 
	C557.342529,274.328369 556.025146,274.441071 554.997131,274.834229 
z"/>
<path fill="#001689" opacity="1.000000" stroke="none" 
	d="
M140.000000,189.009323 
	C140.000000,203.506592 139.726196,217.513962 140.142395,231.500809 
	C140.296631,236.683746 141.680679,241.937805 143.211075,246.943192 
	C144.901932,252.473541 150.120575,254.718582 155.031738,255.687744 
	C163.585129,257.375641 172.338913,258.620667 181.041397,258.859436 
	C198.350174,259.334381 215.681152,259.000000 233.500549,259.000000 
	C233.500549,267.527222 233.500549,275.747223 233.500549,285.033020 
	C226.904617,285.988251 219.979340,287.673401 213.013504,287.862183 
	C197.026138,288.295502 180.969223,288.781647 165.034592,287.768036 
	C150.607162,286.850342 135.979080,285.026093 123.393265,276.673889 
	C114.446976,270.736938 108.657059,262.427063 105.958702,251.976837 
	C101.613037,235.146927 103.235451,217.975754 103.045120,200.919998 
	C102.899132,187.837708 102.572464,174.753448 105.808762,161.842773 
	C109.333817,147.780212 117.507004,137.743515 130.767090,132.250610 
	C143.252762,127.078514 156.449829,124.953262 169.982010,124.993019 
	C181.481277,125.026810 192.989563,124.722992 204.477249,125.089203 
	C213.383652,125.373123 222.264465,126.460815 231.567200,127.224945 
	C231.567200,135.975937 231.567200,144.538940 231.567200,153.714645 
	C229.688736,153.808197 227.764771,153.984848 225.840591,153.987228 
	C208.341583,154.008911 190.832581,153.660965 173.348572,154.173767 
	C166.713730,154.368378 160.075989,156.273026 153.546478,157.842926 
	C142.712387,160.447769 141.054718,169.403824 140.062958,178.518021 
	C139.704498,181.812393 140.001892,185.178116 140.000000,189.009323 
z"/>
<path fill="#EE2AC1" opacity="1.000000" stroke="none" 
	d="
M617.003479,154.157379 
	C628.198303,152.442093 639.155945,153.377792 649.485718,158.088470 
	C655.539124,160.849045 658.234741,166.645111 656.678711,172.653442 
	C654.531799,176.919434 652.696777,180.638290 650.917603,184.383636 
	C648.168335,190.171265 645.353882,195.931107 642.754883,201.786072 
	C639.070129,210.086914 635.577576,218.472809 631.960632,226.804016 
	C630.006287,231.305542 628.031128,235.800385 625.945496,240.241989 
	C623.021057,246.469818 619.985046,252.645203 616.996704,258.843018 
	C616.188232,259.373871 615.081299,259.718750 614.616943,260.464020 
	C609.075745,269.357574 603.630005,278.310608 598.211792,287.594940 
	C591.330017,295.586578 585.009827,303.932526 577.296326,310.687286 
	C568.869934,318.066223 559.500854,324.546082 549.898682,330.352783 
	C541.038635,335.710632 531.325256,339.657379 521.476440,344.475830 
	C514.606384,331.639893 508.019775,319.333649 501.385223,306.937805 
	C518.820129,299.448883 535.694397,292.479279 549.537415,280.115997 
	C551.247375,278.588837 552.750549,276.830170 554.673340,275.006470 
	C556.025146,274.441071 557.342529,274.328369 558.036987,273.611877 
	C565.865540,265.534485 571.701660,256.143555 575.964294,245.761368 
	C576.199951,245.187347 576.036621,244.449539 576.421631,243.227600 
	C580.190552,235.589630 583.774414,228.591003 586.965393,221.417618 
	C593.184021,207.438309 599.103149,193.325974 605.302002,179.337708 
	C609.051270,170.877243 613.093079,162.546432 617.003479,154.157379 
z"/>
<path fill="#001689" opacity="1.000000" stroke="none" 
	d="
M409.986084,125.000000 
	C419.214813,125.678787 427.956696,126.256851 436.665558,127.155090 
	C437.845093,127.276756 439.772430,128.975388 439.804962,129.993301 
	C440.064178,138.105698 439.949554,146.230057 439.949554,154.000381 
	C428.032135,154.000381 416.611603,153.462479 405.275116,154.206070 
	C398.680542,154.638626 392.044037,156.620972 385.747162,158.823120 
	C378.628235,161.312729 376.138000,167.605927 376.049438,174.625793 
	C375.606934,209.710281 375.332062,244.796875 375.002594,279.882782 
	C374.982605,282.010742 375.000000,284.139038 375.000000,286.624023 
	C363.222809,286.624023 352.007202,286.624023 340.287842,286.624023 
	C340.187714,284.734924 340.013000,282.966248 340.012146,281.197479 
	C339.995911,247.897369 339.561646,214.588486 340.226257,181.301651 
	C340.475952,168.796631 341.793579,156.111099 348.922394,144.814590 
	C355.442993,134.481903 365.023285,129.030350 376.344086,127.247589 
	C387.240112,125.531731 398.428741,125.674072 409.986084,125.000000 
z"/>
<path fill="#001689" opacity="1.000000" stroke="none" 
	d="
M271.000000,143.003326 
	C271.000000,137.558548 271.000000,132.612823 271.000000,127.339615 
	C283.517303,127.339615 295.398315,127.339615 307.640259,127.339615 
	C307.640259,180.445419 307.640259,233.294586 307.640259,286.572235 
	C295.665192,286.572235 283.782684,286.572235 271.000000,286.572235 
	C271.000000,238.890457 271.000000,191.196411 271.000000,143.003326 
z"/>
<path fill="#001689" opacity="1.000000" stroke="none" 
	d="
M466.000000,278.920074 
	C466.000000,228.197144 466.000000,177.961548 466.000000,127.364120 
	C478.467072,127.364120 490.348724,127.364120 502.616516,127.364120 
	C502.616516,180.399780 502.616516,233.251297 502.616516,286.551880 
	C490.705322,286.551880 478.823059,286.551880 466.322906,286.551880 
	C466.218353,284.238831 466.109161,281.823120 466.000000,278.920074 
z"/>
<path fill="#EE2AC1" opacity="1.000000" stroke="none" 
	d="
M679.162109,138.540604 
	C678.516174,138.845383 677.874084,139.034225 677.556946,138.794083 
	C666.088135,130.109802 652.652344,127.542427 638.799866,126.225052 
	C637.999390,126.148926 637.227234,125.775085 636.171021,125.242661 
	C645.633606,111.949326 656.939514,100.526176 670.292908,91.259087 
	C682.566345,82.741470 695.628784,75.629601 709.797546,70.764374 
	C711.242371,70.268250 714.248291,70.726997 714.773804,71.695435 
	C720.571777,82.381409 726.026794,93.253609 731.552429,104.086777 
	C731.838440,104.647552 731.921875,105.311714 731.993225,105.559013 
	C721.580688,110.901749 711.050842,115.591789 701.292725,121.546638 
	C694.031250,125.977921 687.775024,132.054413 681.050781,137.372513 
	C680.557129,137.762909 679.899170,137.945450 679.162109,138.540604 
z"/>
<path fill="#001689" opacity="1.000000" stroke="none" 
	d="
M308.032440,99.681664 
	C306.339081,103.917030 304.043884,106.898392 299.387939,107.089951 
	C293.611115,107.327629 287.815765,108.125572 282.070282,107.839813 
	C275.894196,107.532639 270.531830,105.068863 269.934570,97.849312 
	C269.447479,91.961212 269.152924,85.988663 269.580170,80.112259 
	C270.028687,73.944038 274.226501,70.124107 280.152893,69.595428 
	C286.342133,69.043289 292.680786,69.347229 298.881500,69.983925 
	C304.543701,70.565323 308.380920,73.908134 308.463989,80.027191 
	C308.551025,86.439392 308.221649,92.857246 308.032440,99.681664 
z"/>
<path fill="#001689" opacity="1.000000" stroke="none" 
	d="
M465.237335,99.313675 
	C465.083130,92.703812 464.609985,86.445808 465.144379,80.275055 
	C465.611450,74.882019 468.360291,70.130051 474.461670,69.921593 
	C481.767151,69.671982 489.120758,70.212883 496.425140,70.778008 
	C500.895416,71.123871 503.080627,74.161110 503.239258,78.543861 
	C503.466309,84.818001 503.993652,91.121193 503.619598,97.365662 
	C503.263794,103.305161 499.929779,107.098679 493.467377,107.280319 
	C487.679840,107.442970 481.872894,108.069641 476.114197,107.758125 
	C471.068298,107.485168 466.881866,105.135292 465.237335,99.313675 
z"/>
<path fill="#000000" opacity="1.000000" stroke="none" 
	d="
M616.539551,154.103516 
	C613.093079,162.546432 609.051270,170.877243 605.302002,179.337708 
	C599.103149,193.325974 593.184021,207.438309 586.965393,221.417618 
	C583.774414,228.591003 580.190552,235.589630 576.470093,242.835251 
	C575.437378,226.330994 574.410889,209.663727 574.139099,192.984161 
	C574.016418,185.454102 575.073608,177.851730 576.182007,170.369064 
	C577.375916,162.309921 585.826416,156.298645 597.299683,155.083694 
	C603.525024,154.424469 609.814819,154.374466 616.539551,154.103516 
z"/>
<path fill="#000000" opacity="1.000000" stroke="none" 
	d="
M617.461182,258.896729 
	C619.985046,252.645203 623.021057,246.469818 625.945496,240.241989 
	C628.031128,235.800385 630.006287,231.305542 631.960632,226.804016 
	C635.577576,218.472809 639.070129,210.086914 642.754883,201.786072 
	C645.353882,195.931107 648.168335,190.171265 650.917603,184.383636 
	C652.696777,180.638290 654.531799,176.919434 656.668091,173.013458 
	C657.403748,174.726334 658.111572,176.604568 658.174255,178.504120 
	C658.576904,190.695709 659.034607,202.891388 659.071960,215.086945 
	C659.094299,222.366074 658.586853,229.665100 657.954163,236.923523 
	C657.095093,246.780228 653.904541,255.048523 640.108887,257.036804 
	C632.774841,258.093811 625.323914,258.338898 617.461182,258.896729 
z"/>
</svg>